<?xml version="1.0" encoding="UTF-8"?>
<!DOCTYPE svg PUBLIC "-//W3C//DTD SVG 1.0//EN" "http://www.w3.org/TR/2001/REC-SVG-20010904/DTD/svg10.dtd">
<!-- Creator: CorelDRAW -->
<svg xmlns="http://www.w3.org/2000/svg" xml:space="preserve" width="1300px" height="1300px" version="1.0" style="shape-rendering:geometricPrecision; text-rendering:geometricPrecision; image-rendering:optimizeQuality; fill-rule:evenodd; clip-rule:evenodd"
viewBox="0 0 1300 1056"
 xmlns:xlink="http://www.w3.org/1999/xlink">
 <defs>
  <style type="text/css">
   <![CDATA[
    .fil0 {fill:black;fill-opacity:0.501961}
   ]]>
  </style>
 </defs>
 <g id="_100:master" visibility="hidden">
  <metadata id="CorelCorpID_0Corel-Layer"/>
  <path class="fil0" d="M723 476c0,71 44,93 82,93l16 0 0 81 -16 0c-122,0 -155,-81 -155,-158l0 -492 73 0 0 476z"/>
 </g>
 <g id="Layer_x0020_1">
  <metadata id="CorelCorpID_1Corel-Layer"/>
  <path class="fil0" d="M1057 650l0 0c-40,0 -70,-8 -92,-23 -23,-13 -39,-32 -48,-56 -11,-24 -15,-52 -15,-79 0,-34 0,-69 0,-103l0 0 0 -389 73 0 0 389 0 0 0 82c0,64 40,98 104,98l12 0 0 81c-11,0 -23,0 -34,0z"/>
 </g>
</svg>
