<?xml version="1.0" encoding="UTF-8"?>
<!DOCTYPE svg PUBLIC "-//W3C//DTD SVG 1.0//EN" "http://www.w3.org/TR/2001/REC-SVG-20010904/DTD/svg10.dtd">
<!-- Creator: CorelDRAW -->
<svg xmlns="http://www.w3.org/2000/svg" xml:space="preserve" width="1300px" height="1300px" version="1.0" style="shape-rendering:geometricPrecision; text-rendering:geometricPrecision; image-rendering:optimizeQuality; fill-rule:evenodd; clip-rule:evenodd"
viewBox="0 0 1300 1056"
 xmlns:xlink="http://www.w3.org/1999/xlink">
 <defs>
  <style type="text/css">
   <![CDATA[
    .fil1 {fill:black;fill-opacity:0.501961}
    .fil2 {fill:#9900CC;fill-opacity:0.501961}
    .fil0 {fill:#FF9966;fill-opacity:0.501961}
   ]]>
  </style>
 </defs>
 <g id="_100:master" visibility="hidden">
  <metadata id="CorelCorpID_0Corel-Layer"/>
  <path class="fil0" d="M891 465l77 -22c34,194 -168,207 -359,207 -241,0 -346,-81 -247,-342l63 28c-65,149 -36,233 186,233 143,0 305,-18 280,-104z"/>
  <path class="fil1" d="M934 542l-41 -19c13,-40 -16,-104 -48,-183l75 -32c23,50 39,95 48,135 9,41 -26,70 -34,99z"/>
 </g>
 <g id="Layer_x0020_1" visibility="hidden">
  <metadata id="CorelCorpID_1Corel-Layer"/>
  <polygon class="fil0" points="587,650 587,569 721,569 721,650 "/>
  <path class="fil2" d="M812 650l-99 0 0 -81 99 0c40,0 89,-20 89,-63 0,-40 -18,-99 -44,-170l75 -31c28,79 42,146 42,199 0,101 -64,146 -162,146z"/>
  <path class="fil2" d="M487 650l100 0 0 -81 -100 0c-122,0 -86,-105 -73,-205l-73 -7c-11,127 -64,293 146,293z"/>
 </g>
 <g id="Layer_x0020_2">
  <metadata id="CorelCorpID_2Corel-Layer"/>
  <path class="fil2" d="M851 333l75 -31c29,67 49,125 49,169 0,124 -113,179 -366,179l0 0 0 0 0 0c-221,0 -357,-41 -249,-304l66 20c-59,160 -37,203 186,203 174,0 281,-24 282,-98 0,-33 -20,-80 -43,-138z"/>
 </g>
</svg>
