<?xml version="1.0" encoding="UTF-8"?>
<!DOCTYPE svg PUBLIC "-//W3C//DTD SVG 1.0//EN" "http://www.w3.org/TR/2001/REC-SVG-20010904/DTD/svg10.dtd">
<!-- Creator: CorelDRAW -->
<svg xmlns="http://www.w3.org/2000/svg" xml:space="preserve" width="1300px" height="1300px" version="1.0" style="shape-rendering:geometricPrecision; text-rendering:geometricPrecision; image-rendering:optimizeQuality; fill-rule:evenodd; clip-rule:evenodd"
viewBox="0 0 1300 1056"
 xmlns:xlink="http://www.w3.org/1999/xlink">
 <defs>
  <style type="text/css">
   <![CDATA[
    .fil0 {fill:black;fill-opacity:0.501961}
   ]]>
  </style>
 </defs>
 <g id="_100:master">
  <metadata id="CorelCorpID_0Corel-Layer"/>
  <g id="Regular-g.dal.isol.svg">
   <g>
    <path class="fil0" d="M641 568c18,11 45,16 80,16 36,0 75,-4 118,-12 43,-9 64,-22 64,-39 0,-86 -45,-170 -136,-254l59 -54c95,91 146,194 153,308l0 3c0,21 -9,40 -26,59 -17,18 -39,32 -65,42 -52,20 -104,30 -156,30 -51,0 -93,-9 -124,-27l33 -72z"/>
   </g>
  </g>
 </g>
</svg>
