<?xml version="1.0" encoding="UTF-8"?>
<!DOCTYPE svg PUBLIC "-//W3C//DTD SVG 1.0//EN" "http://www.w3.org/TR/2001/REC-SVG-20010904/DTD/svg10.dtd">
<!-- Creator: CorelDRAW -->
<svg xmlns="http://www.w3.org/2000/svg" xml:space="preserve" width="1300px" height="1300px" version="1.0" style="shape-rendering:geometricPrecision; text-rendering:geometricPrecision; image-rendering:optimizeQuality; fill-rule:evenodd; clip-rule:evenodd"
viewBox="0 0 1300 1056"
 xmlns:xlink="http://www.w3.org/1999/xlink">
 <defs>
  <style type="text/css">
   <![CDATA[
    .fil0 {fill:black;fill-opacity:0.501961}
    .fil1 {fill:#663300;fill-opacity:0.501961}
   ]]>
  </style>
 </defs>
 <g id="_100:master" visibility="hidden">
  <metadata id="CorelCorpID_0Corel-Layer"/>
  <path class="fil0" d="M538 539l63 54c-35,37 -52,80 -52,129 0,48 18,87 55,115 37,28 89,42 156,42 48,0 121,-14 165,-30l30 -10 25 64c-61,31 -155,58 -224,58 -84,0 -153,-22 -208,-65 -54,-44 -81,-101 -81,-173 0,-73 24,-134 71,-184z"/>
  <path class="fil0" d="M601 593l-63 -54c19,-20 39,-37 60,-52 -22,-11 -45,-28 -60,-44 -11,-11 -22,-27 -31,-47 -10,-19 -15,-40 -15,-63 0,-47 18,-87 52,-119 34,-33 68,-49 104,-49 48,0 91,10 143,33l-27 71c-42,-14 -74,-22 -96,-22 -22,0 -43,10 -63,29 -21,19 -31,40 -31,63 0,23 11,42 34,58 19,14 46,28 79,41 5,-2 11,-4 17,-6l122 -40 26 75 -129 45c-47,17 -88,43 -122,81z"/>
 </g>
 <g id="Layer_x0020_1">
  <metadata id="CorelCorpID_1Corel-Layer"/>
  <path class="fil1" d="M591 498c-164,-96 -159,-475 233,-310l-29 76c-327,-108 -232,155 -128,181l182 -53 26 75c-73,26 -163,41 -221,79l0 0c-79,51 -124,119 -125,181 -2,80 76,151 222,151 48,0 102,-8 163,-23l20 77c-69,19 -130,26 -184,27 -195,1 -297,-106 -295,-228 2,-80 48,-167 136,-233z"/>
 </g>
</svg>
