<?xml version="1.0" encoding="UTF-8"?>
<!DOCTYPE svg PUBLIC "-//W3C//DTD SVG 1.0//EN" "http://www.w3.org/TR/2001/REC-SVG-20010904/DTD/svg10.dtd">
<!-- Creator: CorelDRAW -->
<svg xmlns="http://www.w3.org/2000/svg" xml:space="preserve" width="1300px" height="1300px" version="1.0" style="shape-rendering:geometricPrecision; text-rendering:geometricPrecision; image-rendering:optimizeQuality; fill-rule:evenodd; clip-rule:evenodd"
viewBox="0 0 1300 1056"
 xmlns:xlink="http://www.w3.org/1999/xlink">
 <defs>
  <style type="text/css">
   <![CDATA[
    .fil0 {fill:#99CCCC}
   ]]>
  </style>
 </defs>
 <g id="_100:master">
  <metadata id="CorelCorpID_0Corel-Layer"/>
  <path class="fil0" d="M602 569c43,0 80,-3 112,-8 -33,-40 -53,-85 -60,-128 -27,-164 144,-220 301,-179l-18 76c-112,-20 -195,16 -205,52 -7,55 36,130 82,156 55,-15 107,-32 178,-41l-1 72c-109,18 -195,81 -391,81l0 0c-20,-1 -39,-20 -39,-41 1,-21 21,-40 41,-40l0 0z"/>
 </g>
</svg>
