<?xml version="1.0" encoding="UTF-8"?>
<!DOCTYPE svg PUBLIC "-//W3C//DTD SVG 1.0//EN" "http://www.w3.org/TR/2001/REC-SVG-20010904/DTD/svg10.dtd">
<!-- Creator: CorelDRAW -->
<svg xmlns="http://www.w3.org/2000/svg" xml:space="preserve" width="1300px" height="1300px" version="1.0" style="shape-rendering:geometricPrecision; text-rendering:geometricPrecision; image-rendering:optimizeQuality; fill-rule:evenodd; clip-rule:evenodd"
viewBox="0 0 1300 1056"
 xmlns:xlink="http://www.w3.org/1999/xlink">
 <defs>
  <style type="text/css">
   <![CDATA[
    .fil0 {fill:#990000;fill-opacity:0.501961}
   ]]>
  </style>
 </defs>
 <g id="Layer_x0020_2">
  <metadata id="CorelCorpID_0Corel-Layer"/>
  <path class="fil0" d="M647 551l0 0c-173,125 -148,343 114,343 52,0 115,-9 188,-30l19 78c-82,22 -152,32 -212,33 -337,5 -375,-316 -156,-487 -43,-43 -68,-96 -76,-144 -27,-165 144,-221 301,-179l-18 76c-112,-20 -194,16 -205,52 -6,52 32,122 75,152 36,-16 84,-27 185,-44l-1 72c-133,24 -181,54 -214,78z"/>
 </g>
</svg>
