<?xml version="1.0" encoding="UTF-8"?>
<!DOCTYPE svg PUBLIC "-//W3C//DTD SVG 1.0//EN" "http://www.w3.org/TR/2001/REC-SVG-20010904/DTD/svg10.dtd">
<!-- Creator: CorelDRAW -->
<svg xmlns="http://www.w3.org/2000/svg" xml:space="preserve" width="1300px" height="1300px" version="1.0" style="shape-rendering:geometricPrecision; text-rendering:geometricPrecision; image-rendering:optimizeQuality; fill-rule:evenodd; clip-rule:evenodd"
viewBox="0 0 1300 1056"
 xmlns:xlink="http://www.w3.org/1999/xlink">
 <defs>
  <style type="text/css">
   <![CDATA[
    .fil0 {fill:black;fill-opacity:0.501961}
    .fil2 {fill:#990000;fill-opacity:0.501961}
    .fil1 {fill:#99CCCC}
   ]]>
  </style>
 </defs>
 <g id="_100:master" visibility="hidden">
  <metadata id="CorelCorpID_0Corel-Layer"/>
  <path class="fil0" d="M589 650l0 -81 21 0c55,0 127,-36 154,-56 -21,-56 -55,-48 -108,-47l-22 -76c163,-94 290,-35 290,43 1,83 -184,217 -310,217l-25 0z"/>
  <path class="fil1" d="M591 650l0 -81c-20,0 -40,19 -40,40 -1,21 20,41 40,41z"/>
  <path class="fil2" d="M976 569l0 81 -29 0c-173,0 -127,-186 -291,-184l-22 -76c126,-26 164,18 188,72 24,53 58,107 137,107l17 0z"/>
 </g>
 <g id="Layer_x0020_1">
  <metadata id="CorelCorpID_1Corel-Layer"/>
  <path class="fil0" d="M589 650l0 0c-20,0 -40,-20 -40,-41 0,-21 20,-40 40,-40l0 0c70,0 146,-17 187,-55 -18,-41 -50,-76 -120,-65l-22 -75c160,-122 341,-55 341,24 0,51 -32,99 -78,139 34,19 79,32 143,32l17 0 0 81 -29 0c-79,0 -150,-28 -198,-67 -71,41 -156,67 -219,67l-21 0 -1 0z"/>
 </g>
</svg>
