<?xml version="1.0" encoding="UTF-8"?>
<!DOCTYPE svg PUBLIC "-//W3C//DTD SVG 1.0//EN" "http://www.w3.org/TR/2001/REC-SVG-20010904/DTD/svg10.dtd">
<!-- Creator: CorelDRAW -->
<svg xmlns="http://www.w3.org/2000/svg" xml:space="preserve" width="1300px" height="1300px" version="1.0" style="shape-rendering:geometricPrecision; text-rendering:geometricPrecision; image-rendering:optimizeQuality; fill-rule:evenodd; clip-rule:evenodd"
viewBox="0 0 1300 1056"
 xmlns:xlink="http://www.w3.org/1999/xlink">
 <defs>
  <style type="text/css">
   <![CDATA[
    .fil0 {fill:black;fill-opacity:0.501961}
   ]]>
  </style>
 </defs>
 <g id="_100:master">
  <metadata id="CorelCorpID_0Corel-Layer"/>
  <path class="fil0" d="M457 405l-13 -73c64,-26 114,-39 149,-39 35,0 64,7 86,22 23,15 34,36 34,64 0,44 -25,83 -75,117 12,34 27,54 45,62 18,8 61,11 128,11l0 81c-87,0 -146,-11 -176,-34 -20,-16 -37,-44 -52,-84l-55 21c-50,18 -91,44 -124,77 -33,33 -50,69 -50,109 0,60 18,105 55,135 36,31 88,46 153,46 66,0 139,-15 220,-44l29 73c-92,35 -178,53 -258,53 -80,0 -147,-23 -201,-67 -53,-45 -80,-107 -80,-188 0,-34 7,-66 21,-97 26,-56 71,-102 133,-138 30,-17 58,-31 83,-39l51 -19c0,-1 -1,-2 -1,-3 -8,-31 -42,-46 -102,-46l0 0z"/>
 </g>
</svg>
