<?xml version="1.0" encoding="UTF-8"?>
<!DOCTYPE svg PUBLIC "-//W3C//DTD SVG 1.0//EN" "http://www.w3.org/TR/2001/REC-SVG-20010904/DTD/svg10.dtd">
<!-- Creator: CorelDRAW -->
<svg xmlns="http://www.w3.org/2000/svg" xml:space="preserve" width="1300px" height="1300px" version="1.0" style="shape-rendering:geometricPrecision; text-rendering:geometricPrecision; image-rendering:optimizeQuality; fill-rule:evenodd; clip-rule:evenodd"
viewBox="0 0 1300 1056"
 xmlns:xlink="http://www.w3.org/1999/xlink">
 <defs>
  <style type="text/css">
   <![CDATA[
    .fil0 {fill:black;fill-opacity:0.501961}
    .fil1 {fill:#999933;fill-opacity:0.501961}
   ]]>
  </style>
 </defs>
 <g id="_100:master" visibility="hidden">
  <metadata id="CorelCorpID_0Corel-Layer"/>
  <path class="fil0" d="M457 405l-13 -73c64,-26 114,-39 149,-39 59,0 120,22 120,86 0,44 -25,83 -75,117 12,34 27,54 45,62 18,8 61,11 128,11l0 81c-87,0 -146,-11 -176,-34 -20,-16 -37,-44 -52,-84l-55 21c-82,31 -174,96 -174,186 -1,127 86,181 208,181 66,0 139,-15 220,-44l29 73c-92,35 -178,53 -258,53 -80,0 -147,-23 -201,-67 -53,-45 -80,-107 -80,-188 0,-101 64,-183 154,-235 54,-31 81,-39 134,-58 0,-1 -1,-2 -1,-3 -8,-31 -42,-46 -102,-46l0 0z"/>
 </g>
 <g id="Layer_x0020_1" visibility="hidden">
  <metadata id="CorelCorpID_1Corel-Layer"/>
  <path class="fil0" d="M679 541l-49 -65c24,-15 67,-42 84,-63 0,-20 -6,-32 -24,-45 -18,-14 -43,-20 -77,-20l-12 -73c64,-26 114,-39 149,-39 59,0 120,22 120,86 0,39 -19,73 -58,102 26,142 99,145 180,145l0 81c-99,0 -206,-14 -230,-174 -26,26 -59,50 -83,65z"/>
  <path class="fil1" d="M649 464l38 72c-82,50 -133,128 -135,195 -2,112 128,196 405,112l29 73c-347,123 -518,-20 -515,-185 2,-95 61,-198 178,-267z"/>
 </g>
 <g id="Layer_x0020_2">
  <metadata id="CorelCorpID_2Corel-Layer"/>
  <path class="fil0" d="M639 461c-3,-8 -7,-15 -11,-21 -20,-28 -52,-40 -110,-30l-22 -76c163,-94 336,-62 341,16 3,52 -34,100 -88,139 41,41 96,80 169,80l58 0 0 81 -70 0c-107,0 -181,-60 -226,-119l-10 5c-197,122 -182,358 91,358 52,0 115,-9 188,-30l19 78c-82,22 -152,32 -212,33 -356,5 -378,-353 -117,-514z"/>
 </g>
</svg>
