<?xml version="1.0" encoding="UTF-8"?>
<!DOCTYPE svg PUBLIC "-//W3C//DTD SVG 1.0//EN" "http://www.w3.org/TR/2001/REC-SVG-20010904/DTD/svg10.dtd">
<!-- Creator: CorelDRAW -->
<svg xmlns="http://www.w3.org/2000/svg" xml:space="preserve" width="1300px" height="1300px" version="1.0" style="shape-rendering:geometricPrecision; text-rendering:geometricPrecision; image-rendering:optimizeQuality; fill-rule:evenodd; clip-rule:evenodd"
viewBox="0 0 1300 1056"
 xmlns:xlink="http://www.w3.org/1999/xlink">
 <defs>
  <style type="text/css">
   <![CDATA[
    .fil0 {fill:#990000;fill-opacity:0.501961}
   ]]>
  </style>
 </defs>
 <g id="Layer_x0020_2">
  <metadata id="CorelCorpID_0Corel-Layer"/>
  <path class="fil0" d="M680 418l0 0c54,-5 110,-14 180,-24l11 85c-28,4 -55,9 -81,12 -165,45 -255,154 -255,238 0,198 276,182 396,134l16 80c-216,70 -494,38 -494,-212 0,-90 58,-184 162,-250 -102,-37 -153,-169 -88,-270 75,-117 220,-87 303,-47l-31 75c-73,-34 -180,-38 -212,27 -28,57 22,131 93,152z"/>
 </g>
</svg>
