<?xml version="1.0" encoding="UTF-8"?>
<!DOCTYPE svg PUBLIC "-//W3C//DTD SVG 1.0//EN" "http://www.w3.org/TR/2001/REC-SVG-20010904/DTD/svg10.dtd">
<!-- Creator: CorelDRAW -->
<svg xmlns="http://www.w3.org/2000/svg" xml:space="preserve" width="1300px" height="1300px" version="1.0" style="shape-rendering:geometricPrecision; text-rendering:geometricPrecision; image-rendering:optimizeQuality; fill-rule:evenodd; clip-rule:evenodd"
viewBox="0 0 1300 1056"
 xmlns:xlink="http://www.w3.org/1999/xlink">
 <defs>
  <style type="text/css">
   <![CDATA[
    .fil0 {fill:black;fill-opacity:0.501961}
   ]]>
  </style>
 </defs>
 <g id="_100:master">
  <metadata id="CorelCorpID_0Corel-Layer"/>
  <path class="fil0" d="M834 944c-62,31 -155,58 -224,58 -84,0 -153,-22 -208,-65 -54,-44 -81,-102 -81,-174 0,-72 24,-133 71,-183 19,-20 39,-38 60,-53 -22,-11 -45,-28 -60,-43 -12,-12 -22,-27 -32,-47 -9,-20 -14,-41 -14,-63 0,-47 17,-87 51,-120 34,-32 69,-48 105,-48 48,0 91,9 143,33l-27 71c-42,-15 -74,-22 -96,-22 -22,0 -43,9 -63,28 -21,19 -31,40 -31,63 0,23 11,43 34,58 19,15 45,28 79,42 5,-3 11,-5 17,-6l122 -40 26 75 -129 45c-47,16 -88,43 -122,80 -35,38 -52,81 -52,129 0,49 18,87 55,116 37,28 89,42 156,42 48,0 121,-15 165,-30l29 -11 26 65z"/>
 </g>
</svg>
