<?xml version="1.0" encoding="UTF-8"?>
<!DOCTYPE svg PUBLIC "-//W3C//DTD SVG 1.0//EN" "http://www.w3.org/TR/2001/REC-SVG-20010904/DTD/svg10.dtd">
<!-- Creator: CorelDRAW -->
<svg xmlns="http://www.w3.org/2000/svg" xml:space="preserve" width="1300px" height="1300px" version="1.0" style="shape-rendering:geometricPrecision; text-rendering:geometricPrecision; image-rendering:optimizeQuality; fill-rule:evenodd; clip-rule:evenodd"
viewBox="0 0 1300 1056"
 xmlns:xlink="http://www.w3.org/1999/xlink">
 <defs>
  <style type="text/css">
   <![CDATA[
    .fil0 {fill:black;fill-opacity:0.501961}
    .fil2 {fill:#990000;fill-opacity:0.501961}
    .fil1 {fill:#99CCCC}
   ]]>
  </style>
 </defs>
 <g id="_100:master" visibility="hidden">
  <metadata id="CorelCorpID_0Corel-Layer"/>
  <path class="fil0" d="M589 650l0 -81 21 0c55,0 127,-36 154,-56 -21,-56 -55,-48 -108,-47l-22 -76c163,-94 290,-35 290,43 1,83 -184,217 -310,217l-25 0z"/>
  <path class="fil1" d="M591 650l0 -81c-20,0 -40,19 -40,40 -1,21 20,41 40,41z"/>
  <path class="fil2" d="M976 569l0 81 -29 0c-173,0 -127,-186 -291,-184l-22 -76c126,-26 164,18 188,72 24,53 58,107 137,107l17 0z"/>
 </g>
 <g id="Layer_x0020_1">
  <metadata id="CorelCorpID_1Corel-Layer"/>
  <path class="fil0" d="M589 650l0 0c-19,-1 -39,-20 -38,-41 0,-20 19,-39 38,-40l0 0c55,0 144,-18 188,-51 -3,-9 -7,-16 -11,-22 -20,-28 -52,-40 -110,-30l-22 -76c163,-94 341,-62 341,16 0,34 -36,81 -88,125 36,22 83,38 153,38l17 0 0 81 -29 0c-103,0 -169,-30 -209,-70 -65,40 -141,70 -205,70l-25 0z"/>
 </g>
</svg>
