<?xml version="1.0" encoding="UTF-8"?>
<!DOCTYPE svg PUBLIC "-//W3C//DTD SVG 1.0//EN" "http://www.w3.org/TR/2001/REC-SVG-20010904/DTD/svg10.dtd">
<!-- Creator: CorelDRAW -->
<svg xmlns="http://www.w3.org/2000/svg" xml:space="preserve" width="1300px" height="1300px" version="1.0" style="shape-rendering:geometricPrecision; text-rendering:geometricPrecision; image-rendering:optimizeQuality; fill-rule:evenodd; clip-rule:evenodd"
viewBox="0 0 1300 1056"
 xmlns:xlink="http://www.w3.org/1999/xlink">
 <defs>
  <style type="text/css">
   <![CDATA[
    .fil0 {fill:black;fill-opacity:0.501961}
    .fil1 {fill:#999933;fill-opacity:0.501961}
   ]]>
  </style>
 </defs>
 <g id="_100:master" visibility="hidden">
  <metadata id="CorelCorpID_0Corel-Layer"/>
  <path class="fil0" d="M457 405l-13 -73c64,-26 114,-39 149,-39 59,0 120,22 120,86 0,44 -25,83 -75,117 12,34 27,54 45,62 18,8 61,11 128,11l0 81c-87,0 -146,-11 -176,-34 -20,-16 -37,-44 -52,-84l-55 21c-82,31 -174,96 -174,186 -1,127 86,181 208,181 66,0 139,-15 220,-44l29 73c-92,35 -178,53 -258,53 -80,0 -147,-23 -201,-67 -53,-45 -80,-107 -80,-188 0,-101 64,-183 154,-235 54,-31 81,-39 134,-58 0,-1 -1,-2 -1,-3 -8,-31 -42,-46 -102,-46l0 0z"/>
 </g>
 <g id="Layer_x0020_1" visibility="hidden">
  <metadata id="CorelCorpID_1Corel-Layer"/>
  <path class="fil0" d="M679 541l-49 -65c24,-15 67,-42 84,-63 0,-20 -6,-32 -24,-45 -18,-14 -43,-20 -77,-20l-12 -73c64,-26 114,-39 149,-39 59,0 120,22 120,86 0,39 -19,73 -58,102 26,142 99,145 180,145l0 81c-99,0 -206,-14 -230,-174 -26,26 -59,50 -83,65z"/>
  <path class="fil1" d="M649 464l38 72c-82,50 -133,128 -135,195 -2,112 128,196 405,112l29 73c-347,123 -518,-20 -515,-185 2,-95 61,-198 178,-267z"/>
 </g>
 <g id="Layer_x0020_2">
  <metadata id="CorelCorpID_2Corel-Layer"/>
  <path class="fil1" d="M737 509c-96,39 -202,118 -202,220 0,198 276,182 396,134l16 80c-216,70 -494,38 -494,-212 0,-138 121,-241 244,-293l-1 -2c-14,-35 -38,-66 -86,-70 -12,-1 -24,0 -36,2l-22 -75 0 0 0 -1 1 0c160,-121 340,-53 340,25 0,55 -37,107 -90,148 57,71 109,104 205,104l0 81c-119,0 -199,-41 -271,-141z"/>
 </g>
</svg>
