<?xml version="1.0" encoding="UTF-8"?>
<!DOCTYPE svg PUBLIC "-//W3C//DTD SVG 1.0//EN" "http://www.w3.org/TR/2001/REC-SVG-20010904/DTD/svg10.dtd">
<!-- Creator: CorelDRAW -->
<svg xmlns="http://www.w3.org/2000/svg" xml:space="preserve" width="1300px" height="1300px" version="1.0" style="shape-rendering:geometricPrecision; text-rendering:geometricPrecision; image-rendering:optimizeQuality; fill-rule:evenodd; clip-rule:evenodd"
viewBox="0 0 1300 1056"
 xmlns:xlink="http://www.w3.org/1999/xlink">
 <defs>
  <style type="text/css">
   <![CDATA[
    .fil0 {fill:black;fill-opacity:0.501961}
   ]]>
  </style>
 </defs>
 <g id="_100:master">
  <metadata id="CorelCorpID_0Corel-Layer"/>
  <path class="fil0" d="M945 417c0,46 -27,92 -70,130 45,14 92,22 131,22l5 0 0 81 -14 0c-59,0 -141,-13 -210,-44 -55,27 -118,44 -176,44l-43 0 0 0c-20,-1 -40,-20 -40,-41 0,-20 20,-40 40,-40l0 0 1 0 17 0c43,0 83,-6 117,-16 -26,-24 -45,-54 -51,-90 -19,-80 77,-219 156,-219 79,0 137,126 137,173zm-148 97c49,-29 75,-61 76,-77 0,-20 -42,-95 -70,-95 -27,0 -75,61 -79,88 4,33 32,62 73,84z"/>
 </g>
</svg>
