<?xml version="1.0" encoding="UTF-8"?>
<!DOCTYPE svg PUBLIC "-//W3C//DTD SVG 1.0//EN" "http://www.w3.org/TR/2001/REC-SVG-20010904/DTD/svg10.dtd">
<!-- Creator: CorelDRAW -->
<svg xmlns="http://www.w3.org/2000/svg" xml:space="preserve" width="1300px" height="1300px" version="1.0" style="shape-rendering:geometricPrecision; text-rendering:geometricPrecision; image-rendering:optimizeQuality; fill-rule:evenodd; clip-rule:evenodd"
viewBox="0 0 1300 1056"
 xmlns:xlink="http://www.w3.org/1999/xlink">
 <defs>
  <style type="text/css">
   <![CDATA[
    .fil0 {fill:black;fill-opacity:0.501961}
    .fil1 {fill:#99CCCC}
   ]]>
  </style>
 </defs>
 <g id="_100:master" visibility="hidden">
  <metadata id="CorelCorpID_0Corel-Layer"/>
  <path class="fil0" d="M891 490c-41,10 -76,15 -105,14 -166,-5 -120,-276 16,-276 113,0 173,130 173,228 0,129 -106,194 -319,194l-56 0 0 -81 56 0c157,0 235,-26 235,-79zm-102 -67c36,2 84,-8 103,-15 0,-48 -51,-98 -93,-99 -51,0 -88,111 -10,114z"/>
  <path class="fil1" d="M601 650l0 -81c-20,0 -40,19 -41,40 0,21 21,41 41,41z"/>
 </g>
 <g id="Layer_x0020_1">
  <metadata id="CorelCorpID_1Corel-Layer"/>
  <path class="fil1" d="M896 393c-24,6 -56,14 -84,13 -32,0 -74,-11 -72,-46 18,-150 129,-173 156,33zm-273 176l189 0c40,0 89,-20 89,-63 0,-11 0,-22 0,-32 -24,6 -56,13 -88,13 -65,1 -147,-21 -147,-113 4,-128 73,-211 149,-211 95,0 161,97 159,341 0,101 -64,146 -162,146l-189 0 0 0c-20,0 -41,-20 -40,-41 0,-21 20,-40 40,-40l0 0z"/>
 </g>
</svg>
