<?xml version="1.0" encoding="UTF-8"?>
<!DOCTYPE svg PUBLIC "-//W3C//DTD SVG 1.0//EN" "http://www.w3.org/TR/2001/REC-SVG-20010904/DTD/svg10.dtd">
<!-- Creator: CorelDRAW -->
<svg xmlns="http://www.w3.org/2000/svg" xml:space="preserve" width="1300px" height="1300px" version="1.0" style="shape-rendering:geometricPrecision; text-rendering:geometricPrecision; image-rendering:optimizeQuality; fill-rule:evenodd; clip-rule:evenodd"
viewBox="0 0 1300 1056"
 xmlns:xlink="http://www.w3.org/1999/xlink">
 <defs>
  <style type="text/css">
   <![CDATA[
    .fil0 {fill:#FF9966;fill-opacity:0.501961}
   ]]>
  </style>
 </defs>
 <g id="_100:master">
  <metadata id="CorelCorpID_0Corel-Layer"/>
  <path class="fil0" d="M961 417c4,49 -25,96 -71,134 42,11 90,18 141,18l29 0 0 81 -39 0c-78,0 -158,-15 -224,-42 -59,26 -126,42 -185,42l-44 0 0 0c-20,-1 -40,-20 -40,-41 0,-20 20,-40 40,-40l0 0 1 0 33 0c36,0 70,-6 102,-15 -33,-28 -54,-62 -54,-99 0,-114 80,-224 162,-224 88,0 150,119 149,186zm-162 99c53,-29 88,-62 91,-78 -10,-53 -43,-113 -79,-113 -35,0 -89,58 -87,113 1,25 29,54 75,78z"/>
 </g>
</svg>
