<?xml version="1.0" encoding="UTF-8"?>
<!DOCTYPE svg PUBLIC "-//W3C//DTD SVG 1.0//EN" "http://www.w3.org/TR/2001/REC-SVG-20010904/DTD/svg10.dtd">
<!-- Creator: CorelDRAW -->
<svg xmlns="http://www.w3.org/2000/svg" xml:space="preserve" width="1300px" height="1300px" version="1.0" style="shape-rendering:geometricPrecision; text-rendering:geometricPrecision; image-rendering:optimizeQuality; fill-rule:evenodd; clip-rule:evenodd"
viewBox="0 0 1300 1056"
 xmlns:xlink="http://www.w3.org/1999/xlink">
 <defs>
  <style type="text/css">
   <![CDATA[
    .fil0 {fill:black;fill-opacity:0.501961}
   ]]>
  </style>
 </defs>
 <g id="_100:master">
  <metadata id="CorelCorpID_0Corel-Layer"/>
  <path class="fil0" d="M565 569c48,0 87,2 138,-11 -27,-29 -41,-66 -41,-111 0,-63 71,-152 137,-152 68,0 114,91 114,151 0,35 -19,71 -57,110l0 0c32,8 72,13 120,13l0 81c-74,0 -140,-13 -199,-39 -50,26 -104,39 -161,39l-52 0 0 0c-20,-1 -40,-20 -39,-41 0,-20 20,-40 39,-40l0 0 1 0 0 0zm218 -45l0 0c-37,-24 -56,-50 -56,-77 0,-27 42,-71 69,-71 29,0 50,46 50,71 0,24 -21,49 -63,77z"/>
 </g>
</svg>
