<?xml version="1.0" encoding="UTF-8"?>
<!DOCTYPE svg PUBLIC "-//W3C//DTD SVG 1.0//EN" "http://www.w3.org/TR/2001/REC-SVG-20010904/DTD/svg10.dtd">
<!-- Creator: CorelDRAW -->
<svg xmlns="http://www.w3.org/2000/svg" xml:space="preserve" width="1300px" height="1300px" version="1.0" style="shape-rendering:geometricPrecision; text-rendering:geometricPrecision; image-rendering:optimizeQuality; fill-rule:evenodd; clip-rule:evenodd"
viewBox="0 0 1300 1056"
 xmlns:xlink="http://www.w3.org/1999/xlink">
 <defs>
  <style type="text/css">
   <![CDATA[
    .fil0 {fill:black;fill-opacity:0.501961}
    .fil1 {fill:#FF9966;fill-opacity:0.501961}
   ]]>
  </style>
 </defs>
 <g id="_100:master" visibility="hidden">
  <metadata id="CorelCorpID_0Corel-Layer"/>
  <path class="fil0" d="M828 389c0,37 134,12 156,7 0,-122 -156,-144 -156,-7zm-23 78c-28,-16 -41,-43 -41,-81 0,-68 59,-174 135,-174 132,0 163,146 163,251 0,126 -169,189 -508,189 -214,0 -321,-59 -321,-178 0,-45 22,-105 65,-181l71 33c-36,68 -54,120 -54,155 0,60 79,90 238,90 289,0 433,-32 433,-94 -63,14 -121,23 -181,-10z"/>
 </g>
 <g id="Layer_x0020_1">
  <metadata id="CorelCorpID_1Corel-Layer"/>
  <path class="fil1" d="M812 244c-36,0 -72,54 -73,114 0,29 29,48 73,48 28,1 61,-7 85,-13 -13,-76 -50,-149 -85,-149zm-203 406c-224,3 -348,-44 -250,-304l67 20c-62,150 -37,203 185,203 93,0 197,-8 251,-36 24,-14 33,-32 37,-59 -24,7 -55,13 -86,13 -108,1 -147,-60 -147,-128 1,-107 70,-196 146,-198 92,-3 164,145 164,278 0,24 0,45 -3,64l1 1c0,28 -11,50 -28,68 -22,25 -58,44 -119,58 -9,2 -19,4 -29,6l0 0c-59,11 -126,14 -189,14z"/>
 </g>
</svg>
