<?xml version="1.0" encoding="UTF-8"?>
<!DOCTYPE svg PUBLIC "-//W3C//DTD SVG 1.0//EN" "http://www.w3.org/TR/2001/REC-SVG-20010904/DTD/svg10.dtd">
<!-- Creator: CorelDRAW -->
<svg xmlns="http://www.w3.org/2000/svg" xml:space="preserve" width="1300px" height="1300px" version="1.0" style="shape-rendering:geometricPrecision; text-rendering:geometricPrecision; image-rendering:optimizeQuality; fill-rule:evenodd; clip-rule:evenodd"
viewBox="0 0 1300 1056"
 xmlns:xlink="http://www.w3.org/1999/xlink">
 <defs>
  <style type="text/css">
   <![CDATA[
    .fil0 {fill:black;fill-opacity:0.501961}
    .fil3 {fill:#6699FF;fill-opacity:0.501961}
    .fil2 {fill:#9900CC;fill-opacity:0.501961}
    .fil4 {fill:red;fill-opacity:0.501961}
    .fil1 {fill:#99CCCC}
   ]]>
  </style>
 </defs>
 <g id="_100:master" visibility="hidden">
  <metadata id="CorelCorpID_0Corel-Layer"/>
  <path class="fil0" d="M891 490c-41,10 -76,15 -105,14 -166,-5 -120,-276 16,-276 113,0 173,130 173,228 0,129 -106,194 -319,194l-56 0 0 -81 56 0c157,0 235,-26 235,-79zm-102 -67c36,2 84,-8 103,-15 0,-48 -51,-98 -93,-99 -51,0 -88,111 -10,114z"/>
  <path class="fil1" d="M601 650l0 -81c-20,0 -40,19 -41,40 0,21 21,41 41,41z"/>
 </g>
 <g id="Layer_x0020_1" visibility="hidden">
  <metadata id="CorelCorpID_1Corel-Layer"/>
  <path class="fil1" d="M633 650l0 -81c-20,0 -40,19 -41,40 0,21 21,41 41,41z"/>
  <path class="fil2" d="M901 506l73 -2c0,101 -64,146 -162,146l-179 0 0 -81 179 0c40,0 89,-20 89,-63z"/>
  <path class="fil0" d="M812 161l0 83c-36,0 -72,54 -73,114 0,29 29,48 73,48l1 81c-108,1 -147,-60 -147,-128 1,-107 70,-196 146,-198z"/>
  <path class="fil3" d="M813 487l-1 -81c34,1 74,-10 97,-16l1 81c-25,8 -61,16 -97,16z"/>
  <path class="fil4" d="M812 244l0 -83c79,-2 164,86 162,343l-73 2c3,-191 -52,-262 -89,-262z"/>
 </g>
 <g id="Layer_x0020_2">
  <metadata id="CorelCorpID_2Corel-Layer"/>
  <path class="fil1" d="M633 569l169 0c61,0 89,-41 96,-94 -24,6 -54,12 -85,12 -108,1 -147,-60 -147,-128 1,-107 70,-196 146,-198 167,-5 268,486 -8,489l0 0 -171 0 0 0c-20,0 -41,-20 -41,-41 1,-21 21,-40 41,-40l0 0zm179 -325c35,0 72,73 85,149 -24,6 -57,14 -85,13 -44,0 -73,-19 -73,-48 1,-60 37,-114 73,-114z"/>
 </g>
</svg>
