<?xml version="1.0" encoding="UTF-8"?>
<!DOCTYPE svg PUBLIC "-//W3C//DTD SVG 1.0//EN" "http://www.w3.org/TR/2001/REC-SVG-20010904/DTD/svg10.dtd">
<!-- Creator: CorelDRAW -->
<svg xmlns="http://www.w3.org/2000/svg" xml:space="preserve" width="1300px" height="1300px" version="1.0" style="shape-rendering:geometricPrecision; text-rendering:geometricPrecision; image-rendering:optimizeQuality; fill-rule:evenodd; clip-rule:evenodd"
viewBox="0 0 1300 1056"
 xmlns:xlink="http://www.w3.org/1999/xlink">
 <defs>
  <style type="text/css">
   <![CDATA[
    .fil0 {fill:black;fill-opacity:0.501961}
    .fil1 {fill:#99CCCC}
   ]]>
  </style>
 </defs>
 <g id="_100:master" visibility="hidden">
  <metadata id="CorelCorpID_0Corel-Layer"/>
  <path class="fil0" d="M891 490c-41,10 -76,15 -105,14 -166,-5 -120,-276 16,-276 113,0 173,130 173,228 0,129 -106,194 -319,194l-56 0 0 -81 56 0c157,0 235,-26 235,-79zm-102 -67c36,2 84,-8 103,-15 0,-48 -51,-98 -93,-99 -51,0 -88,111 -10,114z"/>
  <path class="fil1" d="M601 650l0 -81c-20,0 -40,19 -41,40 0,21 21,41 41,41z"/>
 </g>
 <g id="Layer_x0020_1">
  <metadata id="CorelCorpID_1Corel-Layer"/>
  <path class="fil1" d="M891 395c-51,12 -137,28 -135,-35 2,-98 102,-124 135,35zm-243 174l164 0c40,0 89,-20 89,-63 0,-11 0,-22 -1,-32 -74,20 -217,37 -218,-100 0,-228 295,-301 292,130 0,101 -64,146 -162,146l-164 0 0 0c-21,0 -41,-20 -41,-41 0,-21 20,-40 41,-40l0 0z"/>
 </g>
</svg>
