<?xml version="1.0" encoding="UTF-8"?>
<!DOCTYPE svg PUBLIC "-//W3C//DTD SVG 1.0//EN" "http://www.w3.org/TR/2001/REC-SVG-20010904/DTD/svg10.dtd">
<!-- Creator: CorelDRAW -->
<svg xmlns="http://www.w3.org/2000/svg" xml:space="preserve" width="1300px" height="1300px" version="1.0" style="shape-rendering:geometricPrecision; text-rendering:geometricPrecision; image-rendering:optimizeQuality; fill-rule:evenodd; clip-rule:evenodd"
viewBox="0 0 1300 1056"
 xmlns:xlink="http://www.w3.org/1999/xlink">
 <defs>
  <style type="text/css">
   <![CDATA[
    .fil0 {fill:#9900CC;fill-opacity:0.501961}
   ]]>
  </style>
 </defs>
 <g id="_100:master">
  <metadata id="CorelCorpID_0Corel-Layer"/>
  <path class="fil0" d="M634 650l-65 0 0 0c-20,0 -41,-20 -40,-41 0,-21 20,-40 40,-40l0 0 0 0 55 0c38,0 71,-3 99,-8 -112,-113 -16,-293 96,-293 147,0 196,178 84,290 35,7 76,11 126,11l44 0 -1 81 -45 0c-90,0 -160,-12 -213,-33 -47,21 -107,33 -180,33zm181 -120c117,-63 84,-180 7,-180 -66,0 -127,117 -7,180z"/>
 </g>
</svg>
