<?xml version="1.0" encoding="UTF-8"?>
<!DOCTYPE svg PUBLIC "-//W3C//DTD SVG 1.0//EN" "http://www.w3.org/TR/2001/REC-SVG-20010904/DTD/svg10.dtd">
<!-- Creator: CorelDRAW -->
<svg xmlns="http://www.w3.org/2000/svg" xml:space="preserve" width="1300px" height="1300px" version="1.0" style="shape-rendering:geometricPrecision; text-rendering:geometricPrecision; image-rendering:optimizeQuality; fill-rule:evenodd; clip-rule:evenodd"
viewBox="0 0 1300 1056"
 xmlns:xlink="http://www.w3.org/1999/xlink">
 <defs>
  <style type="text/css">
   <![CDATA[
    .fil0 {fill:black;fill-opacity:0.501961}
   ]]>
  </style>
 </defs>
 <g id="_100:master">
  <metadata id="CorelCorpID_0Corel-Layer"/>
  <path class="fil0" d="M1016 -60c-120,59 -223,118 -308,175l-26 -48c70,-45 174,-104 313,-177l21 50zm-39 536c0,172 -269,176 -397,177 -193,1 -350,-63 -209,-357l62 33c-110,202 -2,242 144,240 71,0 334,1 334,-97 0,-49 -65,-110 -194,-184l11 -109c139,-97 257,-162 352,-194l22 77c-97,36 -204,93 -321,174 131,77 196,157 196,240z"/>
 </g>
</svg>
