<?xml version="1.0" encoding="UTF-8"?>
<!DOCTYPE svg PUBLIC "-//W3C//DTD SVG 1.0//EN" "http://www.w3.org/TR/2001/REC-SVG-20010904/DTD/svg10.dtd">
<!-- Creator: CorelDRAW -->
<svg xmlns="http://www.w3.org/2000/svg" xml:space="preserve" width="1300px" height="1300px" version="1.0" style="shape-rendering:geometricPrecision; text-rendering:geometricPrecision; image-rendering:optimizeQuality; fill-rule:evenodd; clip-rule:evenodd"
viewBox="0 0 1300 1056"
 xmlns:xlink="http://www.w3.org/1999/xlink">
 <defs>
  <style type="text/css">
   <![CDATA[
    .fil0 {fill:black;fill-opacity:0.501961}
   ]]>
  </style>
 </defs>
 <g id="_100:master">
  <metadata id="CorelCorpID_0Corel-Layer"/>
  <path class="fil0" d="M766 217c76,51 209,147 209,287 0,85 -73,146 -193,146l-132 0 0 0 -1 0 0 0c-20,0 -40,-20 -40,-41 0,-21 21,-40 41,-40l0 0 119 0c100,0 132,-25 132,-63 1,-116 -188,-227 -215,-245 14,-80 17,-91 48,-113 80,-53 208,-114 316,-148l31 75c-104,32 -221,85 -315,142zm233 -233c-103,35 -181,73 -275,134l-22 -42c93,-60 163,-96 279,-136l18 44z"/>
 </g>
</svg>
