<?xml version="1.0" encoding="UTF-8"?>
<!DOCTYPE svg PUBLIC "-//W3C//DTD SVG 1.0//EN" "http://www.w3.org/TR/2001/REC-SVG-20010904/DTD/svg10.dtd">
<!-- Creator: CorelDRAW -->
<svg xmlns="http://www.w3.org/2000/svg" xml:space="preserve" width="1300px" height="1300px" version="1.0" style="shape-rendering:geometricPrecision; text-rendering:geometricPrecision; image-rendering:optimizeQuality; fill-rule:evenodd; clip-rule:evenodd"
viewBox="0 0 1300 1056"
 xmlns:xlink="http://www.w3.org/1999/xlink">
 <defs>
  <style type="text/css">
   <![CDATA[
    .fil0 {fill:black;fill-opacity:0.501961}
   ]]>
  </style>
 </defs>
 <g id="_100:master">
  <metadata id="CorelCorpID_0Corel-Layer"/>
  <path class="fil0" d="M999 -16c-103,35 -181,73 -275,134l-22 -42c93,-60 163,-96 279,-136l18 44zm-233 233c31,21 73,50 110,86l0 0 3 3c68,67 114,131 176,199 34,36 70,64 115,64l0 81c-103,0 -148,-54 -198,-119 -14,71 -84,119 -190,119l-132 0 0 0 -1 0 0 0c-20,0 -40,-20 -40,-41 0,-21 21,-40 41,-40l0 0 119 0c100,0 132,-25 132,-63 1,-55 -41,-106 -78,-142 -55,-54 -122,-93 -137,-103 14,-80 17,-91 48,-113 80,-53 208,-114 316,-148l31 75c-104,32 -221,85 -315,142z"/>
 </g>
</svg>
