<?xml version="1.0" encoding="UTF-8"?>
<!DOCTYPE svg PUBLIC "-//W3C//DTD SVG 1.0//EN" "http://www.w3.org/TR/2001/REC-SVG-20010904/DTD/svg10.dtd">
<!-- Creator: CorelDRAW -->
<svg xmlns="http://www.w3.org/2000/svg" xml:space="preserve" width="1300px" height="1300px" version="1.0" style="shape-rendering:geometricPrecision; text-rendering:geometricPrecision; image-rendering:optimizeQuality; fill-rule:evenodd; clip-rule:evenodd"
viewBox="0 0 1300 1056"
 xmlns:xlink="http://www.w3.org/1999/xlink">
 <defs>
  <style type="text/css">
   <![CDATA[
    .fil0 {fill:black;fill-opacity:0.501961}
   ]]>
  </style>
 </defs>
 <g id="_100:master">
  <metadata id="CorelCorpID_0Corel-Layer"/>
  <path class="fil0" d="M666 650l0 0 0 0c-21,0 -41,-20 -41,-41 1,-21 21,-40 41,-40l103 0c100,0 125,-28 126,-66 0,-109 -182,-224 -209,-242 14,-80 15,-93 48,-113 78,-46 206,-106 316,-148l1 84c-86,29 -203,86 -284,133 41,29 76,57 104,85l0 0c70,68 116,134 179,203 33,36 59,64 115,64l0 81c-101,0 -146,-51 -194,-113 -15,68 -78,113 -189,113l-116 0 0 0zm316 -699l-1 -51 -279 135 5 50 275 -134z"/>
 </g>
</svg>
