<?xml version="1.0" encoding="UTF-8"?>
<!DOCTYPE svg PUBLIC "-//W3C//DTD SVG 1.0//EN" "http://www.w3.org/TR/2001/REC-SVG-20010904/DTD/svg10.dtd">
<!-- Creator: CorelDRAW -->
<svg xmlns="http://www.w3.org/2000/svg" xml:space="preserve" width="1300px" height="1300px" version="1.0" style="shape-rendering:geometricPrecision; text-rendering:geometricPrecision; image-rendering:optimizeQuality; fill-rule:evenodd; clip-rule:evenodd"
viewBox="0 0 1300 1056"
 xmlns:xlink="http://www.w3.org/1999/xlink">
 <defs>
  <style type="text/css">
   <![CDATA[
    .fil0 {fill:black;fill-opacity:0.501961}
   ]]>
  </style>
 </defs>
 <g id="_100:master">
  <metadata id="CorelCorpID_0Corel-Layer"/>
  <path class="fil0" d="M663 650c-21,0 -41,-20 -41,-41 0,-20 20,-40 40,-40l0 0 54 0c55,0 102,-7 140,-21 39,-13 58,-32 58,-55 -1,-30 -10,-54 -27,-75 -21,-24 -40,-42 -58,-53 -18,-12 -31,-20 -39,-24 -9,-5 -21,-12 -38,-21 -17,-9 -28,-14 -32,-16l11 -109c139,-97 257,-162 352,-194l22 77c-97,35 -204,93 -321,174 114,67 197,132 250,196 7,9 16,22 27,39 11,17 20,31 28,41 7,10 18,19 34,28 16,8 35,13 56,13l0 81c-42,0 -76,-10 -101,-31 -26,-21 -49,-49 -67,-86 -11,-19 -21,-33 -31,-42 0,34 -13,63 -37,88 -48,46 -123,70 -225,70l-55 0 0 1zm407 -694l-21 -50c-138,72 -242,131 -312,177l25 48c86,-57 189,-116 308,-175z"/>
 </g>
</svg>
