<?xml version="1.0" encoding="UTF-8"?>
<!DOCTYPE svg PUBLIC "-//W3C//DTD SVG 1.0//EN" "http://www.w3.org/TR/2001/REC-SVG-20010904/DTD/svg10.dtd">
<!-- Creator: CorelDRAW -->
<svg xmlns="http://www.w3.org/2000/svg" xml:space="preserve" width="1300px" height="1300px" version="1.0" style="shape-rendering:geometricPrecision; text-rendering:geometricPrecision; image-rendering:optimizeQuality; fill-rule:evenodd; clip-rule:evenodd"
viewBox="0 0 1300 1056"
 xmlns:xlink="http://www.w3.org/1999/xlink">
 <defs>
  <style type="text/css">
   <![CDATA[
    .fil0 {fill:black;fill-opacity:0.501961}
   ]]>
  </style>
 </defs>
 <g id="_100:master">
  <metadata id="CorelCorpID_0Corel-Layer"/>
  <path class="fil0" d="M660 650c-21,0 -41,-20 -41,-41 0,-21 20,-40 41,-40l0 0 42 0c46,0 86,-4 119,-11 61,-13 91,-34 91,-65 0,-46 -32,-90 -96,-132 -30,-20 -63,-39 -97,-56l10 -108c140,-98 257,-163 352,-195l22 77c-97,36 -203,93 -320,174 94,54 153,108 178,161 11,25 17,52 17,80 0,28 -8,53 -24,74 -17,21 -38,37 -65,48 -53,23 -115,34 -187,34l-42 0 0 0zm407 -694l-21 -50c-138,73 -243,132 -312,177l25 48c86,-57 188,-115 308,-175z"/>
 </g>
</svg>
