<?xml version="1.0" encoding="UTF-8"?>
<!DOCTYPE svg PUBLIC "-//W3C//DTD SVG 1.0//EN" "http://www.w3.org/TR/2001/REC-SVG-20010904/DTD/svg10.dtd">
<!-- Creator: CorelDRAW -->
<svg xmlns="http://www.w3.org/2000/svg" xml:space="preserve" width="1300px" height="1300px" version="1.0" style="shape-rendering:geometricPrecision; text-rendering:geometricPrecision; image-rendering:optimizeQuality; fill-rule:evenodd; clip-rule:evenodd"
viewBox="0 0 1300 1056"
 xmlns:xlink="http://www.w3.org/1999/xlink">
 <defs>
  <style type="text/css">
   <![CDATA[
    .fil0 {fill:#CC3300;fill-opacity:0.501961}
   ]]>
  </style>
 </defs>
 <g id="_100:master">
  <metadata id="CorelCorpID_0Corel-Layer"/>
  <path class="fil0" d="M999 -16c-103,35 -181,73 -275,134l-22 -42c93,-60 163,-96 279,-136l18 44zm-313 277c14,-80 17,-91 48,-113 80,-53 208,-114 316,-148l31 75c-104,32 -221,85 -315,142 65,43 170,119 200,226l0 0c58,207 -220,205 -357,207 -224,3 -348,-44 -250,-304l67 20c-62,150 -37,203 185,203 185,0 302,-13 288,-85l0 0 0 0c-20,-107 -187,-206 -213,-223z"/>
 </g>
</svg>
