<?xml version="1.0" encoding="UTF-8"?>
<!DOCTYPE svg PUBLIC "-//W3C//DTD SVG 1.0//EN" "http://www.w3.org/TR/2001/REC-SVG-20010904/DTD/svg10.dtd">
<!-- Creator: CorelDRAW -->
<svg xmlns="http://www.w3.org/2000/svg" xml:space="preserve" width="1300px" height="1300px" version="1.0" style="shape-rendering:geometricPrecision; text-rendering:geometricPrecision; image-rendering:optimizeQuality; fill-rule:evenodd; clip-rule:evenodd"
viewBox="0 0 1300 1056"
 xmlns:xlink="http://www.w3.org/1999/xlink">
 <defs>
  <style type="text/css">
   <![CDATA[
    .fil0 {fill:black;fill-opacity:0.501961}
   ]]>
  </style>
 </defs>
 <g id="_100:master">
  <metadata id="CorelCorpID_0Corel-Layer"/>
  <path class="fil0" d="M915 810l-21 76c-506,-113 -297,-625 -178,-624 66,1 179,170 94,274 -54,66 -137,114 -239,114l-62 0c-21,0 -41,-20 -41,-41 0,-21 20,-40 41,-40l48 0c110,0 165,-47 203,-83 41,-38 -30,-125 -49,-130 -46,27 -84,121 -60,240 17,80 80,131 158,170 -30,-26 -97,-197 63,-197l103 0 0 81 -60 0c-136,0 -49,91 0,160z"/>
 </g>
</svg>
