<?xml version="1.0" encoding="UTF-8"?>
<!DOCTYPE svg PUBLIC "-//W3C//DTD SVG 1.0//EN" "http://www.w3.org/TR/2001/REC-SVG-20010904/DTD/svg10.dtd">
<!-- Creator: CorelDRAW -->
<svg xmlns="http://www.w3.org/2000/svg" xml:space="preserve" width="1300px" height="1300px" version="1.0" style="shape-rendering:geometricPrecision; text-rendering:geometricPrecision; image-rendering:optimizeQuality; fill-rule:evenodd; clip-rule:evenodd"
viewBox="0 0 1300 1056"
 xmlns:xlink="http://www.w3.org/1999/xlink">
 <defs>
  <style type="text/css">
   <![CDATA[
    .fil0 {fill:black;fill-opacity:0.501961}
    .fil2 {fill:#993366;fill-opacity:0.501961}
    .fil3 {fill:#FF6633;fill-opacity:0.501961}
    .fil1 {fill:#99CCCC}
   ]]>
  </style>
 </defs>
 <g id="_100:master" visibility="hidden">
  <metadata id="CorelCorpID_0Corel-Layer"/>
  <g id="Regular-g.he8.init.svg">
   <g>
    <path class="fil0" d="M667 621c-50,19 -108,29 -176,29l-29 0 0 -81 29 0c36,0 68,-3 98,-9 -28,-33 -42,-69 -42,-106 0,-37 9,-70 26,-99 18,-30 40,-55 68,-75 -7,-5 -23,-13 -48,-26l30 -73c42,21 86,47 130,76 70,44 126,96 170,157 16,21 28,45 38,71 10,27 15,50 15,70 0,20 -7,40 -21,61 -15,22 -31,37 -49,46 -17,9 -33,13 -47,13 -37,0 -82,-10 -136,-30 -22,-8 -41,-16 -56,-24l0 0zm192 -27c14,0 26,-5 36,-15 10,-9 15,-22 15,-38 0,-16 -8,-36 -23,-61 -15,-24 -38,-51 -71,-80 1,16 2,29 2,38 0,51 -23,97 -70,136 44,13 81,20 111,20l0 0zm-192 -56c57,-26 85,-59 85,-100 0,-51 -6,-84 -19,-101 -2,-4 -7,-7 -12,-7 -21,0 -44,12 -70,36 -26,23 -39,52 -39,87 0,18 5,34 15,47 10,13 23,26 40,38l0 0z"/>
   </g>
  </g>
  <path class="fil1" d="M464 650l0 -81c-20,0 -40,19 -41,40 0,21 21,41 41,41z"/>
 </g>
 <g id="Layer_x0020_1" visibility="hidden">
  <metadata id="CorelCorpID_1Corel-Layer"/>
  <path class="fil0" d="M873 437l72 -20c0,119 -181,233 -334,233l-43 0 0 -81 18 0c179,0 286,-100 287,-132z"/>
  <path class="fil1" d="M569 650l0 -81c-21,0 -41,19 -41,40 0,21 20,41 41,41z"/>
  <path class="fil0" d="M945 417l-72 20c0,-20 -42,-95 -70,-95 -28,0 -79,67 -79,92l-72 29c-19,-80 77,-219 156,-219 79,0 137,126 137,173z"/>
  <path class="fil2" d="M652 463l72 -40c-7,40 158,125 265,145 96,18 68,-103 -41,-167l-217 -129 30 -75c90,48 225,111 303,187 105,104 60,288 -77,266 -125,-20 -300,-81 -335,-187z"/>
 </g>
 <g id="Layer_x0020_2" visibility="hidden">
  <metadata id="CorelCorpID_2Corel-Layer"/>
  <path class="fil0" d="M890 490l75 9c-46,111 -163,151 -316,151l-40 0 0 -81 29 0c179,0 239,-50 252,-79z"/>
  <path class="fil1" d="M609 650l0 -81c-20,0 -40,19 -40,40 -1,21 20,41 40,41z"/>
  <path class="fil3" d="M1010 593l-33 75 -165 -58c-236,-82 -116,-383 68,-333 63,17 125,104 85,222l-75 -9c25,-45 13,-107 -36,-122 -93,-29 -140,122 -12,167l168 58z"/>
  <path class="fil2" d="M977 668l33 -75c129,45 115,-253 -291,-305l-20 -80c598,53 515,543 278,460z"/>
 </g>
 <g id="Layer_x0020_3">
  <metadata id="CorelCorpID_3Corel-Layer"/>
  <path class="fil0" d="M882 444l64 21 -64 -21c9,-141 -96,-108 -128,-20 -13,36 27,69 81,95 23,-20 41,-46 47,-75zm64 21c-8,31 -21,58 -38,81 64,20 126,27 136,15 104,-119 -215,-251 -292,-285l25 -76c161,67 493,206 304,438 -16,21 -136,13 -240,-27 -39,25 -84,39 -128,39l-104 0c-20,0 -41,-20 -40,-41 0,-21 20,-40 40,-40l82 0c19,0 39,-3 58,-8 -54,-40 -84,-95 -55,-167 27,-68 106,-140 173,-130 71,11 102,125 79,201z"/>
 </g>
</svg>
