<?xml version="1.0" encoding="UTF-8"?>
<!DOCTYPE svg PUBLIC "-//W3C//DTD SVG 1.0//EN" "http://www.w3.org/TR/2001/REC-SVG-20010904/DTD/svg10.dtd">
<!-- Creator: CorelDRAW -->
<svg xmlns="http://www.w3.org/2000/svg" xml:space="preserve" width="1300px" height="1300px" version="1.0" style="shape-rendering:geometricPrecision; text-rendering:geometricPrecision; image-rendering:optimizeQuality; fill-rule:evenodd; clip-rule:evenodd"
viewBox="0 0 1300 1056"
 xmlns:xlink="http://www.w3.org/1999/xlink">
 <defs>
  <style type="text/css">
   <![CDATA[
    .fil0 {fill:black;fill-opacity:0.501961}
    .fil1 {fill:#99CCCC}
   ]]>
  </style>
 </defs>
 <g id="_100:master" visibility="hidden">
  <metadata id="CorelCorpID_0Corel-Layer"/>
  <g id="Regular-g.he8.init.svg">
   <g>
    <path class="fil0" d="M667 621c-50,19 -108,29 -176,29l-29 0 0 -81 29 0c36,0 68,-3 98,-9 -28,-33 -42,-69 -42,-106 0,-37 9,-70 26,-99 18,-30 40,-55 68,-75 -7,-5 -23,-13 -48,-26l30 -73c42,21 86,47 130,76 70,44 126,96 170,157 16,21 28,45 38,71 10,27 15,50 15,70 0,20 -7,40 -21,61 -15,22 -31,37 -49,46 -17,9 -33,13 -47,13 -37,0 -82,-10 -136,-30 -22,-8 -41,-16 -56,-24l0 0zm192 -27c14,0 26,-5 36,-15 10,-9 15,-22 15,-38 0,-16 -8,-36 -23,-61 -15,-24 -38,-51 -71,-80 1,16 2,29 2,38 0,51 -23,97 -70,136 44,13 81,20 111,20l0 0zm-192 -56c57,-26 85,-59 85,-100 0,-51 -6,-84 -19,-101 -2,-4 -7,-7 -12,-7 -21,0 -44,12 -70,36 -26,23 -39,52 -39,87 0,18 5,34 15,47 10,13 23,26 40,38l0 0z"/>
   </g>
  </g>
  <path class="fil1" d="M464 650l0 -81c-20,0 -40,19 -41,40 0,21 21,41 41,41z"/>
 </g>
 <g id="Layer_x0020_1">
  <metadata id="CorelCorpID_1Corel-Layer"/>
  <path class="fil0" d="M945 417c0,47 -28,93 -72,132 39,12 80,19 116,19 99,1 68,-103 -41,-167l-5 -4c1,8 2,14 2,20zm-165 193c-53,25 -113,40 -169,40l-43 0 0 0c-20,-1 -40,-20 -40,-41 0,-20 20,-40 40,-40l0 0 1 0 17 0c41,0 79,-6 113,-14 -24,-25 -40,-55 -47,-92 -13,-56 30,-141 84,-187l-5 -4 30 -75c90,48 225,111 303,187 105,104 66,266 -77,266 -64,0 -142,-11 -207,-40zm15 -95c50,-29 77,-62 78,-78 0,-20 -42,-95 -70,-95 -27,0 -75,62 -79,88 4,33 32,62 71,85z"/>
 </g>
</svg>
