<?xml version="1.0" encoding="UTF-8"?>
<!DOCTYPE svg PUBLIC "-//W3C//DTD SVG 1.0//EN" "http://www.w3.org/TR/2001/REC-SVG-20010904/DTD/svg10.dtd">
<!-- Creator: CorelDRAW -->
<svg xmlns="http://www.w3.org/2000/svg" xml:space="preserve" width="1300px" height="1300px" version="1.0" style="shape-rendering:geometricPrecision; text-rendering:geometricPrecision; image-rendering:optimizeQuality; fill-rule:evenodd; clip-rule:evenodd"
viewBox="0 0 1300 1056"
 xmlns:xlink="http://www.w3.org/1999/xlink">
 <defs>
  <style type="text/css">
   <![CDATA[
    .fil3 {fill:black;fill-opacity:0.501961}
    .fil0 {fill:#990000;fill-opacity:0.501961}
    .fil2 {fill:#996633;fill-opacity:0.501961}
    .fil1 {fill:#999933;fill-opacity:0.501961}
   ]]>
  </style>
 </defs>
 <g id="_100:master" visibility="hidden">
  <metadata id="CorelCorpID_0Corel-Layer"/>
  <path class="fil0" d="M812 439l67 -11c7,34 25,141 127,141l51 0 0 81 -50 0c-153,0 -165,-90 -195,-211z"/>
  <path class="fil1" d="M933 864l19 78c-82,22 -152,32 -212,33 -460,7 -363,-586 181,-583l16 77 -43 3c-423,25 -506,422 -149,422 52,0 115,-9 188,-30z"/>
  <path class="fil2" d="M521 427l-47 -31 37 -60c26,-43 54,-61 115,-36 148,60 262,93 366,90l-17 81c-130,0 -207,-33 -367,-89 -41,-14 -56,-2 -69,18l-18 27z"/>
 </g>
 <g id="Layer_x0020_1">
  <metadata id="CorelCorpID_1Corel-Layer"/>
  <path class="fil3" d="M1040 650c-145,0 -199,-51 -211,-167 -189,37 -293,156 -293,246 0,198 276,182 397,134l16 80c-216,70 -495,38 -494,-212 0,-119 101,-245 277,-305 -72,-26 -133,-52 -149,-52 -19,-1 -41,12 -90,69l-52 -45c54,-67 83,-106 151,-106 67,0 213,97 366,98l10 0 0 0 24 0 -17 81 -41 1c-16,0 -31,1 -47,2 13,64 59,95 153,95l0 81z"/>
 </g>
</svg>
