<?xml version="1.0" encoding="UTF-8"?>
<!DOCTYPE svg PUBLIC "-//W3C//DTD SVG 1.0//EN" "http://www.w3.org/TR/2001/REC-SVG-20010904/DTD/svg10.dtd">
<!-- Creator: CorelDRAW -->
<svg xmlns="http://www.w3.org/2000/svg" xml:space="preserve" width="1300px" height="1300px" version="1.0" style="shape-rendering:geometricPrecision; text-rendering:geometricPrecision; image-rendering:optimizeQuality; fill-rule:evenodd; clip-rule:evenodd"
viewBox="0 0 1300 1056"
 xmlns:xlink="http://www.w3.org/1999/xlink">
 <defs>
  <style type="text/css">
   <![CDATA[
    .fil0 {fill:#99CCCC}
   ]]>
  </style>
 </defs>
 <g id="_100:master">
  <metadata id="CorelCorpID_0Corel-Layer"/>
  <path class="fil0" d="M388 650c-20,0 -41,-20 -40,-41 0,-21 20,-40 40,-40l0 0 0 0 0 0 112 0c138,0 200,-73 279,-125 -54,-18 -108,-42 -188,-70 -40,-14 -56,-2 -68,18l-18 27 -47 -31 37 -61c25,-42 53,-60 115,-35 147,60 218,98 382,98l-17 81c-12,0 -23,0 -33,0l0 0c-19,0 -35,2 -51,6 15,42 46,92 115,92l51 0 0 81 -50 0c-124,0 -156,-60 -179,-147 -86,51 -143,147 -322,147l-118 0 0 0z"/>
 </g>
</svg>
