<?xml version="1.0" encoding="UTF-8"?>
<!DOCTYPE svg PUBLIC "-//W3C//DTD SVG 1.0//EN" "http://www.w3.org/TR/2001/REC-SVG-20010904/DTD/svg10.dtd">
<!-- Creator: CorelDRAW -->
<svg xmlns="http://www.w3.org/2000/svg" xml:space="preserve" width="1300px" height="1300px" version="1.0" style="shape-rendering:geometricPrecision; text-rendering:geometricPrecision; image-rendering:optimizeQuality; fill-rule:evenodd; clip-rule:evenodd"
viewBox="0 0 1300 1056"
 xmlns:xlink="http://www.w3.org/1999/xlink">
 <defs>
  <style type="text/css">
   <![CDATA[
    .fil0 {fill:#999933;fill-opacity:0.501961}
   ]]>
  </style>
 </defs>
 <g id="_100:master">
  <metadata id="CorelCorpID_0Corel-Layer"/>
  <path class="fil0" d="M933 864l19 78c-82,22 -152,32 -212,33 -396,6 -379,-433 -19,-553 -34,-11 -71,-25 -113,-40 -41,-14 -56,-2 -69,18l-18 27 -47 -31 37 -60c26,-43 54,-61 115,-36 148,60 262,93 366,90l-17 81c-17,0 -33,0 -49,-1l-32 2c-423,25 -506,422 -149,422 52,0 115,-9 188,-30z"/>
 </g>
</svg>
