<?xml version="1.0" encoding="UTF-8"?>
<!DOCTYPE svg PUBLIC "-//W3C//DTD SVG 1.0//EN" "http://www.w3.org/TR/2001/REC-SVG-20010904/DTD/svg10.dtd">
<!-- Creator: CorelDRAW -->
<svg xmlns="http://www.w3.org/2000/svg" xml:space="preserve" width="1300px" height="1300px" version="1.0" style="shape-rendering:geometricPrecision; text-rendering:geometricPrecision; image-rendering:optimizeQuality; fill-rule:evenodd; clip-rule:evenodd"
viewBox="0 0 1300 1056"
 xmlns:xlink="http://www.w3.org/1999/xlink">
 <defs>
  <style type="text/css">
   <![CDATA[
    .fil0 {fill:#99CCCC}
   ]]>
  </style>
 </defs>
 <g id="_100:master">
  <metadata id="CorelCorpID_0Corel-Layer"/>
  <path class="fil0" d="M391 569l125 0c119,0 191,-73 268,-126 -93,-29 -182,-69 -201,-69 -19,-1 -41,12 -90,69l-52 -45c54,-67 83,-106 151,-106 67,0 213,98 367,98l33 0 -17 81 -41 1c-125,7 -209,178 -417,178l-126 0 -1 0 0 0c-20,0 -40,-20 -40,-41 0,-21 20,-40 40,-40l0 0 1 0 0 0z"/>
 </g>
</svg>
