<?xml version="1.0" encoding="UTF-8"?>
<!DOCTYPE svg PUBLIC "-//W3C//DTD SVG 1.0//EN" "http://www.w3.org/TR/2001/REC-SVG-20010904/DTD/svg10.dtd">
<!-- Creator: CorelDRAW -->
<svg xmlns="http://www.w3.org/2000/svg" xml:space="preserve" width="1300px" height="1300px" version="1.0" style="shape-rendering:geometricPrecision; text-rendering:geometricPrecision; image-rendering:optimizeQuality; fill-rule:evenodd; clip-rule:evenodd"
viewBox="0 0 1300 1056"
 xmlns:xlink="http://www.w3.org/1999/xlink">
 <defs>
  <style type="text/css">
   <![CDATA[
    .fil0 {fill:#996633;fill-opacity:0.501961}
   ]]>
  </style>
 </defs>
 <g id="_100:master">
  <metadata id="CorelCorpID_0Corel-Layer"/>
  <path class="fil0" d="M556 368l-53 62 -48 -40 71 -89c79,-100 215,80 439,86l10 0 0 0 0 0 -9 81c-7,0 -15,0 -22,-1 -252,2 -413,142 -415,260 -2,80 76,151 222,151 48,0 102,-8 163,-23l20 77c-69,19 -130,26 -184,27 -195,1 -297,-106 -295,-228 2,-119 102,-250 290,-311 -97,-40 -160,-86 -189,-52z"/>
 </g>
</svg>
