<?xml version="1.0" encoding="UTF-8"?>
<!DOCTYPE svg PUBLIC "-//W3C//DTD SVG 1.0//EN" "http://www.w3.org/TR/2001/REC-SVG-20010904/DTD/svg10.dtd">
<!-- Creator: CorelDRAW -->
<svg xmlns="http://www.w3.org/2000/svg" xml:space="preserve" width="1300px" height="1300px" version="1.0" style="shape-rendering:geometricPrecision; text-rendering:geometricPrecision; image-rendering:optimizeQuality; fill-rule:evenodd; clip-rule:evenodd"
viewBox="0 0 1300 1056"
 xmlns:xlink="http://www.w3.org/1999/xlink">
 <defs>
  <style type="text/css">
   <![CDATA[
    .fil0 {fill:#999933;fill-opacity:0.501961}
   ]]>
  </style>
 </defs>
 <g id="_100:master">
  <metadata id="CorelCorpID_0Corel-Layer"/>
  <path class="fil0" d="M975 387l0 0 0 0 -9 81c-7,0 -15,0 -22,-1 -20,1 -39,2 -57,3l9 32c13,52 45,67 92,67l39 0 0 81 -39 0c-99,0 -138,-50 -144,-137l-2 -36c-186,33 -288,153 -290,254 -2,112 128,196 405,112l29 73c-347,123 -518,-20 -515,-185 2,-118 93,-250 275,-310 -97,-40 -161,-87 -190,-53l-40 48 -48 -41 58 -74c78,-101 215,80 439,86l10 0z"/>
 </g>
</svg>
