<?xml version="1.0" encoding="UTF-8"?>
<!DOCTYPE svg PUBLIC "-//W3C//DTD SVG 1.0//EN" "http://www.w3.org/TR/2001/REC-SVG-20010904/DTD/svg10.dtd">
<!-- Creator: CorelDRAW -->
<svg xmlns="http://www.w3.org/2000/svg" xml:space="preserve" width="1300px" height="1300px" version="1.0" style="shape-rendering:geometricPrecision; text-rendering:geometricPrecision; image-rendering:optimizeQuality; fill-rule:evenodd; clip-rule:evenodd"
viewBox="0 0 1300 1056"
 xmlns:xlink="http://www.w3.org/1999/xlink">
 <defs>
  <style type="text/css">
   <![CDATA[
    .fil0 {fill:black;fill-opacity:0.501961}
   ]]>
  </style>
 </defs>
 <g id="_100:master">
  <metadata id="CorelCorpID_0Corel-Layer"/>
  <path class="fil0" d="M669 650l0 0c-19,-2 -37,-21 -37,-41 0,-20 18,-38 37,-40l0 0 4 0 44 0c111,0 165,-8 204,-43 26,-22 -31,-165 -49,-170 -39,44 -84,121 -60,240 16,80 129,154 182,170 -33,-24 -39,-197 108,-197l58 0 0 81 -44 0c-102,0 -65,126 -16,160l-21 76c-172,-50 -318,-140 -343,-285 -28,-167 72,-341 141,-339 85,2 174,262 94,325 -67,53 -137,63 -239,63l-59 0 -4 0z"/>
 </g>
</svg>
