<?xml version="1.0" encoding="UTF-8"?>
<!DOCTYPE svg PUBLIC "-//W3C//DTD SVG 1.0//EN" "http://www.w3.org/TR/2001/REC-SVG-20010904/DTD/svg10.dtd">
<!-- Creator: CorelDRAW -->
<svg xmlns="http://www.w3.org/2000/svg" xml:space="preserve" width="1300px" height="1300px" version="1.0" style="shape-rendering:geometricPrecision; text-rendering:geometricPrecision; image-rendering:optimizeQuality; fill-rule:evenodd; clip-rule:evenodd"
viewBox="0 0 1300 1056"
 xmlns:xlink="http://www.w3.org/1999/xlink">
 <defs>
  <style type="text/css">
   <![CDATA[
    .fil0 {fill:black;fill-opacity:0.501961}
   ]]>
  </style>
 </defs>
 <g id="_100:master">
  <metadata id="CorelCorpID_0Corel-Layer"/>
  <path class="fil0" d="M915 810l-21 76c-483,-140 -297,-625 -178,-624 119,1 249,388 -131,388l-76 0 -2 0 0 0c-20,-1 -39,-20 -39,-41 0,-21 20,-40 41,-40l0 0 50 0c311,-1 208,-207 162,-202 -46,4 -101,83 -70,229 17,79 80,131 158,169 -48,-89 -5,-197 110,-196l56 0 0 81 -72 0c-78,0 -44,107 12,160z"/>
 </g>
</svg>
