<?xml version="1.0" encoding="UTF-8"?>
<!DOCTYPE svg PUBLIC "-//W3C//DTD SVG 1.0//EN" "http://www.w3.org/TR/2001/REC-SVG-20010904/DTD/svg10.dtd">
<!-- Creator: CorelDRAW -->
<svg xmlns="http://www.w3.org/2000/svg" xml:space="preserve" width="1300px" height="1300px" version="1.0" style="shape-rendering:geometricPrecision; text-rendering:geometricPrecision; image-rendering:optimizeQuality; fill-rule:evenodd; clip-rule:evenodd"
viewBox="0 0 1300 1056"
 xmlns:xlink="http://www.w3.org/1999/xlink">
 <defs>
  <style type="text/css">
   <![CDATA[
    .fil0 {fill:black;fill-opacity:0.501961}
   ]]>
  </style>
 </defs>
 <g id="_100:master" visibility="hidden">
  <metadata id="CorelCorpID_0Corel-Layer"/>
  <path class="fil0" d="M977 476c0,172 -269,176 -397,177 -193,1 -350,-63 -209,-357l62 33c-110,202 -2,242 144,240 71,0 334,1 334,-97 0,-49 -65,-110 -194,-184l11 -109c139,-97 257,-162 352,-194l22 77c-97,36 -204,93 -321,174 131,77 196,157 196,240z"/>
 </g>
 <g id="Layer_x0020_1">
  <metadata id="CorelCorpID_1Corel-Layer"/>
  <path class="fil0" d="M899 484c-20,-107 -187,-206 -213,-223 14,-80 17,-91 48,-113 80,-53 208,-114 316,-148l31 75c-104,32 -221,85 -315,142 65,43 170,119 200,226l0 0c58,207 -220,205 -357,207 -224,3 -348,-44 -250,-304l62 28c-61,150 -32,195 190,195 185,0 302,-13 288,-85l0 0 0 0z"/>
 </g>
</svg>
