<?xml version="1.0" encoding="UTF-8"?>
<!DOCTYPE svg PUBLIC "-//W3C//DTD SVG 1.0//EN" "http://www.w3.org/TR/2001/REC-SVG-20010904/DTD/svg10.dtd">
<!-- Creator: CorelDRAW -->
<svg xmlns="http://www.w3.org/2000/svg" xml:space="preserve" width="1300px" height="1300px" version="1.0" style="shape-rendering:geometricPrecision; text-rendering:geometricPrecision; image-rendering:optimizeQuality; fill-rule:evenodd; clip-rule:evenodd"
viewBox="0 0 1300 1056"
 xmlns:xlink="http://www.w3.org/1999/xlink">
 <defs>
  <style type="text/css">
   <![CDATA[
    .fil0 {fill:black;fill-opacity:0.501961}
   ]]>
  </style>
 </defs>
 <g id="_100:master">
  <metadata id="CorelCorpID_0Corel-Layer"/>
  <path class="fil0" d="M977 493c0,59 -35,97 -85,121 -37,20 -84,31 -141,35 -60,6 -122,6 -171,4 -193,-7 -350,-63 -209,-357l62 33c-110,202 -2,242 144,240 17,0 47,1 81,1l0 -1 54 0 11 0c36,-1 72,-5 103,-12 9,-2 18,-5 27,-8 24,-8 57,-25 57,-55 0,-30 -9,-55 -27,-75 -6,-7 -11,-13 -17,-19 -13,-13 -29,-26 -48,-39l-32 -20c-8,-4 -21,-11 -38,-20 -17,-9 -27,-14 -31,-17l10 -108c140,-97 257,-162 352,-194l0 0 3 -1 22 78c-97,35 -203,93 -320,173 35,21 65,41 91,60 67,47 118,92 156,137 7,9 16,22 27,39l27 41c7,10 19,19 35,28 16,8 34,12 55,12l0 82c-42,0 -75,-10 -101,-31 -26,-21 -48,-49 -67,-86 -10,-18 -20,-32 -30,-41z"/>
 </g>
</svg>
