<?xml version="1.0" encoding="UTF-8"?>
<!DOCTYPE svg PUBLIC "-//W3C//DTD SVG 1.0//EN" "http://www.w3.org/TR/2001/REC-SVG-20010904/DTD/svg10.dtd">
<!-- Creator: CorelDRAW -->
<svg xmlns="http://www.w3.org/2000/svg" xml:space="preserve" width="1300px" height="1300px" version="1.0" style="shape-rendering:geometricPrecision; text-rendering:geometricPrecision; image-rendering:optimizeQuality; fill-rule:evenodd; clip-rule:evenodd"
viewBox="0 0 1300 1056"
 xmlns:xlink="http://www.w3.org/1999/xlink">
 <defs>
  <style type="text/css">
   <![CDATA[
    .fil0 {fill:#CC3399;fill-opacity:0.501961}
   ]]>
  </style>
 </defs>
 <g id="Layer_x0020_1">
  <metadata id="CorelCorpID_0Corel-Layer"/>
  <path class="fil0" d="M887 314c63,64 109,126 168,191 34,36 70,64 115,64l0 81c-105,0 -150,-56 -200,-122 -33,122 -246,121 -361,122 -224,3 -348,-44 -250,-304l67 20c-62,150 -37,203 185,203 185,0 302,-13 288,-85l0 0 0 0c-9,-46 -43,-87 -75,-119 -55,-54 -122,-94 -138,-104 14,-80 17,-91 48,-113 80,-53 208,-114 316,-148l31 75c-104,32 -221,85 -315,142 34,23 81,55 121,97z"/>
 </g>
</svg>
