<?xml version="1.0" encoding="UTF-8"?>
<!DOCTYPE svg PUBLIC "-//W3C//DTD SVG 1.0//EN" "http://www.w3.org/TR/2001/REC-SVG-20010904/DTD/svg10.dtd">
<!-- Creator: CorelDRAW -->
<svg xmlns="http://www.w3.org/2000/svg" xml:space="preserve" width="1300px" height="1300px" version="1.0" style="shape-rendering:geometricPrecision; text-rendering:geometricPrecision; image-rendering:optimizeQuality; fill-rule:evenodd; clip-rule:evenodd"
viewBox="0 0 1300 1056"
 xmlns:xlink="http://www.w3.org/1999/xlink">
 <defs>
  <style type="text/css">
   <![CDATA[
    .fil0 {fill:black;fill-opacity:0.501961}
   ]]>
  </style>
 </defs>
 <g id="_100:master">
  <metadata id="CorelCorpID_0Corel-Layer"/>
  <path class="fil0" d="M800 209c-39,0 -67,9 -86,27 -4,4 -6,9 -6,13 0,5 7,11 20,17 20,10 30,15 45,26 16,11 23,25 23,44 0,19 -13,37 -40,55 -27,18 -60,29 -100,33 -14,2 -22,3 -25,3l0 -56c36,0 65,-4 87,-12 21,-7 32,-15 32,-22 0,-1 -8,-5 -24,-13 -16,-8 -27,-14 -34,-19 -7,-4 -13,-11 -20,-21 -7,-10 -10,-22 -10,-35 0,-21 13,-42 41,-63 27,-21 59,-32 97,-32l0 55z"/>
 </g>
</svg>
