<?xml version="1.0" encoding="UTF-8"?>
<!DOCTYPE svg PUBLIC "-//W3C//DTD SVG 1.0//EN" "http://www.w3.org/TR/2001/REC-SVG-20010904/DTD/svg10.dtd">
<!-- Creator: CorelDRAW -->
<svg xmlns="http://www.w3.org/2000/svg" xml:space="preserve" width="1300px" height="1300px" version="1.0" style="shape-rendering:geometricPrecision; text-rendering:geometricPrecision; image-rendering:optimizeQuality; fill-rule:evenodd; clip-rule:evenodd"
viewBox="0 0 1300 1056"
 xmlns:xlink="http://www.w3.org/1999/xlink">
 <defs>
  <style type="text/css">
   <![CDATA[
    .fil0 {fill:black;fill-opacity:0.501961}
    .fil1 {fill:#99CCCC}
   ]]>
  </style>
 </defs>
 <g id="_100:master" visibility="hidden">
  <metadata id="CorelCorpID_0Corel-Layer"/>
  <path class="fil0" d="M654 650l0 -81 53 0c55,0 102,-6 141,-20 38,-13 57,-32 57,-55 0,-30 -9,-55 -27,-75 -20,-24 -40,-42 -58,-53 -17,-12 -31,-20 -39,-25 -8,-4 -21,-11 -38,-20 -17,-9 -27,-14 -31,-17l10 -108c140,-97 257,-162 352,-194l22 77c-96,35 -203,93 -320,173 113,67 197,133 250,197 7,9 16,22 27,39 11,17 20,31 27,41 7,10 19,19 35,28 16,8 34,12 55,12l0 82c-41,0 -75,-10 -101,-31 -26,-21 -48,-49 -67,-86 -10,-19 -21,-33 -31,-42 0,34 -12,63 -37,88 -47,46 -122,70 -225,70l-55 0z"/>
  <path class="fil1" d="M655 650l0 -81c-21,0 -41,19 -41,40 0,21 20,41 41,41z"/>
 </g>
 <g id="Layer_x0020_1">
  <metadata id="CorelCorpID_1Corel-Layer"/>
  <path class="fil0" d="M766 217c31,21 73,50 110,86l0 0 3 3c68,67 114,131 176,199 34,36 70,64 115,64l0 81c-103,0 -148,-54 -198,-119 -14,71 -84,119 -190,119l-132 0 0 0 -1 0 0 0c-20,0 -40,-20 -40,-41 0,-21 21,-40 41,-40l0 0 119 0c100,0 132,-25 132,-63 1,-55 -41,-106 -78,-142 -55,-54 -122,-93 -137,-103 14,-80 17,-91 48,-113 80,-53 208,-114 316,-148l31 75c-104,32 -221,85 -315,142z"/>
 </g>
</svg>
