<?xml version="1.0" encoding="UTF-8"?>
<!DOCTYPE svg PUBLIC "-//W3C//DTD SVG 1.0//EN" "http://www.w3.org/TR/2001/REC-SVG-20010904/DTD/svg10.dtd">
<!-- Creator: CorelDRAW -->
<svg xmlns="http://www.w3.org/2000/svg" xml:space="preserve" width="1300px" height="1300px" version="1.0" style="shape-rendering:geometricPrecision; text-rendering:geometricPrecision; image-rendering:optimizeQuality; fill-rule:evenodd; clip-rule:evenodd"
viewBox="0 0 1300 1056"
 xmlns:xlink="http://www.w3.org/1999/xlink">
 <defs>
  <style type="text/css">
   <![CDATA[
    .fil0 {fill:black;fill-opacity:0.501961}
    .fil1 {fill:#CC3300;fill-opacity:0.501961}
   ]]>
  </style>
 </defs>
 <g id="_100:master" visibility="hidden">
  <metadata id="CorelCorpID_0Corel-Layer"/>
  <path class="fil0" d="M977 476c0,172 -269,176 -397,177 -193,1 -350,-63 -209,-357l62 33c-110,202 -2,242 144,240 71,0 334,1 334,-97 0,-49 -65,-110 -194,-184l11 -109c139,-97 257,-162 352,-194l22 77c-97,36 -204,93 -321,174 131,77 196,157 196,240z"/>
 </g>
 <g id="Layer_x0020_1">
  <metadata id="CorelCorpID_1Corel-Layer"/>
  <path class="fil1" d="M686 261c14,-80 15,-93 48,-113 78,-46 206,-106 316,-148l1 84c-86,29 -203,86 -284,133 142,100 208,197 208,287 0,85 -64,146 -193,146l-140 0 0 0c-221,0 -357,-41 -250,-304l67 20c-60,160 -37,203 186,203l124 0c100,0 125,-28 126,-66 0,-109 -182,-224 -209,-242z"/>
 </g>
</svg>
