<?xml version="1.0" encoding="UTF-8"?>
<!DOCTYPE svg PUBLIC "-//W3C//DTD SVG 1.0//EN" "http://www.w3.org/TR/2001/REC-SVG-20010904/DTD/svg10.dtd">
<!-- Creator: CorelDRAW -->
<svg xmlns="http://www.w3.org/2000/svg" xml:space="preserve" width="1300px" height="1300px" version="1.0" style="shape-rendering:geometricPrecision; text-rendering:geometricPrecision; image-rendering:optimizeQuality; fill-rule:evenodd; clip-rule:evenodd"
viewBox="0 0 1300 1056"
 xmlns:xlink="http://www.w3.org/1999/xlink">
 <defs>
  <style type="text/css">
   <![CDATA[
    .fil0 {fill:#CC3399;fill-opacity:0.501961}
   ]]>
  </style>
 </defs>
 <g id="Layer_x0020_1">
  <metadata id="CorelCorpID_0Corel-Layer"/>
  <path class="fil0" d="M893 325c58,60 101,118 157,180 34,36 60,64 115,64l0 81c-100,0 -146,-51 -193,-113 -15,67 -78,113 -190,113l-140 0 0 0c-221,0 -357,-41 -250,-304l67 20c-60,160 -37,203 186,203l124 0c100,0 125,-28 126,-66 0,-109 -182,-224 -209,-242 14,-80 15,-93 48,-113 78,-46 206,-106 316,-148l1 84c-86,29 -203,86 -284,133 52,36 94,72 126,108z"/>
 </g>
</svg>
