<?xml version="1.0" encoding="UTF-8"?>
<!DOCTYPE svg PUBLIC "-//W3C//DTD SVG 1.0//EN" "http://www.w3.org/TR/2001/REC-SVG-20010904/DTD/svg10.dtd">
<!-- Creator: CorelDRAW -->
<svg xmlns="http://www.w3.org/2000/svg" xml:space="preserve" width="1300px" height="1300px" version="1.0" style="shape-rendering:geometricPrecision; text-rendering:geometricPrecision; image-rendering:optimizeQuality; fill-rule:evenodd; clip-rule:evenodd"
viewBox="0 0 1300 1056"
 xmlns:xlink="http://www.w3.org/1999/xlink">
 <defs>
  <style type="text/css">
   <![CDATA[
    .fil0 {fill:#99CCCC}
   ]]>
  </style>
 </defs>
 <g id="_100:master">
  <metadata id="CorelCorpID_0Corel-Layer"/>
  <path class="fil0" d="M650 650l-1 0 0 0c-20,0 -40,-20 -40,-41 0,-21 21,-40 41,-40l0 0 119 0c100,0 125,-25 126,-63 1,-116 -182,-227 -209,-245 14,-80 15,-93 48,-113 78,-46 206,-106 316,-148l1 84c-87,29 -206,87 -286,134 89,63 210,155 210,286 0,85 -73,146 -193,146l-132 0 0 0z"/>
 </g>
</svg>
