<?xml version="1.0" encoding="UTF-8"?>
<!DOCTYPE svg PUBLIC "-//W3C//DTD SVG 1.0//EN" "http://www.w3.org/TR/2001/REC-SVG-20010904/DTD/svg10.dtd">
<!-- Creator: CorelDRAW -->
<svg xmlns="http://www.w3.org/2000/svg" xml:space="preserve" width="1300px" height="1300px" version="1.0" style="shape-rendering:geometricPrecision; text-rendering:geometricPrecision; image-rendering:optimizeQuality; fill-rule:evenodd; clip-rule:evenodd"
viewBox="0 0 1300 1056"
 xmlns:xlink="http://www.w3.org/1999/xlink">
 <defs>
  <style type="text/css">
   <![CDATA[
    .fil0 {fill:black;fill-opacity:0.501961}
   ]]>
  </style>
 </defs>
 <g id="_100:master">
  <metadata id="CorelCorpID_0Corel-Layer"/>
  <path class="fil0" d="M456 555c41,18 100,28 178,28 77,0 147,-4 210,-12 43,-6 64,-36 64,-91l0 -448 66 0 0 418c0,32 4,58 12,75 8,19 22,31 41,36 20,6 43,9 70,9l0 82c-60,0 -102,-10 -128,-31 -4,-3 -11,-10 -22,-23 -17,27 -41,42 -71,46 -79,13 -160,20 -245,20 -84,0 -151,-13 -201,-37l26 -72z"/>
 </g>
</svg>
