<?xml version="1.0" encoding="UTF-8"?>
<!DOCTYPE svg PUBLIC "-//W3C//DTD SVG 1.0//EN" "http://www.w3.org/TR/2001/REC-SVG-20010904/DTD/svg10.dtd">
<!-- Creator: CorelDRAW -->
<svg xmlns="http://www.w3.org/2000/svg" xml:space="preserve" width="1300px" height="1300px" version="1.0" style="shape-rendering:geometricPrecision; text-rendering:geometricPrecision; image-rendering:optimizeQuality; fill-rule:evenodd; clip-rule:evenodd"
viewBox="0 0 1300 1056"
 xmlns:xlink="http://www.w3.org/1999/xlink">
 <defs>
  <style type="text/css">
   <![CDATA[
    .fil0 {fill:#99CCCC}
   ]]>
  </style>
 </defs>
 <g id="_100:master">
  <metadata id="CorelCorpID_0Corel-Layer"/>
  <path class="fil0" d="M938 604l0 1c-30,30 -77,45 -140,45l-34 0 0 -81 34 0c46,0 104,-14 104,-69l0 -500 73 0 0 500c0,55 58,69 104,69l12 0 0 81 -12 0c-64,0 -110,-15 -140,-45l-1 -1zm-174 46c-21,0 -41,-20 -41,-41 0,-21 20,-40 41,-40l0 81z"/>
 </g>
</svg>
