<?xml version="1.0" encoding="UTF-8"?>
<!DOCTYPE svg PUBLIC "-//W3C//DTD SVG 1.0//EN" "http://www.w3.org/TR/2001/REC-SVG-20010904/DTD/svg10.dtd">
<!-- Creator: CorelDRAW -->
<svg xmlns="http://www.w3.org/2000/svg" xml:space="preserve" width="1300px" height="1300px" version="1.0" style="shape-rendering:geometricPrecision; text-rendering:geometricPrecision; image-rendering:optimizeQuality; fill-rule:evenodd; clip-rule:evenodd"
viewBox="0 0 1300 1056"
 xmlns:xlink="http://www.w3.org/1999/xlink">
 <defs>
  <style type="text/css">
   <![CDATA[
    .fil0 {fill:black;fill-opacity:0.501961}
   ]]>
  </style>
 </defs>
 <g id="_100:master">
  <metadata id="CorelCorpID_0Corel-Layer"/>
  <path class="fil0" d="M833 570c21,0 31,-13 31,-38 0,-3 -2,-30 -5,-84l48 -10 5 89c0,65 -26,97 -76,97 -20,0 -36,-9 -50,-26 -15,32 -37,51 -63,51 -49,0 -73,-31 -73,-93l0 -42 46 -11 0 52c0,32 9,48 28,48 23,0 34,-25 34,-74l0 -45 46 -16 0 61c0,27 10,41 29,41z"/>
 </g>
</svg>
