<?xml version="1.0" encoding="UTF-8"?>
<!DOCTYPE svg PUBLIC "-//W3C//DTD SVG 1.0//EN" "http://www.w3.org/TR/2001/REC-SVG-20010904/DTD/svg10.dtd">
<!-- Creator: CorelDRAW -->
<svg xmlns="http://www.w3.org/2000/svg" xml:space="preserve" width="1300px" height="1300px" version="1.0" style="shape-rendering:geometricPrecision; text-rendering:geometricPrecision; image-rendering:optimizeQuality; fill-rule:evenodd; clip-rule:evenodd"
viewBox="0 0 1300 1056"
 xmlns:xlink="http://www.w3.org/1999/xlink">
 <defs>
  <style type="text/css">
   <![CDATA[
    .fil0 {fill:black;fill-opacity:0.501961}
   ]]>
  </style>
 </defs>
 <g id="_100:master">
  <metadata id="CorelCorpID_0Corel-Layer"/>
  <path class="fil0" d="M853 484c8,3 17,5 28,8l10 3 -12 54 -12 -4c-18,-6 -32,-12 -43,-17 -36,48 -90,86 -160,114l-15 5 0 -67 8 -2c46,-11 85,-33 118,-66 -32,-11 -57,-25 -74,-42l-4 -3 1 -5c1,-38 12,-69 32,-92 20,-23 48,-35 84,-37l3 -1 3 2c13,6 24,17 33,34 8,16 13,34 13,53 0,17 -5,38 -13,63l0 0zm-37 -48c0,-21 -7,-35 -22,-41 -13,0 -24,3 -31,10 -6,7 -12,18 -16,32 8,6 19,12 34,18 12,4 21,7 27,9 6,-10 8,-20 8,-28z"/>
 </g>
</svg>
