<?xml version="1.0" encoding="UTF-8"?>
<!DOCTYPE svg PUBLIC "-//W3C//DTD SVG 1.0//EN" "http://www.w3.org/TR/2001/REC-SVG-20010904/DTD/svg10.dtd">
<!-- Creator: CorelDRAW -->
<svg xmlns="http://www.w3.org/2000/svg" xml:space="preserve" width="1300px" height="1300px" version="1.0" style="shape-rendering:geometricPrecision; text-rendering:geometricPrecision; image-rendering:optimizeQuality; fill-rule:evenodd; clip-rule:evenodd"
viewBox="0 0 1300 1056"
 xmlns:xlink="http://www.w3.org/1999/xlink">
 <defs>
  <style type="text/css">
   <![CDATA[
    .fil0 {fill:black;fill-opacity:0.501961}
   ]]>
  </style>
 </defs>
 <g id="_100:master">
  <metadata id="CorelCorpID_0Corel-Layer"/>
  <path class="fil0" d="M848 553c0,63 -46,97 -107,97 -43,0 -88,-39 -88,-82 0,-61 25,-107 75,-138 4,-2 3,-2 8,-1 20,5 41,14 58,27 32,22 54,56 54,97zm-112 -62c-22,16 -32,39 -32,70 0,17 15,26 46,26 21,0 38,-7 52,-19 0,-21 -9,-37 -22,-50 -13,-11 -29,-20 -44,-27z"/>
 </g>
</svg>
