<?xml version="1.0" encoding="UTF-8"?>
<!DOCTYPE svg PUBLIC "-//W3C//DTD SVG 1.0//EN" "http://www.w3.org/TR/2001/REC-SVG-20010904/DTD/svg10.dtd">
<!-- Creator: CorelDRAW -->
<svg xmlns="http://www.w3.org/2000/svg" xml:space="preserve" width="1300px" height="1300px" version="1.0" style="shape-rendering:geometricPrecision; text-rendering:geometricPrecision; image-rendering:optimizeQuality; fill-rule:evenodd; clip-rule:evenodd"
viewBox="0 0 1300 1056"
 xmlns:xlink="http://www.w3.org/1999/xlink">
 <defs>
  <style type="text/css">
   <![CDATA[
    .fil0 {fill:black;fill-opacity:0.501961}
   ]]>
  </style>
 </defs>
 <g id="_100:master">
  <metadata id="CorelCorpID_0Corel-Layer"/>
  <path class="fil0" d="M853 515c-38,-9 -60,-16 -83,-47 7,-34 16,-59 27,-75 26,-35 58,-62 101,-55 59,11 58,103 34,148l28 6 0 58 -55 -17c-35,49 -96,88 -182,117l-10 3 -20 -50c16,-5 33,-12 49,-19 -1,-42 -32,-60 -72,-48l-17 -43c63,-21 112,-7 130,72 30,-17 56,-35 70,-50zm21 -119c-31,2 -41,22 -51,48 18,15 42,20 61,27 13,-23 19,-61 -10,-75z"/>
 </g>
</svg>
