<?xml version="1.0" encoding="UTF-8"?>
<!DOCTYPE svg PUBLIC "-//W3C//DTD SVG 1.0//EN" "http://www.w3.org/TR/2001/REC-SVG-20010904/DTD/svg10.dtd">
<!-- Creator: CorelDRAW -->
<svg xmlns="http://www.w3.org/2000/svg" xml:space="preserve" width="1300px" height="1300px" version="1.0" style="shape-rendering:geometricPrecision; text-rendering:geometricPrecision; image-rendering:optimizeQuality; fill-rule:evenodd; clip-rule:evenodd"
viewBox="0 0 1300 1056"
 xmlns:xlink="http://www.w3.org/1999/xlink">
 <defs>
  <style type="text/css">
   <![CDATA[
    .fil3 {fill:black;fill-opacity:0.501961}
    .fil4 {fill:#990000;fill-opacity:0.501961}
    .fil0 {fill:#996633;fill-opacity:0.501961}
    .fil1 {fill:#FF9933;fill-opacity:0.501961}
    .fil2 {fill:#FF9966;fill-opacity:0.501961}
   ]]>
  </style>
 </defs>
 <g id="_100:master" visibility="hidden">
  <metadata id="CorelCorpID_0Corel-Layer"/>
  <path class="fil0" d="M830 586l56 42c-64,162 -393,93 -208,-183 -52,-5 -103,-6 -141,17 -21,13 -32,42 -32,86 0,88 12,211 36,369l-73 12c-26,-152 -39,-278 -39,-378 0,-63 15,-109 44,-140 33,-33 66,-50 146,-50 30,0 51,1 63,2l-20 -37 56 -42 122 207c30,52 62,78 120,78l32 0 0 81 -41 0c-114,0 -155,-98 -206,-180 -119,153 22,212 85,116z"/>
 </g>
 <g id="Layer_x0020_1" visibility="hidden">
  <metadata id="CorelCorpID_1Corel-Layer"/>
  <path class="fil0" d="M838 525l62 52c-98,166 -261,154 -276,16 -4,-39 14,-90 45,-150 -90,-8 -164,-3 -164,105 0,88 12,211 36,369l-73 12c-26,-152 -39,-278 -39,-378 0,-63 15,-109 44,-140 55,-54 136,-55 209,-48l-20 -37 56 -42 122 207c30,52 62,78 120,78l32 0 0 81 -41 0c-114,0 -155,-98 -206,-180 -35,57 -57,99 -50,122 16,52 101,15 143,-67z"/>
 </g>
 <g id="Layer_x0020_2" visibility="hidden">
  <metadata id="CorelCorpID_2Corel-Layer"/>
  <path class="fil0" d="M652 331l66 -47 122 207c41,70 78,78 152,78l0 81c-101,0 -158,-8 -216,-107l-124 -212z"/>
  <path class="fil1" d="M682 392l70 26c-27,69 -76,315 63,151l56 59c-46,54 -97,75 -138,78 -83,8 -131,-105 -51,-314z"/>
  <path class="fil2" d="M743 478l13 -82c-56,-18 -117,-30 -159,-28 -187,8 -226,159 -179,286l94 253 69 -42 -91 -237c-31,-80 -3,-177 106,-176 36,0 95,11 147,26z"/>
 </g>
 <g id="Layer_x0020_3" visibility="hidden">
  <metadata id="CorelCorpID_3Corel-Layer"/>
  <path class="fil3" d="M878 561c0,-1 -63,32 -63,31 -2,-5 -11,-7 -14,-12 -46,-69 -98,-142 -129,-114 -17,15 -29,68 -22,111 14,82 58,69 114,30 36,-25 63,-45 90,-57l23 77 -105 72c-89,60 -172,35 -196,-72 -19,-89 7,-209 65,-236 45,-22 89,-14 136,25 35,29 61,81 101,145z"/>
  <path class="fil0" d="M652 331l66 -47 122 207c41,70 78,78 152,78l0 81c-101,0 -158,-8 -216,-107l-104 -178 -20 -34z"/>
  <path class="fil2" d="M727 469l13 -82c-98,-30 -261,-53 -343,25 -60,57 -66,150 -36,233l94 253 69 -42 -91 -237c-20,-52 -15,-110 20,-145 55,-55 209,-23 274,-5z"/>
 </g>
 <g id="Layer_x0020_4">
  <metadata id="CorelCorpID_4Corel-Layer"/>
  <path class="fil4" d="M733 470c-2,-1 -4,-1 -6,-1l0 0 -2 0c-4,0 -7,1 -11,4 -28,20 -62,124 -9,157 24,16 74,-10 111,-33 -13,-14 -26,-31 -40,-54l-43 -73zm164 173c-78,44 -168,118 -252,68 -81,-48 -76,-180 -16,-263 -66,-9 -141,-9 -176,26 -35,35 -40,93 -20,145l91 237 -69 42 -94 -253c-30,-83 -24,-176 36,-233 66,-62 183,-60 278,-42l-23 -39 66 -47 122 207c41,70 78,78 152,78l0 81c-37,0 -68,-1 -95,-7z"/>
 </g>
</svg>
