<?xml version="1.0" encoding="UTF-8"?>
<!DOCTYPE svg PUBLIC "-//W3C//DTD SVG 1.0//EN" "http://www.w3.org/TR/2001/REC-SVG-20010904/DTD/svg10.dtd">
<!-- Creator: CorelDRAW -->
<svg xmlns="http://www.w3.org/2000/svg" xml:space="preserve" width="1300px" height="1300px" version="1.0" style="shape-rendering:geometricPrecision; text-rendering:geometricPrecision; image-rendering:optimizeQuality; fill-rule:evenodd; clip-rule:evenodd"
viewBox="0 0 1300 1056"
 xmlns:xlink="http://www.w3.org/1999/xlink">
 <defs>
  <style type="text/css">
   <![CDATA[
    .fil0 {fill:black;fill-opacity:0.501961}
    .fil1 {fill:#FF9966;fill-opacity:0.501961}
   ]]>
  </style>
 </defs>
 <g id="_100:master" visibility="hidden">
  <metadata id="CorelCorpID_0Corel-Layer"/>
  <g id="Regular-g.mim.isol.svg">
   <g>
    <path class="fil0" d="M518 602c0,100 12,226 38,378l73 -11c-24,-159 -36,-282 -36,-370 0,-44 11,-73 34,-86 21,-12 55,-19 102,-20 80,0 143,11 189,34l24 11 31 -76c3,-10 4,-22 4,-36 0,-51 -16,-96 -49,-135 -32,-39 -72,-58 -120,-58 -36,0 -65,14 -87,44 -22,29 -33,63 -33,103 0,11 1,23 4,34 -5,1 -10,1 -14,2 -21,2 -43,7 -65,15 -21,8 -39,19 -51,31 -30,31 -44,78 -44,140l0 0zm257 -190c-4,-13 -6,-25 -6,-36 0,-17 3,-32 10,-44 6,-12 19,-17 36,-17 18,0 38,9 59,29 21,19 32,41 32,65 0,9 -2,17 -6,25l-29 -7c-35,-8 -67,-13 -96,-15l0 0z"/>
   </g>
  </g>
 </g>
 <g id="Layer_x0020_1" visibility="hidden">
  <metadata id="CorelCorpID_1Corel-Layer"/>
  <path class="fil0" d="M970 457c-5,21 -18,54 -29,75 -207,-75 -307,-44 -307,51 0,88 8,156 32,314l-72 27c-26,-152 -36,-239 -36,-339 0,-179 159,-231 412,-128z"/>
  <path class="fil0" d="M970 457l-70 -22 9 -19c41,-92 -86,-154 -120,-81l-35 77 -88 13 64 -131c79,-160 308,-63 246,142l-6 21z"/>
 </g>
 <g id="Layer_x0020_2" visibility="hidden">
  <metadata id="CorelCorpID_2Corel-Layer"/>
  <path class="fil0" d="M1057 457l-70 -22 8 -19c42,-92 -63,-144 -106,-62l-33 60 -71 11 32 -90c70,-195 308,-104 246,101l-6 21z"/>
  <path class="fil1" d="M755 907l70 -42c-47,-112 -203,-391 14,-389 48,0 135,20 193,41 10,-21 24,-55 29,-76 -67,-27 -163,-51 -221,-49 -312,14 -162,344 -85,515z"/>
 </g>
 <g id="Layer_x0020_3" visibility="hidden">
  <metadata id="CorelCorpID_3Corel-Layer"/>
  <path class="fil1" d="M756 907l70 -42 -92 -237c-31,-80 -3,-153 106,-152 48,0 135,20 192,41 11,-21 25,-55 29,-76 -66,-27 -162,-51 -220,-49 -186,9 -226,135 -178,262l93 253z"/>
  <path class="fil0" d="M1057 457l-70 -22 8 -19c42,-92 -63,-144 -106,-62l-33 60 -71 11 32 -90c70,-195 308,-104 246,101l-6 21z"/>
 </g>
 <g id="Layer_x0020_4">
  <metadata id="CorelCorpID_4Corel-Layer"/>
  <path class="fil1" d="M1059 438c2,-13 2,-26 -2,-38 -13,-44 -51,-103 -81,-105 -31,-3 -47,34 -61,57l-25 42c54,7 119,24 169,44zm-303 469l-93 -253c-41,-109 -18,-218 108,-252 20,-10 37,-27 51,-52l47 -79c42,-70 80,-76 118,-76 102,0 178,164 150,256 -16,50 -50,83 -105,66 -57,-21 -144,-41 -192,-41 -109,-1 -137,72 -106,152l92 237 -70 42z"/>
 </g>
</svg>
