<?xml version="1.0" encoding="UTF-8"?>
<!DOCTYPE svg PUBLIC "-//W3C//DTD SVG 1.0//EN" "http://www.w3.org/TR/2001/REC-SVG-20010904/DTD/svg10.dtd">
<!-- Creator: CorelDRAW -->
<svg xmlns="http://www.w3.org/2000/svg" xml:space="preserve" width="1300px" height="1300px" version="1.0" style="shape-rendering:geometricPrecision; text-rendering:geometricPrecision; image-rendering:optimizeQuality; fill-rule:evenodd; clip-rule:evenodd"
viewBox="0 0 1300 1056"
 xmlns:xlink="http://www.w3.org/1999/xlink">
 <defs>
  <style type="text/css">
   <![CDATA[
    .fil0 {fill:black}
   ]]>
  </style>
 </defs>
 <g id="_100:master">
  <metadata id="CorelCorpID_0Corel-Layer"/>
  <path class="fil0" d="M552 569l27 0c55,0 99,-22 131,-67l32 -44c12,-15 24,-30 40,-44 7,-6 14,-12 23,-17 18,-13 34,-17 56,-17 47,0 84,31 110,94 20,30 41,53 63,70 23,17 54,25 93,25l0 81c-64,0 -112,-15 -145,-46l0 0c-12,44 -40,66 -84,66 -61,0 -117,-26 -170,-78 -44,39 -93,58 -149,58l-29 0 0 0c-20,-1 -39,-20 -39,-41 0,-21 20,-40 41,-40l0 0zm346 20l0 0c-50,0 -91,-17 -123,-52 2,-2 7,-9 16,-21 9,-12 16,-21 21,-27 32,-35 67,-39 92,3 11,20 17,41 17,63 0,23 -7,34 -23,34z"/>
 </g>
</svg>
