<?xml version="1.0" encoding="UTF-8"?>
<!DOCTYPE svg PUBLIC "-//W3C//DTD SVG 1.0//EN" "http://www.w3.org/TR/2001/REC-SVG-20010904/DTD/svg10.dtd">
<!-- Creator: CorelDRAW -->
<svg xmlns="http://www.w3.org/2000/svg" xml:space="preserve" width="1300px" height="1300px" version="1.0" style="shape-rendering:geometricPrecision; text-rendering:geometricPrecision; image-rendering:optimizeQuality; fill-rule:evenodd; clip-rule:evenodd"
viewBox="0 0 1300 1056"
 xmlns:xlink="http://www.w3.org/1999/xlink">
 <defs>
  <style type="text/css">
   <![CDATA[
    .fil0 {fill:black;fill-opacity:0.501961}
    .fil2 {fill:#996633;fill-opacity:0.501961}
    .fil1 {fill:#FF9966;fill-opacity:0.501961}
   ]]>
  </style>
 </defs>
 <g id="_100:master" visibility="hidden">
  <metadata id="CorelCorpID_0Corel-Layer"/>
  <path class="fil0" d="M518 602c0,100 12,226 38,378l73 -11c-24,-159 -36,-282 -36,-370 0,-44 11,-73 34,-86 21,-12 55,-19 102,-20 80,0 143,11 189,34l24 11 31 -76c3,-10 4,-22 4,-36 0,-51 -16,-96 -49,-135 -32,-39 -72,-58 -120,-58 -36,0 -65,14 -87,44 -28,38 -39,89 -29,137 -45,5 -98,16 -130,48 -30,31 -44,78 -44,140l0 0zm257 -190c-8,-27 -9,-57 4,-80 6,-12 19,-17 36,-17 18,0 38,9 59,29 26,24 41,59 26,90 -46,-11 -81,-19 -125,-22l0 0z"/>
 </g>
 <g id="Layer_x0020_1" visibility="hidden">
  <metadata id="CorelCorpID_1Corel-Layer"/>
  <path class="fil0" d="M970 457c-5,21 -18,54 -29,75 -207,-75 -307,-44 -307,51 0,88 8,156 32,314l-72 27c-26,-152 -36,-239 -36,-339 0,-179 159,-231 412,-128z"/>
  <path class="fil0" d="M970 457l-70 -22 9 -19c41,-92 -86,-154 -120,-81l-35 77 -88 13 64 -131c79,-160 308,-63 246,142l-6 21z"/>
 </g>
 <g id="Layer_x0020_2" visibility="hidden">
  <metadata id="CorelCorpID_2Corel-Layer"/>
  <path class="fil0" d="M1057 457l-70 -22 8 -19c42,-92 -63,-144 -106,-62l-33 60 -71 11 32 -90c70,-195 308,-104 246,101l-6 21z"/>
  <path class="fil1" d="M755 907l70 -42c-47,-112 -203,-391 14,-389 48,0 135,20 193,41 10,-21 24,-55 29,-76 -67,-27 -163,-51 -221,-49 -312,14 -162,344 -85,515z"/>
 </g>
 <g id="Layer_x0020_3" visibility="hidden">
  <metadata id="CorelCorpID_3Corel-Layer"/>
  <path class="fil1" d="M756 907l70 -42 -92 -237c-31,-80 -3,-153 106,-152 48,0 135,20 192,41 11,-21 25,-55 29,-76 -66,-27 -162,-51 -220,-49 -186,9 -226,135 -178,262l93 253z"/>
  <path class="fil0" d="M1057 457l-70 -22 8 -19c42,-92 -63,-144 -106,-62l-33 60 -71 11 32 -90c70,-195 308,-104 246,101l-6 21z"/>
 </g>
 <g id="Layer_x0020_4" visibility="hidden">
  <metadata id="CorelCorpID_4Corel-Layer"/>
  <path class="fil0" d="M1009 563c3,-111 -75,-278 -131,-166l-51 101 -44 -64 50 -109c54,-119 249,-64 237,172l-61 66z"/>
  <path class="fil1" d="M816 552l196 11 -1 -81 -195 -11c-80,-4 -171,44 -162,179l21 327 79 -9 -20 -334c-3,-34 8,-86 82,-82z"/>
 </g>
 <g id="Layer_x0020_5" visibility="hidden">
  <metadata id="CorelCorpID_5Corel-Layer"/>
  <path class="fil1" d="M683 907l72 -13 -21 -266c-7,-85 -3,-129 106,-128 48,1 135,-4 192,17 32,-17 45,-53 28,-79 -67,-27 -161,-24 -219,-21 -186,8 -189,102 -178,237l20 253z"/>
  <path class="fil0" d="M1032 517c28,-25 30,-228 -88,-239 -62,-5 -84,89 -82,128 1,29 -62,41 -86,54 -11,-105 40,-282 170,-282 122,0 208,140 171,307 -12,52 -30,49 -85,32z"/>
 </g>
 <g id="Layer_x0020_6" visibility="hidden">
  <metadata id="CorelCorpID_6Corel-Layer"/>
  <path class="fil1" d="M812 569l146 0 2 -81 -148 0c-80,0 -173,34 -162,169l26 319 80 -9 -27 -336c-2,-34 9,-62 83,-62z"/>
  <path class="fil0" d="M817 488l-47 -43c34,-68 60,-177 122,-177 112,0 225,249 142,301l-120 0 -4 -81 65 0c25,0 -58,-112 -93,-118l-65 118z"/>
 </g>
 <g id="Layer_x0020_7" visibility="hidden">
  <metadata id="CorelCorpID_7Corel-Layer"/>
  <path class="fil0" d="M741 360c-96,87 -93,160 -59,186 42,33 105,-30 122,-74l75 31c-4,9 -9,18 -15,27 -51,84 -151,161 -241,86 -63,-52 -67,-180 59,-309 32,-32 36,11 59,53z"/>
  <path class="fil2" d="M801 322l31 54c42,72 53,114 47,127 -26,16 -82,24 -99,8 19,-24 20,-31 12,-44l-109 -175c15,-4 88,-23 118,30z"/>
  <path class="fil1" d="M773 364c0,-9 4,-91 -92,-72 -58,11 -123,29 -169,51 -81,38 -127,90 -116,175l43 365 70 -38 -39 -360c-3,-23 28,-47 72,-66 74,-34 185,-57 231,-55z"/>
 </g>
 <g id="Layer_x0020_8" visibility="hidden">
  <metadata id="CorelCorpID_8Corel-Layer"/>
  <path class="fil0" d="M818 464c53,60 65,43 41,106 -69,181 -192,158 -257,74 -45,-57 -64,-149 -25,-244l76 27c-29,52 -21,124 10,162 70,86 120,-18 136,-88 12,-54 8,-16 19,-37z"/>
  <path class="fil2" d="M662 343c84,-23 132,31 162,82l27 45c15,26 24,50 17,73 -16,54 -52,25 -73,-10l-34 -56c-17,-29 -46,-61 -87,-53l-12 -81z"/>
  <path class="fil1" d="M765 413c0,-9 4,-91 -92,-72 -58,11 -123,29 -170,51 -80,37 -126,90 -116,175l44 365 70 -38 -40 -360c-2,-24 29,-47 73,-67 74,-33 185,-57 231,-54z"/>
 </g>
 <g id="Layer_x0020_9">
  <metadata id="CorelCorpID_9Corel-Layer"/>
  <path class="fil0" d="M838 605c-19,42 -71,54 -99,38l-82 -43c-109,-59 -190,-4 -184,55l28 280 -70 37 -32 -284c-11,-99 42,-177 127,-196 18,-36 44,-74 60,-99 161,-259 384,-6 252,212l0 0zm-217 -116l45 23c10,5 20,10 29,15l72 38c77,-99 -11,-302 -106,-140 -14,23 -27,44 -40,64z"/>
 </g>
</svg>
