<?xml version="1.0" encoding="UTF-8"?>
<!DOCTYPE svg PUBLIC "-//W3C//DTD SVG 1.0//EN" "http://www.w3.org/TR/2001/REC-SVG-20010904/DTD/svg10.dtd">
<!-- Creator: CorelDRAW -->
<svg xmlns="http://www.w3.org/2000/svg" xml:space="preserve" width="1300px" height="1300px" version="1.0" style="shape-rendering:geometricPrecision; text-rendering:geometricPrecision; image-rendering:optimizeQuality; fill-rule:evenodd; clip-rule:evenodd"
viewBox="0 0 1300 1056"
 xmlns:xlink="http://www.w3.org/1999/xlink">
 <defs>
  <style type="text/css">
   <![CDATA[
    .fil0 {fill:black;fill-opacity:0.501961}
   ]]>
  </style>
 </defs>
 <g id="_100:master">
  <metadata id="CorelCorpID_0Corel-Layer"/>
  <g id="Regular-g.mim.fina.svg">
   <g>
    <path class="fil0" d="M755 718c-27,0 -52,-14 -75,-42 -23,-28 -34,-63 -34,-105 0,-43 11,-85 32,-126 -19,-2 -40,-3 -62,-3 -47,0 -81,7 -103,20 -22,13 -33,42 -33,86 0,88 12,211 36,369l-73 12c-25,-152 -38,-278 -38,-378 0,-63 14,-109 44,-140 33,-33 90,-50 170,-50 30,0 51,1 63,2l-20 -37 56 -42 122 207c30,52 65,78 105,78l31 0 0 81 -31 0c-21,0 -42,-5 -63,-15 -11,23 -28,42 -52,58 -24,16 -49,25 -75,25zm-44 -137c0,14 5,27 14,38 9,12 21,18 34,18 32,0 54,-15 67,-45 -15,-17 -32,-41 -49,-70 -18,-30 -29,-47 -32,-52 -23,37 -34,74 -34,111l0 0z"/>
   </g>
  </g>
 </g>
</svg>
