<?xml version="1.0" encoding="UTF-8"?>
<!DOCTYPE svg PUBLIC "-//W3C//DTD SVG 1.0//EN" "http://www.w3.org/TR/2001/REC-SVG-20010904/DTD/svg10.dtd">
<!-- Creator: CorelDRAW -->
<svg xmlns="http://www.w3.org/2000/svg" xml:space="preserve" width="1300px" height="1300px" version="1.0" style="shape-rendering:geometricPrecision; text-rendering:geometricPrecision; image-rendering:optimizeQuality; fill-rule:evenodd; clip-rule:evenodd"
viewBox="0 0 1300 1056"
 xmlns:xlink="http://www.w3.org/1999/xlink">
 <defs>
  <style type="text/css">
   <![CDATA[
    .fil0 {fill:black;fill-opacity:0.501961}
   ]]>
  </style>
 </defs>
 <g id="_100:master">
  <metadata id="CorelCorpID_0Corel-Layer"/>
  <path class="fil0" d="M539 650c-20,0 -41,-20 -40,-41 0,-20 19,-39 38,-40l0 0c1,0 2,0 2,0l0 0 27 0c55,0 99,-22 131,-67 2,-2 7,-9 15,-20l17 -24c4,-5 10,-12 18,-22 9,-10 16,-17 22,-22 7,-6 14,-12 23,-18 16,-11 34,-16 53,-16l3 0c34,0 64,18 89,55 26,38 38,77 38,118l0 0c0,78 -30,117 -90,117 -61,0 -117,-26 -169,-78 -44,38 -94,58 -150,58l-27 0 0 0zm347 -61l0 0c-50,0 -91,-18 -124,-53 2,-2 7,-8 16,-20 16,-23 40,-55 70,-55 17,0 31,10 43,30 12,20 17,42 17,64 0,23 -7,34 -22,34z"/>
 </g>
</svg>
