<?xml version="1.0" encoding="UTF-8"?>
<!DOCTYPE svg PUBLIC "-//W3C//DTD SVG 1.0//EN" "http://www.w3.org/TR/2001/REC-SVG-20010904/DTD/svg10.dtd">
<!-- Creator: CorelDRAW -->
<svg xmlns="http://www.w3.org/2000/svg" xml:space="preserve" width="1300px" height="1300px" version="1.0" style="shape-rendering:geometricPrecision; text-rendering:geometricPrecision; image-rendering:optimizeQuality; fill-rule:evenodd; clip-rule:evenodd"
viewBox="0 0 1300 1056"
 xmlns:xlink="http://www.w3.org/1999/xlink">
 <defs>
  <style type="text/css">
   <![CDATA[
    .fil0 {fill:black;fill-opacity:0.501961}
   ]]>
  </style>
 </defs>
 <g id="_100:master">
  <metadata id="CorelCorpID_0Corel-Layer"/>
  <g id="Regular-g.mim.isol.svg">
   <g>
    <path class="fil0" d="M518 602c0,100 12,226 38,378l73 -11c-24,-159 -36,-282 -36,-370 0,-44 11,-73 34,-86 21,-12 55,-19 102,-20 80,0 143,11 189,34l24 11 31 -76c3,-10 4,-22 4,-36 0,-51 -16,-96 -49,-135 -32,-39 -72,-58 -120,-58 -36,0 -65,14 -87,44 -22,29 -33,63 -33,103 0,11 1,23 4,34 -5,1 -10,1 -14,2 -21,2 -43,7 -65,15 -21,8 -39,19 -51,31 -30,31 -44,78 -44,140l0 0zm257 -190c-4,-13 -6,-25 -6,-36 0,-17 3,-32 10,-44 6,-12 19,-17 36,-17 18,0 38,9 59,29 21,19 32,41 32,65 0,9 -2,17 -6,25l-29 -7c-35,-8 -67,-13 -96,-15l0 0z"/>
   </g>
  </g>
 </g>
</svg>
