<?xml version="1.0" encoding="UTF-8"?>
<!DOCTYPE svg PUBLIC "-//W3C//DTD SVG 1.0//EN" "http://www.w3.org/TR/2001/REC-SVG-20010904/DTD/svg10.dtd">
<!-- Creator: CorelDRAW -->
<svg xmlns="http://www.w3.org/2000/svg" xml:space="preserve" width="1300px" height="1300px" version="1.0" style="shape-rendering:geometricPrecision; text-rendering:geometricPrecision; image-rendering:optimizeQuality; fill-rule:evenodd; clip-rule:evenodd"
viewBox="0 0 1300 1056"
 xmlns:xlink="http://www.w3.org/1999/xlink">
 <defs>
  <style type="text/css">
   <![CDATA[
    .fil0 {fill:black;fill-opacity:0.501961}
   ]]>
  </style>
 </defs>
 <g id="_100:master">
  <metadata id="CorelCorpID_0Corel-Layer"/>
  <path class="fil0" d="M544 647c-265,0 -21,-389 34,-476l-34 -29 48 -61c141,111 255,235 255,411 0,68 -28,155 -123,155 -38,0 -69,-13 -90,-42 -24,27 -49,42 -90,42zm180 -83c31,0 47,-24 47,-72 0,-105 -56,-190 -133,-267 -23,35 -225,339 -97,339 49,0 56,-54 61,-88l74 0c3,26 6,88 48,88z"/>
 </g>
</svg>
