<?xml version="1.0" encoding="UTF-8"?>
<!DOCTYPE svg PUBLIC "-//W3C//DTD SVG 1.0//EN" "http://www.w3.org/TR/2001/REC-SVG-20010904/DTD/svg10.dtd">
<!-- Creator: CorelDRAW -->
<svg xmlns="http://www.w3.org/2000/svg" xml:space="preserve" width="1300px" height="1300px" version="1.0" style="shape-rendering:geometricPrecision; text-rendering:geometricPrecision; image-rendering:optimizeQuality; fill-rule:evenodd; clip-rule:evenodd"
viewBox="0 0 1300 1056"
 xmlns:xlink="http://www.w3.org/1999/xlink">
 <defs>
  <style type="text/css">
   <![CDATA[
    .fil0 {fill:black;fill-opacity:0.501961}
   ]]>
  </style>
 </defs>
 <g id="_100:master">
  <metadata id="CorelCorpID_0Corel-Layer"/>
  <path class="fil0" d="M562 311c34,0 63,-6 88,-19 0,-77 -39,-131 -89,-131 -45,0 -62,50 -62,83 0,23 21,67 63,67zm92 65c-29,10 -62,15 -99,15 -88,0 -132,-71 -132,-150 0,-65 49,-161 135,-161 117,0 170,120 170,208 0,161 38,257 115,286l-34 72c-87,-38 -142,-146 -155,-270z"/>
 </g>
</svg>
