<?xml version="1.0" encoding="UTF-8"?>
<!DOCTYPE svg PUBLIC "-//W3C//DTD SVG 1.0//EN" "http://www.w3.org/TR/2001/REC-SVG-20010904/DTD/svg10.dtd">
<!-- Creator: CorelDRAW -->
<svg xmlns="http://www.w3.org/2000/svg" xml:space="preserve" width="1300px" height="1300px" version="1.0" style="shape-rendering:geometricPrecision; text-rendering:geometricPrecision; image-rendering:optimizeQuality; fill-rule:evenodd; clip-rule:evenodd"
viewBox="0 0 1300 1056"
 xmlns:xlink="http://www.w3.org/1999/xlink">
 <defs>
  <style type="text/css">
   <![CDATA[
    .fil0 {fill:black;fill-opacity:0.501961}
   ]]>
  </style>
 </defs>
 <g id="_100:master">
  <metadata id="CorelCorpID_0Corel-Layer"/>
  <path class="fil0" d="M544 647c-265,0 -21,-440 34,-537l-34 -33 48 -69c141,125 255,266 255,464 0,77 -28,175 -123,175 -38,0 -69,-15 -90,-48 -24,32 -49,48 -90,48zm180 -94c31,0 47,-27 47,-81 0,-119 -56,-215 -133,-302 -23,40 -225,383 -97,383 49,0 56,-61 61,-99l74 0c3,30 6,99 48,99z"/>
 </g>
</svg>
