<?xml version="1.0" encoding="UTF-8"?>
<!DOCTYPE svg PUBLIC "-//W3C//DTD SVG 1.0//EN" "http://www.w3.org/TR/2001/REC-SVG-20010904/DTD/svg10.dtd">
<!-- Creator: CorelDRAW -->
<svg xmlns="http://www.w3.org/2000/svg" xml:space="preserve" width="1300px" height="1300px" version="1.0" style="shape-rendering:geometricPrecision; text-rendering:geometricPrecision; image-rendering:optimizeQuality; fill-rule:evenodd; clip-rule:evenodd"
viewBox="0 0 1300 1056"
 xmlns:xlink="http://www.w3.org/1999/xlink">
 <defs>
  <style type="text/css">
   <![CDATA[
    .fil0 {fill:black;fill-opacity:0.501961}
   ]]>
  </style>
 </defs>
 <g id="_100:master">
  <metadata id="CorelCorpID_0Corel-Layer"/>
  <path class="fil0" d="M499 187c0,26 21,39 63,39 34,0 63,-7 88,-21 -7,-50 -39,-113 -89,-113 -45,0 -62,57 -62,95zm56 131c-88,0 -132,-45 -132,-135 0,-74 49,-183 135,-183 117,0 170,137 170,236 0,185 38,294 115,328l-34 82c-87,-43 -139,-158 -155,-345 -29,11 -62,17 -99,17z"/>
 </g>
</svg>
