<?xml version="1.0" encoding="UTF-8"?>
<!DOCTYPE svg PUBLIC "-//W3C//DTD SVG 1.0//EN" "http://www.w3.org/TR/2001/REC-SVG-20010904/DTD/svg10.dtd">
<!-- Creator: CorelDRAW -->
<svg xmlns="http://www.w3.org/2000/svg" xml:space="preserve" width="1300px" height="1300px" version="1.0" style="shape-rendering:geometricPrecision; text-rendering:geometricPrecision; image-rendering:optimizeQuality; fill-rule:evenodd; clip-rule:evenodd"
viewBox="0 0 1300 1056"
 xmlns:xlink="http://www.w3.org/1999/xlink">
 <defs>
  <style type="text/css">
   <![CDATA[
    .fil0 {fill:black;fill-opacity:0.501961}
   ]]>
  </style>
 </defs>
 <g id="_100:master">
  <metadata id="CorelCorpID_0Corel-Layer"/>
  <path class="fil0" d="M899 445c27,46 81,124 192,124l0 81c-63,0 -107,-11 -133,-34 0,9 1,17 1,26 0,150 -180,234 -341,235 -129,1 -246,-58 -243,-194 1,-59 37,-138 58,-181l66 27c-22,43 -45,108 -45,153 1,82 76,113 164,113 114,1 270,-81 260,-160 -5,-41 -29,-107 -74,-185l71 -51c9,16 17,32 24,46z"/>
 </g>
</svg>
