<?xml version="1.0" encoding="UTF-8"?>
<!DOCTYPE svg PUBLIC "-//W3C//DTD SVG 1.0//EN" "http://www.w3.org/TR/2001/REC-SVG-20010904/DTD/svg10.dtd">
<!-- Creator: CorelDRAW -->
<svg xmlns="http://www.w3.org/2000/svg" xml:space="preserve" width="1300px" height="1300px" version="1.0" style="shape-rendering:geometricPrecision; text-rendering:geometricPrecision; image-rendering:optimizeQuality; fill-rule:evenodd; clip-rule:evenodd"
viewBox="0 0 1300 1056"
 xmlns:xlink="http://www.w3.org/1999/xlink">
 <defs>
  <style type="text/css">
   <![CDATA[
    .fil0 {fill:black;fill-opacity:0.501961}
   ]]>
  </style>
 </defs>
 <g id="_100:master">
  <metadata id="CorelCorpID_0Corel-Layer"/>
  <path class="fil0" d="M750 108c34,0 51,-36 53,-109l76 0c0,134 -43,201 -129,201 -38,0 -68,-20 -90,-59 -16,40 -43,60 -79,60 -20,0 -37,-8 -50,-22 58,136 87,293 87,472l-76 0c0,-172 -54,-373 -161,-604l60 -52c43,81 84,122 124,122 38,0 58,-40 58,-119l75 0c6,74 23,111 52,110z"/>
 </g>
</svg>
