<?xml version="1.0" encoding="UTF-8"?>
<!DOCTYPE svg PUBLIC "-//W3C//DTD SVG 1.0//EN" "http://www.w3.org/TR/2001/REC-SVG-20010904/DTD/svg10.dtd">
<!-- Creator: CorelDRAW -->
<svg xmlns="http://www.w3.org/2000/svg" xml:space="preserve" width="1300px" height="1300px" version="1.0" style="shape-rendering:geometricPrecision; text-rendering:geometricPrecision; image-rendering:optimizeQuality; fill-rule:evenodd; clip-rule:evenodd"
viewBox="0 0 1300 1056"
 xmlns:xlink="http://www.w3.org/1999/xlink">
 <defs>
  <style type="text/css">
   <![CDATA[
    .fil0 {fill:black;fill-opacity:0.501961}
    .fil1 {fill:#990000;fill-opacity:0.501961}
   ]]>
  </style>
 </defs>
 <g id="_100:master" visibility="hidden">
  <metadata id="CorelCorpID_0Corel-Layer"/>
  <path class="fil0" d="M509 512c-199,428 385,281 391,150 2,-41 -34,-119 -88,-207l74 -43c63,100 92,183 89,238 -17,279 -787,389 -534,-172l68 34z"/>
 </g>
 <g id="Layer_x0020_1" visibility="hidden">
  <metadata id="CorelCorpID_1Corel-Layer"/>
  <path class="fil1" d="M502 540c-21,44 -39,113 -39,159 0,205 456,96 438,-40 -5,-40 -44,-115 -88,-192l70 -52c42,79 92,173 92,235 1,271 -590,353 -584,49 1,-59 33,-140 54,-183l57 24z"/>
 </g>
 <g id="Layer_x0020_2">
  <metadata id="CorelCorpID_2Corel-Layer"/>
  <path class="fil1" d="M515 496c-22,43 -45,109 -44,154 0,81 76,113 163,113 115,0 270,-81 260,-160 -5,-41 -29,-108 -73,-185l70 -51c57,105 84,171 84,242 0,151 -180,235 -341,235 -129,1 -246,-58 -243,-194 1,-58 37,-137 59,-180l65 26z"/>
 </g>
</svg>
