<?xml version="1.0" encoding="UTF-8"?>
<!DOCTYPE svg PUBLIC "-//W3C//DTD SVG 1.0//EN" "http://www.w3.org/TR/2001/REC-SVG-20010904/DTD/svg10.dtd">
<!-- Creator: CorelDRAW -->
<svg xmlns="http://www.w3.org/2000/svg" xml:space="preserve" width="1300px" height="1300px" version="1.0" style="shape-rendering:geometricPrecision; text-rendering:geometricPrecision; image-rendering:optimizeQuality; fill-rule:evenodd; clip-rule:evenodd"
viewBox="0 0 1300 1056"
 xmlns:xlink="http://www.w3.org/1999/xlink">
 <defs>
  <style type="text/css">
   <![CDATA[
    .fil0 {fill:black;fill-opacity:0.501961}
   ]]>
  </style>
 </defs>
 <g id="_100:master">
  <metadata id="CorelCorpID_0Corel-Layer"/>
  <path class="fil0" d="M795 22c-17,111 -26,203 -26,275l0 64c0,45 8,85 24,120 15,36 38,62 69,79l-40 90 -8 -5c-36,-20 -66,-56 -91,-109 -26,-52 -38,-111 -38,-175l0 -73c0,-50 3,-100 10,-150 -48,10 -96,15 -143,15 -48,0 -95,-23 -142,-70l-6 -6 57 -76 7 8c30,28 60,42 90,42 68,0 143,-13 225,-39l14 -5 -2 15z"/>
 </g>
</svg>
