<?xml version="1.0" encoding="UTF-8"?>
<!DOCTYPE svg PUBLIC "-//W3C//DTD SVG 1.0//EN" "http://www.w3.org/TR/2001/REC-SVG-20010904/DTD/svg10.dtd">
<!-- Creator: CorelDRAW -->
<svg xmlns="http://www.w3.org/2000/svg" xml:space="preserve" width="1300px" height="1300px" version="1.0" style="shape-rendering:geometricPrecision; text-rendering:geometricPrecision; image-rendering:optimizeQuality; fill-rule:evenodd; clip-rule:evenodd"
viewBox="0 0 1300 1056"
 xmlns:xlink="http://www.w3.org/1999/xlink">
 <defs>
  <style type="text/css">
   <![CDATA[
    .fil0 {fill:black;fill-opacity:0.501961}
    .fil1 {fill:#990000;fill-opacity:0.501961}
   ]]>
  </style>
 </defs>
 <g id="_100:master" visibility="hidden">
  <metadata id="CorelCorpID_0Corel-Layer"/>
  <path class="fil0" d="M629 584c0,20 50,23 69,23 27,0 43,-6 67,-17 0,-25 -9,-49 -27,-70 -18,-21 -39,-32 -64,-32 -35,0 -45,69 -45,96zm147 89c-36,8 -69,12 -99,12 -30,0 -59,-8 -87,-24 -54,-30 -47,-96 -29,-150 9,-26 24,-50 44,-72 20,-21 43,-32 69,-32 42,0 77,13 106,40 52,50 78,127 78,234l0 63c0,133 -124,202 -371,208 -149,0 -223,-58 -223,-174 0,-47 29,-119 86,-214l64 44c-46,79 -69,133 -69,161 0,67 40,101 121,101 207,0 310,-44 310,-131l0 -66z"/>
 </g>
 <g id="Layer_x0020_1">
  <metadata id="CorelCorpID_1Corel-Layer"/>
  <path class="fil1" d="M903 636c0,10 0,21 0,32m72 -2l1 0c1,-243 -65,-341 -160,-341 -76,0 -145,83 -148,211 0,92 81,115 146,114 32,-1 64,-7 89,-14m0 32c-4,154 -617,283 -380,-156l-51 -33c-331,550 494,489 503,187m-162 -97c-31,-1 -73,-12 -72,-47 18,-150 130,-172 156,34 -23,6 -56,13 -84,13z"/>
 </g>
</svg>
