<?xml version="1.0" encoding="UTF-8"?>
<!DOCTYPE svg PUBLIC "-//W3C//DTD SVG 1.0//EN" "http://www.w3.org/TR/2001/REC-SVG-20010904/DTD/svg10.dtd">
<!-- Creator: CorelDRAW -->
<svg xmlns="http://www.w3.org/2000/svg" xml:space="preserve" width="1300px" height="1300px" version="1.0" style="shape-rendering:geometricPrecision; text-rendering:geometricPrecision; image-rendering:optimizeQuality; fill-rule:evenodd; clip-rule:evenodd"
viewBox="0 0 1300 1056"
 xmlns:xlink="http://www.w3.org/1999/xlink">
 <defs>
  <style type="text/css">
   <![CDATA[
    .fil0 {fill:#FF6666;fill-opacity:0.501961}
   ]]>
  </style>
 </defs>
 <g id="_100:master">
  <metadata id="CorelCorpID_0Corel-Layer"/>
  <path class="fil0" d="M813 569l0 0 81 0c-31,-172 -134,-147 -136,-47 -2,35 23,46 55,47zm157 0l86 0 2 81 -83 0c0,5 1,11 1,16l-1 0c-9,302 -834,363 -503,-187l51 33c-237,439 375,310 379,156 0,-6 0,-12 0,-18l-96 0c-62,-1 -122,-25 -122,-114 0,-208 247,-287 286,33z"/>
 </g>
</svg>
