<?xml version="1.0" encoding="UTF-8"?>
<!DOCTYPE svg PUBLIC "-//W3C//DTD SVG 1.0//EN" "http://www.w3.org/TR/2001/REC-SVG-20010904/DTD/svg10.dtd">
<!-- Creator: CorelDRAW -->
<svg xmlns="http://www.w3.org/2000/svg" xml:space="preserve" width="1300px" height="1300px" version="1.0" style="shape-rendering:geometricPrecision; text-rendering:geometricPrecision; image-rendering:optimizeQuality; fill-rule:evenodd; clip-rule:evenodd"
viewBox="0 0 1300 1056"
 xmlns:xlink="http://www.w3.org/1999/xlink">
 <defs>
  <style type="text/css">
   <![CDATA[
    .fil0 {fill:#FF6666;fill-opacity:0.501961}
   ]]>
  </style>
 </defs>
 <g id="_100:master">
  <metadata id="CorelCorpID_0Corel-Layer"/>
  <path class="fil0" d="M813 569l0 0 85 0c-14,-117 -55,-162 -84,-162 -36,0 -73,55 -74,114 0,30 28,48 73,48zm158 0l85 0 2 81 -83 0 0 15c0,1 0,3 0,4 -14,300 -833,358 -503,-190l51 33c-236,438 373,311 379,157l0 0c0,-6 0,-13 0,-19l-88 0 0 1c-108,0 -147,-60 -147,-129 2,-107 70,-196 147,-198 67,-2 139,63 157,245z"/>
 </g>
</svg>
