<?xml version="1.0" encoding="UTF-8"?>
<!DOCTYPE svg PUBLIC "-//W3C//DTD SVG 1.0//EN" "http://www.w3.org/TR/2001/REC-SVG-20010904/DTD/svg10.dtd">
<!-- Creator: CorelDRAW -->
<svg xmlns="http://www.w3.org/2000/svg" xml:space="preserve" width="1300px" height="1300px" version="1.0" style="shape-rendering:geometricPrecision; text-rendering:geometricPrecision; image-rendering:optimizeQuality; fill-rule:evenodd; clip-rule:evenodd"
viewBox="0 0 1300 1056"
 xmlns:xlink="http://www.w3.org/1999/xlink">
 <defs>
  <style type="text/css">
   <![CDATA[
    .fil0 {fill:black;fill-opacity:0.501961}
   ]]>
  </style>
 </defs>
 <g id="_100:master">
  <metadata id="CorelCorpID_0Corel-Layer"/>
  <path class="fil0" d="M833 576c-36,8 -70,12 -99,12 -30,0 -59,-8 -87,-24 -54,-30 -47,-96 -29,-150 9,-26 24,-50 44,-72 20,-21 43,-32 69,-32 42,0 77,13 106,40 46,45 72,112 77,203 21,11 41,17 61,17l0 82c-22,0 -42,-2 -60,-8l0 3c0,133 -124,202 -372,208 -148,0 -222,-58 -222,-174 0,-47 29,-119 86,-214l63 43c-45,80 -68,134 -68,162 0,67 40,101 121,101 207,0 310,-44 310,-131l0 -66zm-147 -89c0,19 50,23 69,23 27,0 43,-7 67,-17 0,-25 -9,-49 -27,-70 -18,-22 -39,-32 -64,-32 -35,0 -45,69 -45,96z"/>
 </g>
</svg>
