<?xml version="1.0" encoding="UTF-8"?>
<!DOCTYPE svg PUBLIC "-//W3C//DTD SVG 1.0//EN" "http://www.w3.org/TR/2001/REC-SVG-20010904/DTD/svg10.dtd">
<!-- Creator: CorelDRAW -->
<svg xmlns="http://www.w3.org/2000/svg" xml:space="preserve" width="1300px" height="1300px" version="1.0" style="shape-rendering:geometricPrecision; text-rendering:geometricPrecision; image-rendering:optimizeQuality; fill-rule:evenodd; clip-rule:evenodd"
viewBox="0 0 1300 1056"
 xmlns:xlink="http://www.w3.org/1999/xlink">
 <defs>
  <style type="text/css">
   <![CDATA[
    .fil0 {fill:black;fill-opacity:0.501961}
    .fil1 {fill:#990000;fill-opacity:0.501961}
   ]]>
  </style>
 </defs>
 <g id="_100:master" visibility="hidden">
  <metadata id="CorelCorpID_0Corel-Layer"/>
  <path class="fil0" d="M629 584c0,20 50,23 69,23 27,0 43,-6 67,-17 0,-25 -9,-49 -27,-70 -18,-21 -39,-32 -64,-32 -35,0 -45,69 -45,96zm147 89c-36,8 -69,12 -99,12 -30,0 -59,-8 -87,-24 -54,-30 -47,-96 -29,-150 9,-26 24,-50 44,-72 20,-21 43,-32 69,-32 42,0 77,13 106,40 52,50 78,127 78,234l0 63c0,133 -124,202 -371,208 -149,0 -223,-58 -223,-174 0,-47 29,-119 86,-214l64 44c-46,79 -69,133 -69,161 0,67 40,101 121,101 207,0 310,-44 310,-131l0 -66z"/>
 </g>
 <g id="Layer_x0020_1">
  <metadata id="CorelCorpID_1Corel-Layer"/>
  <path class="fil1" d="M814 409c-36,0 -73,54 -74,113 0,30 29,49 73,49 28,1 60,-7 83,-13 -15,-107 -54,-149 -82,-149zm161 260c-14,300 -833,358 -503,-190l51 33c-235,436 369,312 379,159l0 0c0,-11 0,-22 0,-32 -24,6 -56,13 -88,13 -108,1 -147,-60 -147,-129 2,-106 70,-195 147,-197 77,-3 162,85 161,339 0,1 0,3 0,4z"/>
 </g>
</svg>
