<?xml version="1.0" encoding="UTF-8"?>
<!DOCTYPE svg PUBLIC "-//W3C//DTD SVG 1.0//EN" "http://www.w3.org/TR/2001/REC-SVG-20010904/DTD/svg10.dtd">
<!-- Creator: CorelDRAW -->
<svg xmlns="http://www.w3.org/2000/svg" xml:space="preserve" width="1300px" height="1300px" version="1.0" style="shape-rendering:geometricPrecision; text-rendering:geometricPrecision; image-rendering:optimizeQuality; fill-rule:evenodd; clip-rule:evenodd"
viewBox="0 0 1300 1056"
 xmlns:xlink="http://www.w3.org/1999/xlink">
 <defs>
  <style type="text/css">
   <![CDATA[
    .fil0 {fill:#FF6666;fill-opacity:0.501961}
   ]]>
  </style>
 </defs>
 <g id="_100:master">
  <metadata id="CorelCorpID_0Corel-Layer"/>
  <path class="fil0" d="M806 650l0 0c-63,-1 -138,-26 -138,-114 3,-128 72,-211 149,-211 80,0 140,71 155,244l84 0 2 81 -82 0 0 16 -1 0c-9,302 -834,363 -503,-187l51 33c-237,439 376,310 380,156 0,-6 0,-12 0,-18l-97 0zm7 -81l86 0c-24,-220 -139,-200 -158,-47 -1,35 40,46 72,47z"/>
 </g>
</svg>
