<?xml version="1.0" encoding="UTF-8"?>
<!DOCTYPE svg PUBLIC "-//W3C//DTD SVG 1.0//EN" "http://www.w3.org/TR/2001/REC-SVG-20010904/DTD/svg10.dtd">
<!-- Creator: CorelDRAW -->
<svg xmlns="http://www.w3.org/2000/svg" xml:space="preserve" width="1300px" height="1300px" version="1.0" style="shape-rendering:geometricPrecision; text-rendering:geometricPrecision; image-rendering:optimizeQuality; fill-rule:evenodd; clip-rule:evenodd"
viewBox="0 0 1300 1056"
 xmlns:xlink="http://www.w3.org/1999/xlink">
 <defs>
  <style type="text/css">
   <![CDATA[
    .fil0 {fill:black;fill-opacity:0.501961}
   ]]>
  </style>
 </defs>
 <g id="_100:master">
  <metadata id="CorelCorpID_0Corel-Layer"/>
  <g id="Regular-g.ree.isol.svg">
   <g>
    <path class="fil0" d="M912 392c15,22 30,53 43,93 13,39 19,76 19,110 0,36 -7,70 -21,104 -15,34 -33,64 -53,88 -40,49 -78,85 -113,108l-22 14 -48 -65c14,-9 33,-24 56,-45 24,-21 43,-41 59,-60 15,-18 29,-41 42,-67 13,-27 19,-52 19,-75 0,-24 -4,-49 -12,-75 -9,-26 -17,-46 -25,-60l-13 -21 69 -49z"/>
   </g>
  </g>
 </g>
</svg>
