<?xml version="1.0" encoding="UTF-8"?>
<!DOCTYPE svg PUBLIC "-//W3C//DTD SVG 1.0//EN" "http://www.w3.org/TR/2001/REC-SVG-20010904/DTD/svg10.dtd">
<!-- Creator: CorelDRAW -->
<svg xmlns="http://www.w3.org/2000/svg" xml:space="preserve" width="1300px" height="1300px" version="1.0" style="shape-rendering:geometricPrecision; text-rendering:geometricPrecision; image-rendering:optimizeQuality; fill-rule:evenodd; clip-rule:evenodd"
viewBox="0 0 1300 1056"
 xmlns:xlink="http://www.w3.org/1999/xlink">
 <defs>
  <style type="text/css">
   <![CDATA[
    .fil0 {fill:black;fill-opacity:0.501961}
   ]]>
  </style>
 </defs>
 <g id="_100:master">
  <metadata id="CorelCorpID_0Corel-Layer"/>
  <path class="fil0" d="M202 569l0 0 2 0 84 0c34,0 71,-34 71,-67l0 -67 85 0 0 70c0,36 21,64 58,64 88,-90 212,-260 326,-260 158,0 185,164 101,254 33,7 76,6 112,6l0 81 -52 0c-58,0 -110,-10 -156,-28 -45,18 -105,28 -178,28l-142 0c-44,0 -90,-18 -115,-54 -24,36 -61,54 -110,54l-84 0 -2 0 0 0c-20,-2 -39,-20 -39,-41 1,-20 19,-39 39,-40zm453 0l-67 0c41,-52 158,-179 226,-179 142,0 102,179 -159,179z"/>
 </g>
</svg>
