<?xml version="1.0" encoding="UTF-8"?>
<!DOCTYPE svg PUBLIC "-//W3C//DTD SVG 1.0//EN" "http://www.w3.org/TR/2001/REC-SVG-20010904/DTD/svg10.dtd">
<!-- Creator: CorelDRAW -->
<svg xmlns="http://www.w3.org/2000/svg" xml:space="preserve" width="1300px" height="1300px" version="1.0" style="shape-rendering:geometricPrecision; text-rendering:geometricPrecision; image-rendering:optimizeQuality; fill-rule:evenodd; clip-rule:evenodd"
viewBox="0 0 1300 1056"
 xmlns:xlink="http://www.w3.org/1999/xlink">
 <defs>
  <style type="text/css">
   <![CDATA[
    .fil0 {fill:black;fill-opacity:0.501961}
    .fil1 {fill:#99CCCC}
   ]]>
  </style>
 </defs>
 <g id="_100:master" visibility="hidden">
  <metadata id="CorelCorpID_0Corel-Layer"/>
  <path class="fil0" d="M735 569c247,0 162,-179 81,-179 -57,0 -127,58 -225,179l144 0zm-194 81l-37 -81c71,-89 175,-243 289,-266 214,-43 274,347 -12,347l-240 0z"/>
  <path class="fil1" d="M185 650l0 -81c-20,0 -40,19 -41,40 0,21 21,41 41,41z"/>
  <path class="fil0" d="M411 604l0 1c30,30 77,45 140,45l12 0 0 -81 -12 0c-46,0 -104,-14 -104,-69l0 -111c-24,0 -49,0 -73,0l0 111c0,55 -58,69 -104,69l-85 0 0 81 85 0c64,0 110,-15 140,-45l1 -1z"/>
 </g>
 <g id="Layer_x0020_1">
  <metadata id="CorelCorpID_1Corel-Layer"/>
  <path class="fil1" d="M702 569c42,-66 83,-119 123,-153 101,-85 215,-36 215,95 1,30 -57,58 -130,58l-208 0zm-338 81c-21,0 -41,-20 -41,-41 0,-21 20,-40 41,-40l0 0 28 0c46,0 104,-14 104,-69l0 -86 73 0 0 86c0,32 20,50 45,60 57,-87 109,-159 165,-209 133,-118 343,-60 341,153l0 0c1,82 -76,146 -211,146l-243 0 0 0c-60,-1 -104,-16 -133,-45l-1 -1 0 1c-30,30 -76,45 -140,45l-28 0 0 0z"/>
 </g>
</svg>
