<?xml version="1.0" encoding="UTF-8"?>
<!DOCTYPE svg PUBLIC "-//W3C//DTD SVG 1.0//EN" "http://www.w3.org/TR/2001/REC-SVG-20010904/DTD/svg10.dtd">
<!-- Creator: CorelDRAW -->
<svg xmlns="http://www.w3.org/2000/svg" xml:space="preserve" width="1300px" height="1300px" version="1.0" style="shape-rendering:geometricPrecision; text-rendering:geometricPrecision; image-rendering:optimizeQuality; fill-rule:evenodd; clip-rule:evenodd"
viewBox="0 0 1300 1056"
 xmlns:xlink="http://www.w3.org/1999/xlink">
 <defs>
  <style type="text/css">
   <![CDATA[
    .fil0 {fill:black;fill-opacity:0.501961}
   ]]>
  </style>
 </defs>
 <g id="_100:master">
  <metadata id="CorelCorpID_0Corel-Layer"/>
  <path class="fil0" d="M952 564c34,6 85,5 121,5l0 81c-67,0 -122,0 -180,-27 -30,17 -69,27 -117,27l-213 0 -6 0 -6 0c-63,0 -110,-15 -140,-45l0 -1 -1 1c-30,30 -76,45 -140,45l-28 0 0 0c-20,0 -41,-20 -41,-41 0,-21 21,-40 41,-40l0 0 28 0c46,0 104,-14 104,-69l0 -86 73 0 0 86c0,25 12,41 30,52 51,-62 210,-239 320,-254 108,-16 202,87 177,206l0 0c-4,22 -11,42 -22,60zm-395 5c-4,0 -8,0 -12,0 73,-81 219,-222 313,-158 35,24 56,72 43,110l0 0c-17,15 -69,48 -149,48l-195 0 0 0z"/>
 </g>
</svg>
