<?xml version="1.0" encoding="UTF-8"?>
<!DOCTYPE svg PUBLIC "-//W3C//DTD SVG 1.0//EN" "http://www.w3.org/TR/2001/REC-SVG-20010904/DTD/svg10.dtd">
<!-- Creator: CorelDRAW -->
<svg xmlns="http://www.w3.org/2000/svg" xml:space="preserve" width="1300px" height="1300px" version="1.0" style="shape-rendering:geometricPrecision; text-rendering:geometricPrecision; image-rendering:optimizeQuality; fill-rule:evenodd; clip-rule:evenodd"
viewBox="0 0 1300 1056"
 xmlns:xlink="http://www.w3.org/1999/xlink">
 <defs>
  <style type="text/css">
   <![CDATA[
    .fil0 {fill:black;fill-opacity:0.501961}
   ]]>
  </style>
 </defs>
 <g id="_100:master">
  <metadata id="CorelCorpID_0Corel-Layer"/>
  <path class="fil0" d="M1104 565c34,5 81,4 115,4l0 81c-67,0 -122,0 -179,-27 -34,17 -78,27 -131,27l-243 0 0 0c-60,-1 -104,-16 -133,-45l-1 -1 0 1c-30,30 -76,45 -140,45l-28 0 0 0c-21,0 -41,-20 -41,-41 0,-21 20,-40 41,-40l0 0 28 0c46,0 104,-14 104,-69l0 -86 73 0 0 86c0,32 20,50 45,60 57,-87 109,-159 165,-209 133,-118 343,-60 341,153l0 0c0,22 -5,43 -16,61zm-402 4l208 0c73,0 131,-28 130,-58 0,-131 -114,-180 -215,-95 -40,34 -81,87 -123,153z"/>
 </g>
</svg>
