<?xml version="1.0" encoding="UTF-8"?>
<!DOCTYPE svg PUBLIC "-//W3C//DTD SVG 1.0//EN" "http://www.w3.org/TR/2001/REC-SVG-20010904/DTD/svg10.dtd">
<!-- Creator: CorelDRAW -->
<svg xmlns="http://www.w3.org/2000/svg" xml:space="preserve" width="1300px" height="1300px" version="1.0" style="shape-rendering:geometricPrecision; text-rendering:geometricPrecision; image-rendering:optimizeQuality; fill-rule:evenodd; clip-rule:evenodd"
viewBox="0 0 1300 1056"
 xmlns:xlink="http://www.w3.org/1999/xlink">
 <defs>
  <style type="text/css">
   <![CDATA[
    .fil0 {fill:black;fill-opacity:0.501961}
    .fil1 {fill:#99CCCC}
   ]]>
  </style>
 </defs>
 <g id="_100:master" visibility="hidden">
  <metadata id="CorelCorpID_0Corel-Layer"/>
  <path class="fil0" d="M735 569c247,0 162,-179 81,-179 -57,0 -127,58 -225,179l144 0zm-194 81l-37 -81c71,-89 175,-243 289,-266 214,-43 274,347 -12,347l-240 0z"/>
  <path class="fil1" d="M185 650l0 -81c-20,0 -40,19 -41,40 0,21 21,41 41,41z"/>
  <path class="fil0" d="M411 604l0 1c30,30 77,45 140,45l12 0 0 -81 -12 0c-46,0 -104,-14 -104,-69l0 -111c-24,0 -49,0 -73,0l0 111c0,55 -58,69 -104,69l-85 0 0 81 85 0c64,0 110,-15 140,-45l1 -1z"/>
 </g>
 <g id="Layer_x0020_1">
  <metadata id="CorelCorpID_1Corel-Layer"/>
  <path class="fil1" d="M557 569l0 0 195 0c80,0 132,-33 149,-48l0 0c13,-38 -8,-86 -43,-110 -94,-64 -240,77 -313,158 4,0 8,0 12,0zm-315 81c-20,0 -41,-20 -41,-41 0,-21 21,-40 41,-40l0 0 28 0c46,0 104,-14 104,-69l0 -86 73 0 0 86c0,25 12,41 30,52 51,-62 210,-239 320,-254 108,-16 202,87 177,206l0 0c-15,83 -77,146 -198,146l-213 0 -6 0 -6 0c-63,0 -110,-15 -140,-45l0 -1 -1 1c-30,30 -76,45 -140,45l-28 0 0 0z"/>
 </g>
</svg>
