<?xml version="1.0" encoding="UTF-8"?>
<!DOCTYPE svg PUBLIC "-//W3C//DTD SVG 1.0//EN" "http://www.w3.org/TR/2001/REC-SVG-20010904/DTD/svg10.dtd">
<!-- Creator: CorelDRAW -->
<svg xmlns="http://www.w3.org/2000/svg" xml:space="preserve" width="1300px" height="1300px" version="1.0" style="shape-rendering:geometricPrecision; text-rendering:geometricPrecision; image-rendering:optimizeQuality; fill-rule:evenodd; clip-rule:evenodd"
viewBox="0 0 1300 1056"
 xmlns:xlink="http://www.w3.org/1999/xlink">
 <defs>
  <style type="text/css">
   <![CDATA[
    .fil0 {fill:black;fill-opacity:0.501961}
   ]]>
  </style>
 </defs>
 <g id="_100:master">
  <metadata id="CorelCorpID_0Corel-Layer"/>
  <path class="fil0" d="M1031 521l0 0c13,-38 -9,-86 -43,-110 -94,-64 -238,76 -312,156 7,1 15,2 23,2l182 0c81,0 133,-33 150,-48zm51 43c34,6 85,5 121,5l0 81c-67,0 -122,0 -180,-27 -31,17 -69,27 -118,27l-218 0 0 0c-45,-2 -80,-10 -104,-24 1,8 2,16 2,24 21,316 -840,389 -503,-171l52 33c-242,447 398,305 378,147 -5,-40 -36,-104 -89,-192l70 -52c6,10 11,19 16,27 25,37 52,81 101,106 54,-65 209,-235 316,-250 109,-16 203,87 178,206l0 0c-4,22 -11,42 -22,60z"/>
 </g>
</svg>
