<?xml version="1.0" encoding="UTF-8"?>
<!DOCTYPE svg PUBLIC "-//W3C//DTD SVG 1.0//EN" "http://www.w3.org/TR/2001/REC-SVG-20010904/DTD/svg10.dtd">
<!-- Creator: CorelDRAW -->
<svg xmlns="http://www.w3.org/2000/svg" xml:space="preserve" width="1300px" height="1300px" version="1.0" style="shape-rendering:geometricPrecision; text-rendering:geometricPrecision; image-rendering:optimizeQuality; fill-rule:evenodd; clip-rule:evenodd"
viewBox="0 0 1300 1056"
 xmlns:xlink="http://www.w3.org/1999/xlink">
 <defs>
  <style type="text/css">
   <![CDATA[
    .fil0 {fill:black;fill-opacity:0.501961}
   ]]>
  </style>
 </defs>
 <g id="_100:master">
  <metadata id="CorelCorpID_0Corel-Layer"/>
  <path class="fil0" d="M917 568c45,0 87,-5 125,-15 74,-20 111,-51 111,-94 0,-19 -7,-36 -19,-50 -13,-15 -30,-22 -52,-22 -32,0 -71,19 -115,58 -45,39 -84,80 -119,123l69 0zm-312 -40l-22 -43 65 -37 22 43c28,52 58,77 91,77 72,-95 131,-161 175,-198 20,-16 44,-31 71,-45 27,-13 52,-20 75,-20 50,0 87,14 113,40 27,27 40,62 40,105 0,44 -16,81 -46,113 34,7 72,5 110,5l0 81 -47 0c-59,0 -112,-9 -159,-28 -45,19 -104,28 -176,28l-122 0c-34,0 -57,-4 -69,-14l0 15c0,74 -57,127 -122,155 -75,32 -159,49 -254,49 -140,0 -209,-63 -209,-188 0,-52 24,-116 73,-193l62 34c-35,58 -53,113 -53,164 0,67 43,101 130,101 82,0 151,-11 207,-32 55,-22 83,-52 83,-91 0,-31 -12,-72 -38,-121l0 0z"/>
 </g>
</svg>
