<?xml version="1.0" encoding="UTF-8"?>
<!DOCTYPE svg PUBLIC "-//W3C//DTD SVG 1.0//EN" "http://www.w3.org/TR/2001/REC-SVG-20010904/DTD/svg10.dtd">
<!-- Creator: CorelDRAW -->
<svg xmlns="http://www.w3.org/2000/svg" xml:space="preserve" width="1300px" height="1300px" version="1.0" style="shape-rendering:geometricPrecision; text-rendering:geometricPrecision; image-rendering:optimizeQuality; fill-rule:evenodd; clip-rule:evenodd"
viewBox="0 0 1300 1056"
 xmlns:xlink="http://www.w3.org/1999/xlink">
 <defs>
  <style type="text/css">
   <![CDATA[
    .fil0 {fill:black;fill-opacity:0.501961}
   ]]>
  </style>
 </defs>
 <g id="_100:master">
  <metadata id="CorelCorpID_0Corel-Layer"/>
  <path class="fil0" d="M702 569c42,-66 83,-119 123,-153 101,-85 215,-36 215,95 1,30 -57,58 -130,58l-208 0zm-125 -38c8,14 22,23 37,29 57,-87 109,-159 165,-209 133,-118 343,-60 341,153l0 0c0,22 -5,43 -16,61 34,5 81,4 115,4l0 81c-67,0 -122,0 -179,-27 -34,17 -78,27 -131,27l-243 0 0 0c-20,0 -39,-2 -56,-6 1,2 1,4 1,6 1,271 -591,353 -585,49 1,-59 33,-140 54,-183l75 30c-22,44 -49,107 -49,153 0,205 441,88 424,-48 -6,-40 -38,-107 -82,-184l71 -52c19,37 41,77 58,116l0 0z"/>
 </g>
</svg>
