<?xml version="1.0" encoding="UTF-8"?>
<!DOCTYPE svg PUBLIC "-//W3C//DTD SVG 1.0//EN" "http://www.w3.org/TR/2001/REC-SVG-20010904/DTD/svg10.dtd">
<!-- Creator: CorelDRAW -->
<svg xmlns="http://www.w3.org/2000/svg" xml:space="preserve" width="1300px" height="1300px" version="1.0" style="shape-rendering:geometricPrecision; text-rendering:geometricPrecision; image-rendering:optimizeQuality; fill-rule:evenodd; clip-rule:evenodd"
viewBox="0 0 1300 1056"
 xmlns:xlink="http://www.w3.org/1999/xlink">
 <defs>
  <style type="text/css">
   <![CDATA[
    .fil0 {fill:black;fill-opacity:0.501961}
   ]]>
  </style>
 </defs>
 <g id="_100:master">
  <metadata id="CorelCorpID_0Corel-Layer"/>
  <path class="fil0" d="M341 508c-36,57 -54,110 -54,157 0,71 44,107 130,107 107,0 188,-17 244,-51 31,-20 47,-44 47,-74 0,-48 -31,-106 -60,-162l65 -37 22 40c28,54 59,81 90,81 4,-6 15,-20 32,-42 18,-23 39,-49 64,-77 84,-97 161,-145 232,-145 89,0 146,56 146,146 0,46 -17,83 -49,114 -61,56 -151,85 -269,85l-129 0c-27,0 -48,-5 -61,-15l0 13c0,45 -19,84 -55,116 -70,60 -175,90 -317,90 -142,0 -213,-63 -213,-188 0,-51 24,-115 73,-192l62 34zm640 61c53,0 99,-7 136,-19 53,-18 100,-41 100,-92 0,-41 -29,-71 -69,-71 -33,0 -71,19 -115,56 -45,37 -84,79 -119,126l67 0z"/>
 </g>
</svg>
