<?xml version="1.0" encoding="UTF-8"?>
<!DOCTYPE svg PUBLIC "-//W3C//DTD SVG 1.0//EN" "http://www.w3.org/TR/2001/REC-SVG-20010904/DTD/svg10.dtd">
<!-- Creator: CorelDRAW -->
<svg xmlns="http://www.w3.org/2000/svg" xml:space="preserve" width="1300px" height="1300px" version="1.0" style="shape-rendering:geometricPrecision; text-rendering:geometricPrecision; image-rendering:optimizeQuality; fill-rule:evenodd; clip-rule:evenodd"
viewBox="0 0 1300 1056"
 xmlns:xlink="http://www.w3.org/1999/xlink">
 <defs>
  <style type="text/css">
   <![CDATA[
    .fil0 {fill:black;fill-opacity:0.501961}
   ]]>
  </style>
 </defs>
 <g id="_100:master">
  <metadata id="CorelCorpID_0Corel-Layer"/>
  <path class="fil0" d="M720 328c8,-7 17,-10 27,-10 25,0 43,12 54,36 4,7 5,17 5,29 0,12 -5,24 -16,34 -12,11 -26,16 -43,16 -30,0 -51,-16 -65,-47 -5,-13 -8,-27 -8,-41 0,-59 35,-111 103,-156l35 20c-34,20 -58,38 -72,55 -14,17 -21,34 -22,52 0,1 1,3 1,7 1,3 1,5 1,5l0 0zm27 207c16,0 30,6 41,16 12,11 17,25 17,40 0,16 -5,30 -16,41 -11,11 -24,17 -39,17l-3 0c-16,0 -30,-6 -40,-16 -11,-11 -16,-24 -16,-41 0,-16 5,-30 16,-41 11,-10 25,-16 40,-16l0 0z"/>
 </g>
</svg>
