<?xml version="1.0" encoding="UTF-8"?>
<!DOCTYPE svg PUBLIC "-//W3C//DTD SVG 1.0//EN" "http://www.w3.org/TR/2001/REC-SVG-20010904/DTD/svg10.dtd">
<!-- Creator: CorelDRAW -->
<svg xmlns="http://www.w3.org/2000/svg" xml:space="preserve" width="1300px" height="1300px" version="1.0" style="shape-rendering:geometricPrecision; text-rendering:geometricPrecision; image-rendering:optimizeQuality; fill-rule:evenodd; clip-rule:evenodd"
viewBox="0 0 1300 1056"
 xmlns:xlink="http://www.w3.org/1999/xlink">
 <defs>
  <style type="text/css">
   <![CDATA[
    .fil0 {fill:black}
   ]]>
  </style>
 </defs>
 <g id="_100:master">
  <metadata id="CorelCorpID_0Corel-Layer"/>
  <path class="fil0" d="M724 558c10,10 16,23 16,38 0,14 -5,27 -15,38 -10,11 -22,16 -35,16l-4 0c-16,0 -29,-5 -38,-15 -10,-10 -15,-23 -15,-38 0,-16 5,-29 15,-39 11,-10 23,-15 38,-15 15,0 28,5 38,15l0 0zm35 -464c-67,-23 -180,-9 -179,46 2,67 161,132 161,222 0,49 -5,71 -32,110l-66 -12c19,-35 29,-65 29,-92 0,-62 -160,-99 -160,-225 0,-79 73,-143 149,-143 37,0 76,7 118,21l-20 73z"/>
 </g>
</svg>
