<?xml version="1.0" encoding="UTF-8"?>
<!DOCTYPE svg PUBLIC "-//W3C//DTD SVG 1.0//EN" "http://www.w3.org/TR/2001/REC-SVG-20010904/DTD/svg10.dtd">
<!-- Creator: CorelDRAW -->
<svg xmlns="http://www.w3.org/2000/svg" xml:space="preserve" width="1300px" height="1300px" version="1.0" style="shape-rendering:geometricPrecision; text-rendering:geometricPrecision; image-rendering:optimizeQuality; fill-rule:evenodd; clip-rule:evenodd"
viewBox="0 0 1300 1056"
 xmlns:xlink="http://www.w3.org/1999/xlink">
 <defs>
  <style type="text/css">
   <![CDATA[
    .fil0 {fill:#9900CC;fill-opacity:0.501961}
   ]]>
  </style>
 </defs>
 <g id="_100:master">
  <metadata id="CorelCorpID_0Corel-Layer"/>
  <path class="fil0" d="M812 569c40,0 89,-20 89,-63 0,-40 -18,-99 -44,-170l75 -31c28,79 43,146 43,199 0,101 -65,146 -163,146 -52,0 -106,-20 -133,-44 -26,27 -66,44 -129,44 -50,0 -101,-18 -130,-41 -33,33 -81,41 -126,41l-83 0 0 0 -2 0 0 0c-20,-1 -39,-20 -39,-41 0,-21 20,-40 41,-40l0 0 84 0c66,0 88,-29 99,-74l25 -104 71 17 -31 130c18,14 50,31 91,31l0 0c67,0 89,-29 100,-74l25 -104 71 17 -30 125c16,15 51,36 96,36z"/>
 </g>
</svg>
