<?xml version="1.0" encoding="UTF-8"?>
<!DOCTYPE svg PUBLIC "-//W3C//DTD SVG 1.0//EN" "http://www.w3.org/TR/2001/REC-SVG-20010904/DTD/svg10.dtd">
<!-- Creator: CorelDRAW -->
<svg xmlns="http://www.w3.org/2000/svg" xml:space="preserve" width="1300px" height="1300px" version="1.0" style="shape-rendering:geometricPrecision; text-rendering:geometricPrecision; image-rendering:optimizeQuality; fill-rule:evenodd; clip-rule:evenodd"
viewBox="0 0 1300 1056"
 xmlns:xlink="http://www.w3.org/1999/xlink">
 <defs>
  <style type="text/css">
   <![CDATA[
    .fil0 {fill:#9900CC;fill-opacity:0.501961}
   ]]>
  </style>
 </defs>
 <g id="_100:master">
  <metadata id="CorelCorpID_0Corel-Layer"/>
  <path class="fil0" d="M942 569c52,0 81,-21 81,-65 1,-21 -7,-84 -30,-144l74 -32c29,80 38,123 38,176 0,101 -65,146 -163,146 -55,0 -111,-22 -137,-48 -29,29 -65,44 -103,47l0 1 -7 0c-18,1 -35,-1 -52,-4 -24,-4 -44,-11 -60,-20 2,9 2,17 2,24 2,271 -590,353 -584,49 1,-59 33,-140 54,-183l74 30c-21,44 -48,107 -48,153 -1,205 441,88 423,-48 -5,-40 -37,-107 -81,-184l70 -52c6,10 11,20 16,30l-1 -3c11,18 26,42 47,64 27,26 61,47 94,56 13,4 28,6 44,7 40,-1 74,-23 86,-74l20 -83 72 18 -21 86c-1,6 -3,11 -5,17 17,15 51,36 97,36z"/>
 </g>
</svg>
