<?xml version="1.0" encoding="UTF-8"?>
<!DOCTYPE svg PUBLIC "-//W3C//DTD SVG 1.0//EN" "http://www.w3.org/TR/2001/REC-SVG-20010904/DTD/svg10.dtd">
<!-- Creator: CorelDRAW -->
<svg xmlns="http://www.w3.org/2000/svg" xml:space="preserve" width="1300px" height="1300px" version="1.0" style="shape-rendering:geometricPrecision; text-rendering:geometricPrecision; image-rendering:optimizeQuality; fill-rule:evenodd; clip-rule:evenodd"
viewBox="0 0 1300 1056"
 xmlns:xlink="http://www.w3.org/1999/xlink">
 <defs>
  <style type="text/css">
   <![CDATA[
    .fil0 {fill:black;fill-opacity:0.501961}
    .fil1 {fill:#99CCCC}
   ]]>
  </style>
 </defs>
 <g id="_100:master" visibility="hidden">
  <metadata id="CorelCorpID_0Corel-Layer"/>
  <path class="fil0" d="M894 502l0 -112 81 0 0 112c0,45 21,67 63,67l46 0 0 81 -46 0c-51,0 -88,-18 -110,-54 -55,71 -184,72 -236,1 -53,68 -188,72 -236,3 -24,34 -75,50 -117,50l-116 0 0 -81 116 0c36,0 84,-29 84,-67l-1 -112 82 0 0 112c0,93 146,85 146,0l0 -96 81 0 0 96c0,95 163,81 163,0z"/>
  <path class="fil1" d="M224 650l0 -81c-20,0 -40,19 -40,40 -1,21 20,41 40,41z"/>
 </g>
 <g id="Layer_x0020_1">
  <metadata id="CorelCorpID_1Corel-Layer"/>
  <path class="fil0" d="M1062 650c-58,0 -98,-15 -124,-39 -28,22 -78,39 -126,39 -55,0 -111,-22 -137,-48 -69,71 -189,57 -254,-2 -33,35 -77,50 -122,50l-88 0c-21,0 -41,-20 -41,-41 0,-21 20,-40 41,-40l82 0c59,0 94,-46 101,-74l24 -100 72 17 -26 104c-1,6 -3,12 -5,18 74,49 168,54 191,-39l19 -83 72 18 -21 86c-1,6 -3,11 -5,17 17,15 51,36 97,36 38,0 68,-15 86,-28l-1 -4 -31 -131 72 -23 25 112c10,45 32,74 99,74l36 0 0 81 -36 0z"/>
 </g>
</svg>
