<?xml version="1.0" encoding="UTF-8"?>
<!DOCTYPE svg PUBLIC "-//W3C//DTD SVG 1.0//EN" "http://www.w3.org/TR/2001/REC-SVG-20010904/DTD/svg10.dtd">
<!-- Creator: CorelDRAW -->
<svg xmlns="http://www.w3.org/2000/svg" xml:space="preserve" width="1300px" height="1300px" version="1.0" style="shape-rendering:geometricPrecision; text-rendering:geometricPrecision; image-rendering:optimizeQuality; fill-rule:evenodd; clip-rule:evenodd"
viewBox="0 0 1300 1056"
 xmlns:xlink="http://www.w3.org/1999/xlink">
 <defs>
  <style type="text/css">
   <![CDATA[
    .fil0 {fill:black;fill-opacity:0.501961}
    .fil1 {fill:#99CCCC}
   ]]>
  </style>
 </defs>
 <g id="_100:master" visibility="hidden">
  <metadata id="CorelCorpID_0Corel-Layer"/>
  <path class="fil0" d="M894 502l0 -112 81 0 0 112c0,45 21,67 63,67l46 0 0 81 -46 0c-51,0 -88,-18 -110,-54 -55,71 -184,72 -236,1 -53,68 -188,72 -236,3 -24,34 -75,50 -117,50l-116 0 0 -81 116 0c36,0 84,-29 84,-67l-1 -112 82 0 0 112c0,93 146,85 146,0l0 -96 81 0 0 96c0,95 163,81 163,0z"/>
  <path class="fil1" d="M224 650l0 -81c-20,0 -40,19 -40,40 -1,21 20,41 40,41z"/>
 </g>
 <g id="Layer_x0020_1">
  <metadata id="CorelCorpID_1Corel-Layer"/>
  <path class="fil0" d="M716 533c16,15 51,36 96,36 47,0 90,-22 109,-37l-31 -128 67 -39 31 130c11,45 33,74 99,74l37 0 0 81 -37 0c-62,0 -103,-17 -129,-44 -30,24 -94,44 -146,44 -52,0 -106,-20 -133,-44 -26,27 -66,44 -129,44 -50,0 -101,-18 -130,-41 -26,25 -65,41 -126,41l-83 0 0 0 -2 0 0 0c-20,-1 -39,-20 -39,-41 0,-21 20,-40 41,-40l0 0 84 0c66,0 88,-29 99,-74l25 -104 71 17 -31 130c18,14 50,31 91,31l0 0c67,0 89,-29 100,-74l25 -104 71 17 -30 125z"/>
 </g>
</svg>
