<?xml version="1.0" encoding="UTF-8"?>
<!DOCTYPE svg PUBLIC "-//W3C//DTD SVG 1.0//EN" "http://www.w3.org/TR/2001/REC-SVG-20010904/DTD/svg10.dtd">
<!-- Creator: CorelDRAW -->
<svg xmlns="http://www.w3.org/2000/svg" xml:space="preserve" width="1300px" height="1300px" version="1.0" style="shape-rendering:geometricPrecision; text-rendering:geometricPrecision; image-rendering:optimizeQuality; fill-rule:evenodd; clip-rule:evenodd"
viewBox="0 0 1300 1056"
 xmlns:xlink="http://www.w3.org/1999/xlink">
 <defs>
  <style type="text/css">
   <![CDATA[
    .fil0 {fill:black;fill-opacity:0.501961}
   ]]>
  </style>
 </defs>
 <g id="_100:master">
  <metadata id="CorelCorpID_0Corel-Layer"/>
  <path class="fil0" d="M894 502l0 -112 81 0 0 112c0,45 21,67 63,67l46 0 0 81 -46 0c-51,0 -88,-18 -110,-54 -55,71 -184,72 -236,1 -53,68 -188,72 -236,3 -24,34 -75,50 -117,50l-116 0 0 0c-20,-1 -40,-20 -39,-41 0,-20 19,-40 39,-40l0 0 1 0 115 0c36,0 84,-29 84,-67l-1 -112 82 0 0 112c0,93 146,85 146,0l0 -96 81 0 0 96c0,95 163,81 163,0z"/>
 </g>
</svg>
