<?xml version="1.0" encoding="UTF-8"?>
<!DOCTYPE svg PUBLIC "-//W3C//DTD SVG 1.0//EN" "http://www.w3.org/TR/2001/REC-SVG-20010904/DTD/svg10.dtd">
<!-- Creator: CorelDRAW -->
<svg xmlns="http://www.w3.org/2000/svg" xml:space="preserve" width="1300px" height="1300px" version="1.0" style="shape-rendering:geometricPrecision; text-rendering:geometricPrecision; image-rendering:optimizeQuality; fill-rule:evenodd; clip-rule:evenodd"
viewBox="0 0 1300 1056"
 xmlns:xlink="http://www.w3.org/1999/xlink">
 <defs>
  <style type="text/css">
   <![CDATA[
    .fil0 {fill:black;fill-opacity:0.501961}
   ]]>
  </style>
 </defs>
 <g id="_100:master">
  <metadata id="CorelCorpID_0Corel-Layer"/>
  <path class="fil0" d="M829 366l0 0 0 40c-166,0 -135,22 -135,169 -1,156 -66,159 -207,159l0 -61c94,0 129,3 129,-100 0,-48 -1,-85 -1,-114 2,-62 56,-85 100,-93 -46,-7 -99,-31 -100,-99 0,-27 1,-62 1,-106 0,-103 -35,-100 -129,-100l0 -61c141,0 206,2 207,158 0,148 -32,167 135,167l0 41z"/>
 </g>
</svg>
