<?xml version="1.0" encoding="UTF-8"?>
<!DOCTYPE svg PUBLIC "-//W3C//DTD SVG 1.0//EN" "http://www.w3.org/TR/2001/REC-SVG-20010904/DTD/svg10.dtd">
<!-- Creator: CorelDRAW -->
<svg xmlns="http://www.w3.org/2000/svg" xml:space="preserve" width="1300px" height="1300px" version="1.0" style="shape-rendering:geometricPrecision; text-rendering:geometricPrecision; image-rendering:optimizeQuality; fill-rule:evenodd; clip-rule:evenodd"
viewBox="0 0 1300 1056"
 xmlns:xlink="http://www.w3.org/1999/xlink">
 <defs>
  <style type="text/css">
   <![CDATA[
    .fil0 {fill:#9900CC;fill-opacity:0.501961}
   ]]>
  </style>
 </defs>
 <g id="_100:master">
  <metadata id="CorelCorpID_0Corel-Layer"/>
  <path class="fil0" d="M812 569c52,0 81,-21 81,-65 1,-21 -7,-84 -30,-144l75 -32c28,80 37,123 37,176 0,101 -65,146 -163,146 -55,0 -111,-22 -137,-48 -69,71 -189,57 -254,-2 -33,35 -77,50 -122,50l-88 0c-21,0 -41,-20 -41,-41 0,-21 20,-40 41,-40l82 0c59,0 94,-46 101,-74l24 -100 72 17 -26 104c-1,6 -3,12 -5,18 74,49 168,54 191,-39l19 -83 72 18 -21 86c-1,6 -3,11 -5,17 17,15 51,36 97,36z"/>
 </g>
</svg>
