<?xml version="1.0" encoding="UTF-8"?>
<!DOCTYPE svg PUBLIC "-//W3C//DTD SVG 1.0//EN" "http://www.w3.org/TR/2001/REC-SVG-20010904/DTD/svg10.dtd">
<!-- Creator: CorelDRAW -->
<svg xmlns="http://www.w3.org/2000/svg" xml:space="preserve" width="1300px" height="1300px" version="1.0" style="shape-rendering:geometricPrecision; text-rendering:geometricPrecision; image-rendering:optimizeQuality; fill-rule:evenodd; clip-rule:evenodd"
viewBox="0 0 1300 1056"
 xmlns:xlink="http://www.w3.org/1999/xlink">
 <defs>
  <style type="text/css">
   <![CDATA[
    .fil0 {fill:black}
   ]]>
  </style>
 </defs>
 <g id="_100:master">
  <metadata id="CorelCorpID_0Corel-Layer"/>
  <path class="fil0" d="M338 536c16,0 29,6 40,17 11,11 17,24 17,40 0,16 -6,29 -17,40 -11,11 -24,17 -40,17 -16,0 -29,-6 -40,-17 -11,-11 -17,-24 -17,-40 0,-16 6,-29 17,-40 11,-11 24,-17 40,-17zm290 0c16,0 30,6 41,17 11,11 16,24 16,40 0,16 -5,29 -16,40 -11,11 -25,17 -41,17 -16,0 -29,-6 -39,-17 -11,-11 -16,-24 -16,-40 0,-16 5,-29 16,-40 10,-11 23,-17 39,-17zm291 0c16,0 29,6 40,17 11,11 16,24 16,40 0,16 -5,29 -16,40 -11,11 -24,17 -40,17 -16,0 -30,-6 -40,-17 -11,-11 -17,-24 -17,-40 0,-16 6,-29 17,-40 10,-11 24,-17 40,-17z"/>
 </g>
</svg>
