<?xml version="1.0" encoding="UTF-8"?>
<!DOCTYPE svg PUBLIC "-//W3C//DTD SVG 1.0//EN" "http://www.w3.org/TR/2001/REC-SVG-20010904/DTD/svg10.dtd">
<!-- Creator: CorelDRAW -->
<svg xmlns="http://www.w3.org/2000/svg" xml:space="preserve" width="1300px" height="1300px" version="1.0" style="shape-rendering:geometricPrecision; text-rendering:geometricPrecision; image-rendering:optimizeQuality; fill-rule:evenodd; clip-rule:evenodd"
viewBox="0 0 1300 1056"
 xmlns:xlink="http://www.w3.org/1999/xlink">
 <defs>
  <style type="text/css">
   <![CDATA[
    .fil0 {fill:black;fill-opacity:0.501961}
   ]]>
  </style>
 </defs>
 <g id="_100:master">
  <metadata id="CorelCorpID_0Corel-Layer"/>
  <path class="fil0" d="M846 533c16,15 50,36 96,36 47,0 90,-22 109,-37l-31 -128 67 -39 31 130c11,45 32,74 99,74l36 0 0 81 -36 0c-63,0 -103,-17 -129,-44 -30,24 -94,44 -146,44 -53,0 -107,-20 -134,-44 -26,27 -63,44 -106,44 -39,0 -64,-4 -98,-24 2,8 3,16 3,24 21,316 -840,389 -503,-171l52 33c-242,447 398,305 378,147 -6,-40 -36,-104 -89,-192l70 -52c6,10 11,19 16,27 51,80 107,127 168,127 32,0 67,-20 80,-74l25 -104 72 17 -30 125z"/>
 </g>
</svg>
