<?xml version="1.0" encoding="UTF-8"?>
<!DOCTYPE svg PUBLIC "-//W3C//DTD SVG 1.0//EN" "http://www.w3.org/TR/2001/REC-SVG-20010904/DTD/svg10.dtd">
<!-- Creator: CorelDRAW -->
<svg xmlns="http://www.w3.org/2000/svg" xml:space="preserve" width="1300px" height="1300px" version="1.0" style="shape-rendering:geometricPrecision; text-rendering:geometricPrecision; image-rendering:optimizeQuality; fill-rule:evenodd; clip-rule:evenodd"
viewBox="0 0 1300 1056"
 xmlns:xlink="http://www.w3.org/1999/xlink">
 <defs>
  <style type="text/css">
   <![CDATA[
    .fil0 {fill:black;fill-opacity:0.501961}
   ]]>
  </style>
 </defs>
 <g id="_100:master">
  <metadata id="CorelCorpID_0Corel-Layer"/>
  <path class="fil0" d="M731 502c0,90 163,87 163,-2 0,-40 -13,-95 -39,-166l79 -26c28,79 43,145 43,198 0,163 -216,185 -286,91 -52,68 -181,72 -229,3 -24,34 -75,50 -117,50l-104 0 -5 0 0 0c-19,-3 -36,-21 -36,-41 0,-19 18,-37 36,-40l0 0 5 0 104 0c37,0 77,-30 77,-67l0 -113 84 0 0 113c0,92 144,85 144,0l0 -113 81 0 0 113z"/>
 </g>
</svg>
