<?xml version="1.0" encoding="UTF-8"?>
<!DOCTYPE svg PUBLIC "-//W3C//DTD SVG 1.0//EN" "http://www.w3.org/TR/2001/REC-SVG-20010904/DTD/svg10.dtd">
<!-- Creator: CorelDRAW -->
<svg xmlns="http://www.w3.org/2000/svg" xml:space="preserve" width="1300px" height="1300px" version="1.0" style="shape-rendering:geometricPrecision; text-rendering:geometricPrecision; image-rendering:optimizeQuality; fill-rule:evenodd; clip-rule:evenodd"
viewBox="0 0 1300 1056"
 xmlns:xlink="http://www.w3.org/1999/xlink">
 <defs>
  <style type="text/css">
   <![CDATA[
    .fil0 {fill:black}
   ]]>
  </style>
 </defs>
 <g id="_100:master">
  <metadata id="CorelCorpID_0Corel-Layer"/>
  <path class="fil0" d="M967 341c6,-2 14,-2 25,-2 11,0 22,5 32,15 10,10 16,23 16,39 0,28 -13,46 -38,54l-98 31 60 82c29,40 -1,88 -47,88 -16,0 -30,-7 -42,-22l-60 -84 -61 84c-11,15 -25,22 -42,22 -18,0 -32,-5 -42,-15 -11,-11 -16,-23 -16,-37 0,-14 4,-26 11,-36l59 -82 -96 -31c-26,-8 -38,-26 -38,-54 0,-15 5,-28 16,-39 10,-10 21,-15 33,-15 11,0 19,0 24,2l97 32 0 -103c0,-51 60,-72 94,-39 11,11 17,24 17,39l0 103 96 -32z"/>
 </g>
</svg>
