<?xml version="1.0" encoding="UTF-8"?>
<!DOCTYPE svg PUBLIC "-//W3C//DTD SVG 1.0//EN" "http://www.w3.org/TR/2001/REC-SVG-20010904/DTD/svg10.dtd">
<!-- Creator: CorelDRAW -->
<svg xmlns="http://www.w3.org/2000/svg" xml:space="preserve" width="1300px" height="1300px" version="1.0" style="shape-rendering:geometricPrecision; text-rendering:geometricPrecision; image-rendering:optimizeQuality; fill-rule:evenodd; clip-rule:evenodd"
viewBox="0 0 1300 1056"
 xmlns:xlink="http://www.w3.org/1999/xlink">
 <defs>
  <style type="text/css">
   <![CDATA[
    .fil0 {fill:#990000;fill-opacity:0.501961}
   ]]>
  </style>
 </defs>
 <g id="_100:master">
  <metadata id="CorelCorpID_0Corel-Layer"/>
  <path class="fil0" d="M156 512c-242,447 398,305 378,147 -6,-40 -36,-104 -89,-192l70 -52c6,10 11,19 16,27 51,80 107,127 168,127 32,0 67,-20 80,-74l25 -104 72 17 -30 125c16,15 50,36 96,36 40,0 88,-20 88,-63 0,-40 -18,-99 -43,-170l74 -31c28,79 43,146 43,199 0,100 -65,146 -162,146l0 0 -1 0 0 0c-52,0 -106,-20 -133,-44 -26,27 -63,44 -106,44 -39,0 -64,-4 -98,-24 2,8 3,16 3,24 21,316 -840,389 -503,-171l52 33z"/>
 </g>
</svg>
