<?xml version="1.0" encoding="UTF-8"?>
<!DOCTYPE svg PUBLIC "-//W3C//DTD SVG 1.0//EN" "http://www.w3.org/TR/2001/REC-SVG-20010904/DTD/svg10.dtd">
<!-- Creator: CorelDRAW -->
<svg xmlns="http://www.w3.org/2000/svg" xml:space="preserve" width="1300px" height="1300px" version="1.0" style="shape-rendering:geometricPrecision; text-rendering:geometricPrecision; image-rendering:optimizeQuality; fill-rule:evenodd; clip-rule:evenodd"
viewBox="0 0 1300 1056"
 xmlns:xlink="http://www.w3.org/1999/xlink">
 <defs>
  <style type="text/css">
   <![CDATA[
    .fil0 {fill:black;fill-opacity:0.501961}
   ]]>
  </style>
 </defs>
 <g id="_100:master">
  <metadata id="CorelCorpID_0Corel-Layer"/>
  <path class="fil0" d="M909 650c-14,0 -32,-4 -54,-14l0 14c0,62 -34,111 -103,149 -69,37 -162,56 -279,56 -135,0 -203,-59 -203,-176 0,-52 30,-122 88,-213l60 44c-45,75 -68,132 -68,173 0,60 41,90 123,90 70,-1 135,-9 196,-26 49,-13 104,-43 104,-96l0 -10c0,-42 -33,-103 -60,-155l64 -37 25 45c27,50 63,75 107,75 38,0 70,-31 70,-68l0 -111 82 0 0 111c0,45 30,67 74,67 37,0 82,-14 82,-57 0,-38 -10,-88 -30,-149l-9 -33 83 -15c26,84 38,149 38,196 0,47 -16,82 -47,105 -32,24 -67,35 -105,35 -62,0 -105,-17 -130,-52 -28,35 -64,52 -108,52l0 0z"/>
 </g>
</svg>
