<?xml version="1.0" encoding="UTF-8"?>
<!DOCTYPE svg PUBLIC "-//W3C//DTD SVG 1.0//EN" "http://www.w3.org/TR/2001/REC-SVG-20010904/DTD/svg10.dtd">
<!-- Creator: CorelDRAW -->
<svg xmlns="http://www.w3.org/2000/svg" xml:space="preserve" width="1300px" height="1300px" version="1.0" style="shape-rendering:geometricPrecision; text-rendering:geometricPrecision; image-rendering:optimizeQuality; fill-rule:evenodd; clip-rule:evenodd"
viewBox="0 0 1300 1056"
 xmlns:xlink="http://www.w3.org/1999/xlink">
 <defs>
  <style type="text/css">
   <![CDATA[
    .fil0 {fill:black;fill-opacity:0.501961}
   ]]>
  </style>
 </defs>
 <g id="_100:master">
  <metadata id="CorelCorpID_0Corel-Layer"/>
  <path class="fil0" d="M863 635c-37,21 -81,21 -117,1 0,63 -23,110 -68,143 -46,32 -95,53 -147,62 -52,9 -102,13 -149,13 -148,0 -222,-55 -222,-164 0,-58 29,-133 89,-224l60 43c-45,73 -67,133 -67,180 0,55 46,83 139,83 61,0 121,-8 179,-25 68,-20 103,-56 103,-106 1,-45 -32,-104 -60,-156l65 -37c13,24 34,64 49,83 7,10 18,18 33,26 14,9 32,13 53,13 21,0 37,-7 48,-21 12,-14 17,-31 17,-50l0 -110 82 0 0 110c0,47 40,70 84,70 24,0 42,-7 55,-20 13,-13 20,-30 20,-50l0 -110 82 0 0 110c0,47 22,70 65,70l45 0 0 81 -45 0c-47,0 -83,-18 -107,-54 -27,36 -69,54 -123,54 -55,0 -95,-17 -120,-52 -10,14 -24,26 -43,37l0 0z"/>
 </g>
</svg>
