<?xml version="1.0" encoding="UTF-8"?>
<!DOCTYPE svg PUBLIC "-//W3C//DTD SVG 1.0//EN" "http://www.w3.org/TR/2001/REC-SVG-20010904/DTD/svg10.dtd">
<!-- Creator: CorelDRAW -->
<svg xmlns="http://www.w3.org/2000/svg" xml:space="preserve" width="1300px" height="1300px" version="1.0" style="shape-rendering:geometricPrecision; text-rendering:geometricPrecision; image-rendering:optimizeQuality; fill-rule:evenodd; clip-rule:evenodd"
viewBox="0 0 1300 1056"
 xmlns:xlink="http://www.w3.org/1999/xlink">
 <defs>
  <style type="text/css">
   <![CDATA[
    .fil0 {fill:#99CCCC}
   ]]>
  </style>
 </defs>
 <g id="_100:master">
  <metadata id="CorelCorpID_0Corel-Layer"/>
  <path class="fil0" d="M702 569c42,-66 83,-119 123,-153 101,-85 215,-36 215,95 1,30 -57,58 -130,58l-208 0zm-181 81l-1 0 0 0c-20,-1 -40,-20 -40,-41 1,-20 20,-39 40,-40l0 0 89 0 0 -569 74 0 0 460c31,-43 63,-80 96,-109 133,-118 343,-60 341,153l0 0c1,82 -76,146 -211,146l-388 0 0 0z"/>
 </g>
</svg>
