<?xml version="1.0" encoding="UTF-8"?>
<!DOCTYPE svg PUBLIC "-//W3C//DTD SVG 1.0//EN" "http://www.w3.org/TR/2001/REC-SVG-20010904/DTD/svg10.dtd">
<!-- Creator: CorelDRAW -->
<svg xmlns="http://www.w3.org/2000/svg" xml:space="preserve" width="1300px" height="1300px" version="1.0" style="shape-rendering:geometricPrecision; text-rendering:geometricPrecision; image-rendering:optimizeQuality; fill-rule:evenodd; clip-rule:evenodd"
viewBox="0 0 1300 1056"
 xmlns:xlink="http://www.w3.org/1999/xlink">
 <defs>
  <style type="text/css">
   <![CDATA[
    .fil0 {fill:#9900CC;fill-opacity:0.501961}
   ]]>
  </style>
 </defs>
 <g id="_100:master">
  <metadata id="CorelCorpID_0Corel-Layer"/>
  <path class="fil0" d="M901 521l0 0c13,-38 -8,-86 -43,-110 -94,-64 -240,77 -313,158l207 0c80,0 132,-33 149,-48zm73 -17l0 0c-15,83 -77,146 -198,146l-246 0 0 0c-62,3 -125,-16 -179,-43l33 -75c24,14 53,25 84,31 11,-14 32,-40 60,-70l0 -493 73 0 0 420c63,-59 137,-114 196,-122 108,-16 202,87 177,206z"/>
 </g>
</svg>
