<?xml version="1.0" encoding="UTF-8"?>
<!DOCTYPE svg PUBLIC "-//W3C//DTD SVG 1.0//EN" "http://www.w3.org/TR/2001/REC-SVG-20010904/DTD/svg10.dtd">
<!-- Creator: CorelDRAW -->
<svg xmlns="http://www.w3.org/2000/svg" xml:space="preserve" width="1300px" height="1300px" version="1.0" style="shape-rendering:geometricPrecision; text-rendering:geometricPrecision; image-rendering:optimizeQuality; fill-rule:evenodd; clip-rule:evenodd"
viewBox="0 0 1300 1056"
 xmlns:xlink="http://www.w3.org/1999/xlink">
 <defs>
  <style type="text/css">
   <![CDATA[
    .fil0 {fill:black;fill-opacity:0.501961}
   ]]>
  </style>
 </defs>
 <g id="_100:master">
  <metadata id="CorelCorpID_0Corel-Layer"/>
  <path class="fil0" d="M603 650l0 0 -10 0 0 0c-60,-2 -118,-17 -169,-43l33 -75c40,23 93,36 145,37l7 0 0 -569 74 0 0 460c31,-43 63,-80 96,-109 133,-118 343,-60 341,153l0 0c1,82 -76,146 -211,146l-306 0zm99 -81l208 0c73,0 131,-28 130,-58 0,-131 -114,-180 -215,-95 -40,34 -81,87 -123,153z"/>
 </g>
</svg>
