<?xml version="1.0" encoding="UTF-8"?>
<!DOCTYPE svg PUBLIC "-//W3C//DTD SVG 1.0//EN" "http://www.w3.org/TR/2001/REC-SVG-20010904/DTD/svg10.dtd">
<!-- Creator: CorelDRAW -->
<svg xmlns="http://www.w3.org/2000/svg" xml:space="preserve" width="1300px" height="1300px" version="1.0" style="shape-rendering:geometricPrecision; text-rendering:geometricPrecision; image-rendering:optimizeQuality; fill-rule:evenodd; clip-rule:evenodd"
viewBox="0 0 1300 1056"
 xmlns:xlink="http://www.w3.org/1999/xlink">
 <defs>
  <style type="text/css">
   <![CDATA[
    .fil0 {fill:black;fill-opacity:0.501961}
   ]]>
  </style>
 </defs>
 <g id="_100:master">
  <metadata id="CorelCorpID_0Corel-Layer"/>
  <path class="fil0" d="M329 651l0 -1c-20,-1 -40,-20 -40,-41 1,-21 21,-40 41,-40l0 1 105 0 4 -558 83 -13 0 463c16,-18 33,-36 50,-54 30,-31 61,-55 93,-73 32,-19 61,-28 88,-28 42,0 78,13 109,38 30,26 46,61 46,106 0,45 -15,83 -46,114 18,3 39,5 63,5l50 0 0 81 -53 0c-58,0 -110,-9 -156,-28 -45,19 -104,28 -178,28l-259 0zm259 -81c60,0 117,-10 170,-30 18,-8 33,-19 47,-34 14,-15 21,-32 21,-50 0,-19 -6,-34 -19,-48 -12,-13 -32,-19 -59,-19 -28,0 -64,19 -109,58 -43,38 -82,79 -117,122l0 1 66 0z"/>
 </g>
</svg>
