<?xml version="1.0" encoding="UTF-8"?>
<!DOCTYPE svg PUBLIC "-//W3C//DTD SVG 1.0//EN" "http://www.w3.org/TR/2001/REC-SVG-20010904/DTD/svg10.dtd">
<!-- Creator: CorelDRAW -->
<svg xmlns="http://www.w3.org/2000/svg" xml:space="preserve" width="1300px" height="1300px" version="1.0" style="shape-rendering:geometricPrecision; text-rendering:geometricPrecision; image-rendering:optimizeQuality; fill-rule:evenodd; clip-rule:evenodd"
viewBox="0 0 1300 1056"
 xmlns:xlink="http://www.w3.org/1999/xlink">
 <defs>
  <style type="text/css">
   <![CDATA[
    .fil0 {fill:black;fill-opacity:0.501961}
   ]]>
  </style>
 </defs>
 <g id="_100:master">
  <metadata id="CorelCorpID_0Corel-Layer"/>
  <path class="fil0" d="M501 651c-25,0 -57,-6 -96,-17l18 -73c29,6 53,9 71,9l9 0 0 -553 83 -13 0 460c55,-65 102,-109 141,-131 29,-17 58,-26 85,-26l2 0c50,0 89,13 118,38 29,26 43,61 43,106 0,46 -16,83 -47,114 -59,57 -149,86 -270,86l-157 0zm157 -81c55,0 106,-9 154,-26 24,-9 44,-21 59,-37 15,-16 22,-34 22,-54 0,-20 -6,-35 -20,-47 -14,-11 -31,-17 -50,-17 -57,0 -135,60 -233,181l68 0z"/>
 </g>
</svg>
