<?xml version="1.0" encoding="UTF-8"?>
<!DOCTYPE svg PUBLIC "-//W3C//DTD SVG 1.0//EN" "http://www.w3.org/TR/2001/REC-SVG-20010904/DTD/svg10.dtd">
<!-- Creator: CorelDRAW -->
<svg xmlns="http://www.w3.org/2000/svg" xml:space="preserve" width="1300px" height="1300px" version="1.0" style="shape-rendering:geometricPrecision; text-rendering:geometricPrecision; image-rendering:optimizeQuality; fill-rule:evenodd; clip-rule:evenodd"
viewBox="0 0 1300 1056"
 xmlns:xlink="http://www.w3.org/1999/xlink">
 <defs>
  <style type="text/css">
   <![CDATA[
    .fil0 {fill:black;fill-opacity:0.501961}
   ]]>
  </style>
 </defs>
 <g id="_100:master">
  <metadata id="CorelCorpID_0Corel-Layer"/>
  <path class="fil0" d="M330 623l26 -63c23,6 45,8 71,8l0 -553 84 -13 0 473c19,-22 40,-45 63,-69 47,-47 117,-101 180,-101 41,0 78,13 109,38 30,26 46,61 46,107 0,45 -16,83 -46,113 34,7 75,5 113,5l0 81 -53 0c-58,0 -110,-9 -156,-28 -45,19 -104,28 -178,28l-159 0c-38,0 -71,-8 -100,-26zm259 -55c60,0 117,-10 170,-30 18,-7 33,-19 47,-33 27,-30 28,-71 2,-98 -12,-13 -32,-20 -59,-20 -28,0 -64,19 -108,58 -45,39 -84,80 -119,123l67 0z"/>
 </g>
</svg>
