<?xml version="1.0" encoding="UTF-8"?>
<!DOCTYPE svg PUBLIC "-//W3C//DTD SVG 1.0//EN" "http://www.w3.org/TR/2001/REC-SVG-20010904/DTD/svg10.dtd">
<!-- Creator: CorelDRAW -->
<svg xmlns="http://www.w3.org/2000/svg" xml:space="preserve" width="1300px" height="1300px" version="1.0" style="shape-rendering:geometricPrecision; text-rendering:geometricPrecision; image-rendering:optimizeQuality; fill-rule:evenodd; clip-rule:evenodd"
viewBox="0 0 1300 1056"
 xmlns:xlink="http://www.w3.org/1999/xlink">
 <defs>
  <style type="text/css">
   <![CDATA[
    .fil0 {fill:black;fill-opacity:0.501961}
    .fil2 {fill:#999933;fill-opacity:0.501961}
    .fil1 {fill:#FFCC00;fill-opacity:0.501961}
   ]]>
  </style>
 </defs>
 <g id="_100:master" visibility="hidden">
  <metadata id="CorelCorpID_0Corel-Layer"/>
  <path class="fil0" d="M897 558c-4,-29 -14,-59 -29,-92 -57,-121 -100,9 -100,58 0,32 106,34 129,34zm-203 -16c0,-65 39,-217 128,-217 97,0 150,161 153,240 40,4 55,5 83,5l0 81c-41,0 -70,-1 -88,-4 -20,97 -86,181 -199,254l-49 -64c87,-57 142,-97 176,-198 -68,-3 -204,-1 -204,-97l0 0z"/>
 </g>
 <g id="Layer_x0020_1" visibility="hidden">
  <metadata id="CorelCorpID_1Corel-Layer"/>
  <polygon class="fil1" points="800,650 813,568 1056,569 1056,650 "/>
  <path class="fil2" d="M902 623l73 -9c0,141 -142,262 -326,312l-19 -78c113,-30 265,-117 272,-225z"/>
  <path class="fil0" d="M977 617l-73 10c9,-235 -140,-301 -174,-102 -2,31 47,43 83,43l-12 82c-67,1 -149,-28 -137,-127 26,-274 309,-282 313,94z"/>
 </g>
 <g id="Layer_x0020_2">
  <metadata id="CorelCorpID_2Corel-Layer"/>
  <path class="fil1" d="M801 650l0 0c-107,0 -144,-74 -143,-153 2,-84 55,-172 145,-172 109,0 160,127 170,244l83 0 0 81 -84 0c-21,125 -154,230 -323,276l-19 -78c105,-28 242,-111 263,-198l-92 0zm12 -81l76 0c-14,-117 -59,-163 -93,-163 -30,0 -57,47 -57,91 0,37 14,72 74,72l0 0z"/>
 </g>
</svg>
