<?xml version="1.0" encoding="UTF-8"?>
<!DOCTYPE svg PUBLIC "-//W3C//DTD SVG 1.0//EN" "http://www.w3.org/TR/2001/REC-SVG-20010904/DTD/svg10.dtd">
<!-- Creator: CorelDRAW -->
<svg xmlns="http://www.w3.org/2000/svg" xml:space="preserve" width="1300px" height="1300px" version="1.0" style="shape-rendering:geometricPrecision; text-rendering:geometricPrecision; image-rendering:optimizeQuality; fill-rule:evenodd; clip-rule:evenodd"
viewBox="0 0 1300 1056"
 xmlns:xlink="http://www.w3.org/1999/xlink">
 <defs>
  <style type="text/css">
   <![CDATA[
    .fil0 {fill:black;fill-opacity:0.501961}
    .fil1 {fill:#999933;fill-opacity:0.501961}
   ]]>
  </style>
 </defs>
 <g id="_100:master" visibility="hidden">
  <metadata id="CorelCorpID_0Corel-Layer"/>
  <path class="fil0" d="M691 533c-2,-83 67,-191 126,-191 104,0 154,161 154,248 0,126 -69,232 -206,319l-48 -64c83,-54 167,-123 176,-228 -78,41 -201,13 -202,-84zm201 3c-5,-32 -36,-114 -75,-112 -28,1 -59,53 -64,92 -8,65 139,56 139,20z"/>
 </g>
 <g id="Layer_x0020_1" visibility="hidden">
  <metadata id="CorelCorpID_1Corel-Layer"/>
  <path class="fil0" d="M977 617l-73 10c2,-215 -133,-273 -158,-102l-66 -2c23,-252 290,-262 297,94z"/>
  <path class="fil0" d="M680 523l66 2c-4,61 129,47 154,21l16 77c-58,33 -255,67 -236,-100z"/>
  <path class="fil1" d="M902 623l73 -9c0,141 -142,262 -326,312l-19 -78c113,-30 265,-117 272,-225z"/>
 </g>
 <g id="Layer_x0020_2" visibility="hidden">
  <metadata id="CorelCorpID_2Corel-Layer"/>
  <path class="fil0" d="M977 617l-73 10c9,-235 -140,-301 -174,-102 -2,31 47,43 83,43l-12 82c-67,1 -149,-28 -137,-127 26,-274 309,-282 313,94z"/>
  <path class="fil1" d="M902 623l73 -9c0,141 -142,262 -326,312l-19 -78c113,-30 265,-117 272,-225z"/>
  <path class="fil0" d="M801 650l12 -82c36,1 75,-9 87,-22l16 77c-23,14 -69,27 -115,27z"/>
 </g>
 <g id="Layer_x0020_3">
  <metadata id="CorelCorpID_3Corel-Layer"/>
  <path class="fil0" d="M813 568c26,1 57,-7 74,-15 -16,-105 -58,-147 -91,-147 -30,0 -57,47 -57,91 0,37 14,72 74,71zm80 66c-24,9 -58,16 -92,16 -107,2 -144,-74 -143,-153 2,-84 55,-172 145,-172 123,0 172,162 173,289 -1,141 -142,262 -327,312l-19 -78c106,-28 245,-113 264,-201l0 0c0,-4 0,-9 -1,-13z"/>
 </g>
</svg>
