<?xml version="1.0" encoding="UTF-8"?>
<!DOCTYPE svg PUBLIC "-//W3C//DTD SVG 1.0//EN" "http://www.w3.org/TR/2001/REC-SVG-20010904/DTD/svg10.dtd">
<!-- Creator: CorelDRAW -->
<svg xmlns="http://www.w3.org/2000/svg" xml:space="preserve" width="1300px" height="1300px" version="1.0" style="shape-rendering:geometricPrecision; text-rendering:geometricPrecision; image-rendering:optimizeQuality; fill-rule:evenodd; clip-rule:evenodd"
viewBox="0 0 1300 1056"
 xmlns:xlink="http://www.w3.org/1999/xlink">
 <defs>
  <style type="text/css">
   <![CDATA[
    .fil0 {fill:black;fill-opacity:0.501961}
   ]]>
  </style>
 </defs>
 <g id="_100:master">
  <metadata id="CorelCorpID_0Corel-Layer"/>
  <path class="fil0" d="M897 558c-4,-29 -14,-59 -29,-92 -57,-121 -100,9 -100,58 0,32 106,34 129,34zm-203 -16c0,-65 39,-217 128,-217 97,0 150,161 153,240 40,4 55,5 83,5l0 81c-41,0 -70,-1 -88,-4 -20,97 -86,181 -199,254l-49 -64c87,-57 142,-97 176,-198 -68,-3 -204,-1 -204,-97l0 0z"/>
 </g>
</svg>
