<?xml version="1.0" encoding="UTF-8"?>
<!DOCTYPE svg PUBLIC "-//W3C//DTD SVG 1.0//EN" "http://www.w3.org/TR/2001/REC-SVG-20010904/DTD/svg10.dtd">
<!-- Creator: CorelDRAW -->
<svg xmlns="http://www.w3.org/2000/svg" xml:space="preserve" width="1300px" height="1300px" version="1.0" style="shape-rendering:geometricPrecision; text-rendering:geometricPrecision; image-rendering:optimizeQuality; fill-rule:evenodd; clip-rule:evenodd"
viewBox="0 0 1300 1056"
 xmlns:xlink="http://www.w3.org/1999/xlink">
 <defs>
  <style type="text/css">
   <![CDATA[
    .fil0 {fill:black;fill-opacity:0.501961}
   ]]>
  </style>
 </defs>
 <g id="_100:master">
  <metadata id="CorelCorpID_0Corel-Layer"/>
  <path class="fil0" d="M937 765c-3,4 -6,7 -9,8 -64,62 -192,90 -311,87 -180,-4 -324,-112 -146,-381l52 33c-123,207 -27,270 99,268 118,-1 247,-19 263,-80 10,-64 -166,-31 -166,-167 0,-54 36,-105 109,-153 30,-20 58,-30 84,-30 26,0 49,7 69,21 21,14 40,36 59,65l-55 45c-20,-33 -44,-50 -70,-50 -26,0 -55,12 -87,35 -32,23 -34,29 -34,50 0,82 285,51 143,249z"/>
 </g>
</svg>
