<?xml version="1.0" encoding="UTF-8"?>
<!DOCTYPE svg PUBLIC "-//W3C//DTD SVG 1.0//EN" "http://www.w3.org/TR/2001/REC-SVG-20010904/DTD/svg10.dtd">
<!-- Creator: CorelDRAW -->
<svg xmlns="http://www.w3.org/2000/svg" xml:space="preserve" width="1300px" height="1300px" version="1.0" style="shape-rendering:geometricPrecision; text-rendering:geometricPrecision; image-rendering:optimizeQuality; fill-rule:evenodd; clip-rule:evenodd"
viewBox="0 0 1300 1056"
 xmlns:xlink="http://www.w3.org/1999/xlink">
 <defs>
  <style type="text/css">
   <![CDATA[
    .fil0 {fill:black;fill-opacity:0.501961}
   ]]>
  </style>
 </defs>
 <g id="_100:master">
  <metadata id="CorelCorpID_0Corel-Layer"/>
  <path class="fil0" d="M942 723l0 0c-126,160 -560,198 -548,-87 4,-77 64,-217 83,-249l75 30c-32,54 -74,152 -75,219 -5,191 338,135 406,33 29,-46 -71,-77 -135,-103 -37,-15 -57,-59 -18,-140 65,-139 268,-238 381,-51l-65 50c-66,-97 -182,-53 -223,14 -26,42 -27,48 -5,57 71,32 167,67 158,149 -3,23 -12,50 -34,78z"/>
 </g>
</svg>
