<?xml version="1.0" encoding="UTF-8"?>
<!DOCTYPE svg PUBLIC "-//W3C//DTD SVG 1.0//EN" "http://www.w3.org/TR/2001/REC-SVG-20010904/DTD/svg10.dtd">
<!-- Creator: CorelDRAW -->
<svg xmlns="http://www.w3.org/2000/svg" xml:space="preserve" width="1300px" height="1300px" version="1.0" style="shape-rendering:geometricPrecision; text-rendering:geometricPrecision; image-rendering:optimizeQuality; fill-rule:evenodd; clip-rule:evenodd"
viewBox="0 0 1300 1056"
 xmlns:xlink="http://www.w3.org/1999/xlink">
 <defs>
  <style type="text/css">
   <![CDATA[
    .fil0 {fill:black;fill-opacity:0.501961}
    .fil1 {fill:#990000;fill-opacity:0.501961}
   ]]>
  </style>
 </defs>
 <g id="_100:master" visibility="hidden">
  <metadata id="CorelCorpID_0Corel-Layer"/>
  <path class="fil0" d="M969 707l-85 6c21,-28 -10,-67 -100,-94l25 -83c79,20 162,33 235,33l0 81c-44,0 -84,-3 -103,-11 18,17 30,44 28,68z"/>
  <path class="fil1" d="M885 712l84 -5c-78,266 -813,296 -497,-228l51 33c-213,396 264,330 362,200z"/>
 </g>
 <g id="Layer_x0020_1">
  <metadata id="CorelCorpID_1Corel-Layer"/>
  <path class="fil0" d="M969 707l0 0c-43,211 -593,298 -579,-22 4,-77 63,-218 83,-249l75 30c-32,54 -74,152 -76,219 -5,194 351,133 410,27l0 0c1,-2 2,-4 3,-7 7,-23 -17,-65 -150,-98l24 -82c87,31 207,44 285,44l0 81c-44,0 -84,-3 -103,-11 17,17 29,43 28,67l0 0 0 1z"/>
 </g>
</svg>
