<?xml version="1.0" encoding="UTF-8"?>
<!DOCTYPE svg PUBLIC "-//W3C//DTD SVG 1.0//EN" "http://www.w3.org/TR/2001/REC-SVG-20010904/DTD/svg10.dtd">
<!-- Creator: CorelDRAW -->
<svg xmlns="http://www.w3.org/2000/svg" xml:space="preserve" width="1300px" height="1300px" version="1.0" style="shape-rendering:geometricPrecision; text-rendering:geometricPrecision; image-rendering:optimizeQuality; fill-rule:evenodd; clip-rule:evenodd"
viewBox="0 0 1300 1056"
 xmlns:xlink="http://www.w3.org/1999/xlink">
 <defs>
  <style type="text/css">
   <![CDATA[
    .fil0 {fill:black;fill-opacity:0.501961}
   ]]>
  </style>
 </defs>
 <g id="_100:master">
  <metadata id="CorelCorpID_0Corel-Layer"/>
  <path class="fil0" d="M399 305l63 25c-37,79 -50,134 -55,166 -28,204 501,52 512,41 21,-21 39,-49 55,-86l34 -80 71 29c-3,9 -10,30 -22,62 -12,33 -18,56 -18,69 0,13 7,23 22,29 15,5 40,8 76,8l0 82c-45,0 -80,-3 -105,-9 -26,-6 -44,-19 -54,-38 -78,55 -705,198 -651,-108 6,-32 24,-96 72,-190l0 0z"/>
 </g>
</svg>
