<?xml version="1.0" encoding="UTF-8"?>
<!DOCTYPE svg PUBLIC "-//W3C//DTD SVG 1.0//EN" "http://www.w3.org/TR/2001/REC-SVG-20010904/DTD/svg10.dtd">
<!-- Creator: CorelDRAW -->
<svg xmlns="http://www.w3.org/2000/svg" xml:space="preserve" width="1300px" height="1300px" version="1.0" style="shape-rendering:geometricPrecision; text-rendering:geometricPrecision; image-rendering:optimizeQuality; fill-rule:evenodd; clip-rule:evenodd"
viewBox="0 0 1300 1056"
 xmlns:xlink="http://www.w3.org/1999/xlink">
 <defs>
  <style type="text/css">
   <![CDATA[
    .fil0 {fill:black;fill-opacity:0.501961}
   ]]>
  </style>
 </defs>
 <g id="_100:master">
  <metadata id="CorelCorpID_0Corel-Layer"/>
  <g id="Regular-g.ein.init.svg">
   <g>
    <path class="fil0" d="M984 500l19 71c-67,26 -154,50 -261,71 -35,5 -71,8 -106,8l-68 0 0 -81 68 0c29,0 56,-2 81,-5 -8,-6 -15,-12 -22,-19 -11,-11 -22,-27 -31,-47 -10,-19 -14,-40 -14,-63 0,-47 17,-87 51,-119 34,-33 69,-49 104,-49 36,0 76,10 119,30l20 10 -22 64c-43,-15 -75,-22 -97,-22 -22,0 -43,10 -63,29 -20,19 -31,40 -31,63 0,22 11,42 33,58 19,13 43,25 72,37 87,-21 136,-33 148,-36l0 0z"/>
   </g>
  </g>
 </g>
</svg>
