<?xml version="1.0" encoding="UTF-8"?>
<!DOCTYPE svg PUBLIC "-//W3C//DTD SVG 1.0//EN" "http://www.w3.org/TR/2001/REC-SVG-20010904/DTD/svg10.dtd">
<!-- Creator: CorelDRAW -->
<svg xmlns="http://www.w3.org/2000/svg" xml:space="preserve" width="1300px" height="1300px" version="1.0" style="shape-rendering:geometricPrecision; text-rendering:geometricPrecision; image-rendering:optimizeQuality; fill-rule:evenodd; clip-rule:evenodd"
viewBox="0 0 1300 1056"
 xmlns:xlink="http://www.w3.org/1999/xlink">
 <defs>
  <style type="text/css">
   <![CDATA[
    .fil0 {fill:black;fill-opacity:0.501961}
   ]]>
  </style>
 </defs>
 <g id="_100:master">
  <metadata id="CorelCorpID_0Corel-Layer"/>
  <g id="Regular-g.ghaf.medi.svg">
   <g>
    <path class="fil0" d="M1070 -39c-119,59 -222,117 -308,175l-25 -49c70,-45 174,-104 312,-177l21 51zm-408 693l0 -81 54 0c55,0 102,-7 140,-20 39,-14 58,-32 58,-56 -1,-29 -10,-54 -27,-74 -21,-24 -40,-42 -58,-54 -18,-11 -31,-19 -39,-24 -9,-5 -21,-11 -38,-20 -17,-9 -28,-14 -32,-17l11 -108c139,-97 257,-162 352,-195l22 78c-97,35 -204,93 -321,173 114,67 197,133 250,197 7,8 16,21 27,39 11,17 20,31 28,41 7,10 18,19 34,27 16,9 35,13 56,13l0 82c-42,0 -76,-10 -101,-31 -26,-21 -49,-50 -67,-86 -11,-19 -21,-34 -31,-42 0,34 -13,63 -37,88 -48,46 -123,70 -225,70l-56 0z"/>
   </g>
  </g>
 </g>
</svg>
