<?xml version="1.0" encoding="UTF-8"?>
<!DOCTYPE svg PUBLIC "-//W3C//DTD SVG 1.0//EN" "http://www.w3.org/TR/2001/REC-SVG-20010904/DTD/svg10.dtd">
<!-- Creator: CorelDRAW -->
<svg xmlns="http://www.w3.org/2000/svg" xml:space="preserve" width="1300px" height="1300px" version="1.0" style="shape-rendering:geometricPrecision; text-rendering:geometricPrecision; image-rendering:optimizeQuality; fill-rule:evenodd; clip-rule:evenodd"
viewBox="0 0 1300 1056"
 xmlns:xlink="http://www.w3.org/1999/xlink">
 <defs>
  <style type="text/css">
   <![CDATA[
    .fil0 {fill:black;fill-opacity:0.501961}
   ]]>
  </style>
 </defs>
 <g id="_100:master">
  <metadata id="CorelCorpID_0Corel-Layer"/>
  <g id="Regular-g.ghaf.fina.svg">
   <g>
    <path class="fil0" d="M1065 -52c-120,60 -223,118 -308,176l-26 -49c70,-45 174,-104 313,-177l21 50zm-850 534c0,-32 25,-91 73,-178l62 34c-36,68 -54,118 -54,150 0,60 78,90 236,90 251,0 377,-32 377,-97 0,-49 -64,-111 -194,-185l11 -108c140,-98 257,-162 352,-195l22 78c-97,35 -204,93 -320,173 140,83 232,162 277,236 22,35 42,58 59,67 18,9 37,14 58,14l0 82 -4 0c-39,0 -72,-10 -96,-30 -25,-19 -48,-48 -68,-87 -11,-19 -21,-34 -31,-42 0,116 -142,175 -425,175 -223,0 -335,-59 -335,-177z"/>
   </g>
  </g>
 </g>
</svg>
