<?xml version="1.0" encoding="UTF-8"?>
<!DOCTYPE svg PUBLIC "-//W3C//DTD SVG 1.0//EN" "http://www.w3.org/TR/2001/REC-SVG-20010904/DTD/svg10.dtd">
<!-- Creator: CorelDRAW -->
<svg xmlns="http://www.w3.org/2000/svg" xml:space="preserve" width="1300px" height="1300px" version="1.0" style="shape-rendering:geometricPrecision; text-rendering:geometricPrecision; image-rendering:optimizeQuality; fill-rule:evenodd; clip-rule:evenodd"
viewBox="0 0 1300 1056"
 xmlns:xlink="http://www.w3.org/1999/xlink">
 <defs>
  <style type="text/css">
   <![CDATA[
    .fil0 {fill:black;fill-opacity:0.501961}
   ]]>
  </style>
 </defs>
 <g id="_100:master">
  <metadata id="CorelCorpID_0Corel-Layer"/>
  <g id="Regular-g.ghaf.isol.svg">
   <g>
    <path class="fil0" d="M1138 -60c-120,59 -223,118 -309,175l-25 -48c70,-45 174,-104 312,-177l22 50zm-90 536c0,116 -146,174 -438,174 -214,0 -322,-59 -322,-177 0,-31 24,-90 72,-177l63 33c-37,69 -55,119 -55,151 0,59 79,89 237,89 251,0 377,-32 377,-96 0,-50 -65,-111 -194,-185l11 -109c139,-97 257,-162 352,-194l22 77c-97,36 -204,93 -321,174 131,77 196,157 196,240l0 0z"/>
   </g>
  </g>
 </g>
</svg>
