<?xml version="1.0" encoding="UTF-8"?>
<!DOCTYPE svg PUBLIC "-//W3C//DTD SVG 1.0//EN" "http://www.w3.org/TR/2001/REC-SVG-20010904/DTD/svg10.dtd">
<!-- Creator: CorelDRAW -->
<svg xmlns="http://www.w3.org/2000/svg" xml:space="preserve" width="1300px" height="1300px" version="1.0" style="shape-rendering:geometricPrecision; text-rendering:geometricPrecision; image-rendering:optimizeQuality; fill-rule:evenodd; clip-rule:evenodd"
viewBox="0 0 1300 1056"
 xmlns:xlink="http://www.w3.org/1999/xlink">
 <defs>
  <style type="text/css">
   <![CDATA[
    .fil0 {fill:black;fill-opacity:0.501961}
   ]]>
  </style>
 </defs>
 <g id="_100:master">
  <metadata id="CorelCorpID_0Corel-Layer"/>
  <g id="Regular-g.ghaf.init.svg">
   <g>
    <path class="fil0" d="M1067 -42c-120,59 -222,118 -308,175l-25 -48c69,-46 174,-104 312,-177l21 50zm-408 694l0 -81 43 0c46,0 86,-4 119,-11 61,-13 91,-35 91,-65 0,-46 -32,-90 -96,-132 -30,-20 -63,-39 -97,-57l10 -108c140,-97 257,-162 352,-194l22 77c-97,35 -203,93 -320,174 94,54 153,107 178,161 11,25 17,52 17,80 0,28 -8,53 -24,74 -17,20 -38,36 -65,48 -53,22 -115,34 -187,34l-43 0z"/>
   </g>
  </g>
 </g>
</svg>
