<?xml version="1.0" encoding="UTF-8"?>
<!DOCTYPE svg PUBLIC "-//W3C//DTD SVG 1.0//EN" "http://www.w3.org/TR/2001/REC-SVG-20010904/DTD/svg10.dtd">
<!-- Creator: CorelDRAW -->
<svg xmlns="http://www.w3.org/2000/svg" xml:space="preserve" width="1300px" height="1300px" version="1.0" style="shape-rendering:geometricPrecision; text-rendering:geometricPrecision; image-rendering:optimizeQuality; fill-rule:evenodd; clip-rule:evenodd"
viewBox="0 0 1300 1056"
 xmlns:xlink="http://www.w3.org/1999/xlink">
 <defs>
  <style type="text/css">
   <![CDATA[
    .fil0 {fill:red;fill-opacity:0.501961}
   ]]>
  </style>
 </defs>
 <g id="_100:master">
  <metadata id="CorelCorpID_0Corel-Layer"/>
  <path class="fil0" d="M879 406c6,139 46,163 92,163l39 0 0 81 -38 0c-135,0 -144,-65 -144,-235l30 -6c-197,30 -304,154 -306,257 -2,112 128,196 405,112l29 73c-347,123 -518,-20 -515,-185 2,-118 93,-249 275,-310 -97,-40 -161,-87 -190,-53l-40 48 -48 -41 58 -74c78,-101 215,80 439,86l10 0 0 0 0 0 -9 81c-7,0 -14,0 -22,-1 -22,1 -44,2 -65,4z"/>
 </g>
</svg>
