<?xml version="1.0" encoding="UTF-8"?>
<!DOCTYPE svg PUBLIC "-//W3C//DTD SVG 1.0//EN" "http://www.w3.org/TR/2001/REC-SVG-20010904/DTD/svg10.dtd">
<!-- Creator: CorelDRAW -->
<svg xmlns="http://www.w3.org/2000/svg" xml:space="preserve" width="1300px" height="1300px" version="1.0" style="shape-rendering:geometricPrecision; text-rendering:geometricPrecision; image-rendering:optimizeQuality; fill-rule:evenodd; clip-rule:evenodd"
viewBox="0 0 1300 1056"
 xmlns:xlink="http://www.w3.org/1999/xlink">
 <defs>
  <style type="text/css">
   <![CDATA[
    .fil0 {fill:red;fill-opacity:0.501961}
   ]]>
  </style>
 </defs>
 <g id="_100:master">
  <metadata id="CorelCorpID_0Corel-Layer"/>
  <path class="fil0" d="M880 504c13,51 46,65 91,65l39 0 0 81 -38 0c-99,0 -139,-50 -144,-137l30 -6c-197,29 -304,153 -306,256 -2,112 128,197 405,112l29 73c-347,123 -518,-20 -515,-185 2,-118 93,-249 275,-310 -97,-40 -161,-87 -190,-52l-40 47 -48 -41 58 -74c78,-100 215,81 439,86l10 0 0 0 0 0 -9 81c-7,0 -14,0 -22,0 -22,0 -44,1 -64,4z"/>
 </g>
</svg>
