<?xml version="1.0" encoding="UTF-8"?>
<!DOCTYPE svg PUBLIC "-//W3C//DTD SVG 1.0//EN" "http://www.w3.org/TR/2001/REC-SVG-20010904/DTD/svg10.dtd">
<!-- Creator: CorelDRAW -->
<svg xmlns="http://www.w3.org/2000/svg" xml:space="preserve" width="1300px" height="1300px" version="1.0" style="shape-rendering:geometricPrecision; text-rendering:geometricPrecision; image-rendering:optimizeQuality; fill-rule:evenodd; clip-rule:evenodd"
viewBox="0 0 1300 1056"
 xmlns:xlink="http://www.w3.org/1999/xlink">
 <defs>
  <style type="text/css">
   <![CDATA[
    .fil0 {fill:#996633;fill-opacity:0.501961}
   ]]>
  </style>
 </defs>
 <g id="_100:master">
  <metadata id="CorelCorpID_0Corel-Layer"/>
  <path class="fil0" d="M524 398l-27 39 -36 -34 54 -79c81,-118 214,99 380,96l60 0c7,-1 13,-1 20,-1l-9 81c-205,0 -240,150 -403,150l-142 0 0 0c-20,0 -41,-20 -41,-41 0,-21 20,-40 40,-40l0 0 1 0 0 0 115 0c122,0 156,-54 223,-97 -104,-48 -190,-137 -235,-74z"/>
 </g>
</svg>
