<?xml version="1.0" encoding="UTF-8"?>
<!DOCTYPE svg PUBLIC "-//W3C//DTD SVG 1.0//EN" "http://www.w3.org/TR/2001/REC-SVG-20010904/DTD/svg10.dtd">
<!-- Creator: CorelDRAW -->
<svg xmlns="http://www.w3.org/2000/svg" xml:space="preserve" width="1300px" height="1300px" version="1.0" style="shape-rendering:geometricPrecision; text-rendering:geometricPrecision; image-rendering:optimizeQuality; fill-rule:evenodd; clip-rule:evenodd"
viewBox="0 0 1300 1056"
 xmlns:xlink="http://www.w3.org/1999/xlink">
 <defs>
  <style type="text/css">
   <![CDATA[
    .fil0 {fill:black;fill-opacity:0.501961}
   ]]>
  </style>
 </defs>
 <g id="_100:master">
  <metadata id="CorelCorpID_0Corel-Layer"/>
  <path class="fil0" d="M483 650l0 -81 60 0c50,0 170,7 214,-88 30,-64 12,-114 -22,-116 -111,-8 -123,339 57,403 -27,-68 -16,-200 100,-199l83 0 0 81 -72 0c-78,0 -65,100 -49,146l-21 76c-338,-76 -307,-598 -84,-593 99,2 112,159 72,236 -90,170 -227,135 -288,135l-50 0 0 -81c-21,0 -41,19 -41,40 0,21 20,41 41,41z"/>
 </g>
</svg>
