<?xml version="1.0" encoding="UTF-8"?>
<!DOCTYPE svg PUBLIC "-//W3C//DTD SVG 1.0//EN" "http://www.w3.org/TR/2001/REC-SVG-20010904/DTD/svg10.dtd">
<!-- Creator: CorelDRAW -->
<svg xmlns="http://www.w3.org/2000/svg" xml:space="preserve" width="1300px" height="1300px" version="1.0" style="shape-rendering:geometricPrecision; text-rendering:geometricPrecision; image-rendering:optimizeQuality; fill-rule:evenodd; clip-rule:evenodd"
viewBox="0 0 1300 1056"
 xmlns:xlink="http://www.w3.org/1999/xlink">
 <defs>
  <style type="text/css">
   <![CDATA[
    .fil0 {fill:black;fill-opacity:0.501961}
   ]]>
  </style>
 </defs>
 <g id="_100:master">
  <metadata id="CorelCorpID_0Corel-Layer"/>
  <path class="fil0" d="M483 650l0 0c-20,-1 -41,-20 -40,-41 0,-21 20,-40 40,-40l0 0 95 0c117,0 133,-23 182,-60 46,-35 -14,-79 -53,-115 -82,-77 -95,310 85,374 -27,-68 -16,-200 100,-199l83 0 0 81 -72 0c-78,0 -65,100 -49,146l-21 76c-338,-76 -290,-698 -108,-569 129,91 139,179 103,231 -79,112 -181,116 -243,116l-102 0 0 0z"/>
 </g>
</svg>
