<?xml version="1.0" encoding="UTF-8"?>
<!DOCTYPE svg PUBLIC "-//W3C//DTD SVG 1.0//EN" "http://www.w3.org/TR/2001/REC-SVG-20010904/DTD/svg10.dtd">
<!-- Creator: CorelDRAW -->
<svg xmlns="http://www.w3.org/2000/svg" xml:space="preserve" width="1300px" height="1300px" version="1.0" style="shape-rendering:geometricPrecision; text-rendering:geometricPrecision; image-rendering:optimizeQuality; fill-rule:evenodd; clip-rule:evenodd"
viewBox="0 0 1300 1056"
 xmlns:xlink="http://www.w3.org/1999/xlink">
 <defs>
  <style type="text/css">
   <![CDATA[
    .fil0 {fill:black;fill-opacity:0.501961}
   ]]>
  </style>
 </defs>
 <g id="_100:master">
  <metadata id="CorelCorpID_0Corel-Layer"/>
  <path class="fil0" d="M966 500l-39 4c7,12 13,22 18,29 6,9 16,17 30,25 14,7 31,11 52,11l0 81c-48,0 -85,-12 -110,-35 -26,-24 -44,-58 -57,-102l0 -1 -117 40c-46,16 -87,41 -122,76 -35,35 -52,72 -52,113 0,126 87,178 209,178 65,0 139,-14 220,-44l29 73c-92,36 -179,53 -259,53 -80,0 -147,-22 -200,-67 -54,-44 -81,-107 -81,-187 0,-101 63,-181 154,-235 44,-26 65,-34 105,-47 -2,-2 -5,-3 -8,-5l-128 -76c-21,-13 -46,-22 -61,-4l-56 61 -41 -39 54 -79c15,-23 35,-35 59,-35 24,0 50,8 78,25l138 81c48,28 126,25 194,25l-9 81z"/>
 </g>
</svg>
