<?xml version="1.0" encoding="UTF-8"?>
<!DOCTYPE svg PUBLIC "-//W3C//DTD SVG 1.0//EN" "http://www.w3.org/TR/2001/REC-SVG-20010904/DTD/svg10.dtd">
<!-- Creator: CorelDRAW -->
<svg xmlns="http://www.w3.org/2000/svg" xml:space="preserve" width="1300px" height="1300px" version="1.0" style="shape-rendering:geometricPrecision; text-rendering:geometricPrecision; image-rendering:optimizeQuality; fill-rule:evenodd; clip-rule:evenodd"
viewBox="0 0 1300 1056"
 xmlns:xlink="http://www.w3.org/1999/xlink">
 <defs>
  <style type="text/css">
   <![CDATA[
    .fil0 {fill:black;fill-opacity:0.501961}
   ]]>
  </style>
 </defs>
 <g id="_100:master">
  <metadata id="CorelCorpID_0Corel-Layer"/>
  <g id="Regular-g.he8.isol.svg">
   <g>
    <path class="fil0" d="M632 324c50,22 98,53 145,95 24,23 44,48 60,77 15,28 22,57 22,88 0,30 -19,59 -59,89 -40,29 -83,43 -127,43 -45,0 -83,-13 -116,-38 -33,-26 -50,-59 -50,-101 0,-29 8,-61 22,-94 14,-34 28,-60 42,-79 14,-20 27,-37 40,-53 12,-15 20,-24 21,-27l0 0zm-51 253c0,18 10,32 31,42 20,10 42,15 64,15 23,0 46,-5 68,-14 22,-10 34,-23 34,-39 0,-31 -14,-63 -43,-97 -28,-34 -56,-60 -85,-78 -46,62 -69,119 -69,171l0 0z"/>
   </g>
  </g>
 </g>
</svg>
