<?xml version="1.0" encoding="UTF-8"?>
<!DOCTYPE svg PUBLIC "-//W3C//DTD SVG 1.0//EN" "http://www.w3.org/TR/2001/REC-SVG-20010904/DTD/svg10.dtd">
<!-- Creator: CorelDRAW -->
<svg xmlns="http://www.w3.org/2000/svg" xml:space="preserve" width="1300px" height="1300px" version="1.0" style="shape-rendering:geometricPrecision; text-rendering:geometricPrecision; image-rendering:optimizeQuality; fill-rule:evenodd; clip-rule:evenodd"
viewBox="0 0 1300 1056"
 xmlns:xlink="http://www.w3.org/1999/xlink">
 <defs>
  <style type="text/css">
   <![CDATA[
    .fil0 {fill:#996633;fill-opacity:0.501961}
   ]]>
  </style>
 </defs>
 <g id="_100:master">
  <metadata id="CorelCorpID_0Corel-Layer"/>
  <path class="fil0" d="M764 469c-6,-2 -12,-5 -17,-8l-128 -76c-21,-13 -45,-22 -61,-4l-56 61 -41 -39 54 -79c16,-23 35,-35 59,-35 24,0 50,8 78,25l138 81c47,27 119,24 185,24l-9 81c-205,0 -240,150 -403,150l-142 0 0 0c-20,0 -41,-20 -41,-41 0,-21 20,-40 40,-40l0 0 1 0 0 0 115 0c125,0 157,-56 228,-100z"/>
 </g>
</svg>
