<?xml version="1.0" encoding="UTF-8"?>
<!DOCTYPE svg PUBLIC "-//W3C//DTD SVG 1.0//EN" "http://www.w3.org/TR/2001/REC-SVG-20010904/DTD/svg10.dtd">
<!-- Creator: CorelDRAW -->
<svg xmlns="http://www.w3.org/2000/svg" xml:space="preserve" width="1300px" height="1300px" version="1.0" style="shape-rendering:geometricPrecision; text-rendering:geometricPrecision; image-rendering:optimizeQuality; fill-rule:evenodd; clip-rule:evenodd"
viewBox="0 0 1300 1056"
 xmlns:xlink="http://www.w3.org/1999/xlink">
 <defs>
  <style type="text/css">
   <![CDATA[
    .fil0 {fill:#999933;fill-opacity:0.501961}
   ]]>
  </style>
 </defs>
 <g id="_100:master">
  <metadata id="CorelCorpID_0Corel-Layer"/>
  <path class="fil0" d="M975 419l0 0 0 0 -9 81c-7,0 -14,0 -21,0 -23,0 -45,1 -65,4 13,51 46,65 91,65l39 0 0 81 -38 0c-99,0 -139,-50 -144,-137l29 -6c-407,63 -405,536 141,368l29 73c-596,204 -711,-348 -280,-494 -98,-41 -162,-88 -191,-53l-40 47 -48 -41 58 -74c78,-101 217,82 442,86 2,0 5,0 7,0z"/>
 </g>
</svg>
