<?xml version="1.0" encoding="UTF-8"?>
<!DOCTYPE svg PUBLIC "-//W3C//DTD SVG 1.0//EN" "http://www.w3.org/TR/2001/REC-SVG-20010904/DTD/svg10.dtd">
<!-- Creator: CorelDRAW -->
<svg xmlns="http://www.w3.org/2000/svg" xml:space="preserve" width="1300px" height="1300px" version="1.0" style="shape-rendering:geometricPrecision; text-rendering:geometricPrecision; image-rendering:optimizeQuality; fill-rule:evenodd; clip-rule:evenodd"
viewBox="0 0 1300 1056"
 xmlns:xlink="http://www.w3.org/1999/xlink">
 <defs>
  <style type="text/css">
   <![CDATA[
    .fil0 {fill:#999933;fill-opacity:0.501961}
   ]]>
  </style>
 </defs>
 <g id="_100:master">
  <metadata id="CorelCorpID_0Corel-Layer"/>
  <path class="fil0" d="M975 419l0 0 0 0 -9 81 -72 3c-4,0 -8,0 -12,0 -212,23 -327,153 -330,260 -2,112 128,197 405,112l29 73c-347,123 -518,-20 -515,-185 2,-117 92,-248 272,-309 -83,-44 -158,-95 -207,-32l-20 26 -48 -41 34 -49c100,-141 252,66 418,62l9 0c15,0 30,-1 46,-1z"/>
 </g>
</svg>
