<?xml version="1.0" encoding="UTF-8"?>
<!DOCTYPE svg PUBLIC "-//W3C//DTD SVG 1.0//EN" "http://www.w3.org/TR/2001/REC-SVG-20010904/DTD/svg10.dtd">
<!-- Creator: CorelDRAW -->
<svg xmlns="http://www.w3.org/2000/svg" xml:space="preserve" width="1300px" height="1300px" version="1.0" style="shape-rendering:geometricPrecision; text-rendering:geometricPrecision; image-rendering:optimizeQuality; fill-rule:evenodd; clip-rule:evenodd"
viewBox="0 0 1300 1056"
 xmlns:xlink="http://www.w3.org/1999/xlink">
 <defs>
  <style type="text/css">
   <![CDATA[
    .fil0 {fill:black;fill-opacity:0.501961}
   ]]>
  </style>
 </defs>
 <g id="_100:master">
  <metadata id="CorelCorpID_0Corel-Layer"/>
  <path class="fil0" d="M915 810l-21 76c-209,-46 -293,-305 -285,-467 20,-403 517,231 -24,231l-102 0 0 0 0 0c-20,-1 -41,-20 -40,-41 0,-21 20,-40 40,-40l0 0 95 0c364,-1 87,-295 90,-127 2,77 39,215 114,292 -29,-83 5,-166 110,-165l83 0 0 81 -72 0c-78,0 -44,107 12,160z"/>
 </g>
</svg>
