<?xml version="1.0" encoding="UTF-8"?>
<!DOCTYPE svg PUBLIC "-//W3C//DTD SVG 1.0//EN" "http://www.w3.org/TR/2001/REC-SVG-20010904/DTD/svg10.dtd">
<!-- Creator: CorelDRAW -->
<svg xmlns="http://www.w3.org/2000/svg" xml:space="preserve" width="1300px" height="1300px" version="1.0" style="shape-rendering:geometricPrecision; text-rendering:geometricPrecision; image-rendering:optimizeQuality; fill-rule:evenodd; clip-rule:evenodd"
viewBox="0 0 1300 1056"
 xmlns:xlink="http://www.w3.org/1999/xlink">
 <defs>
  <style type="text/css">
   <![CDATA[
    .fil0 {fill:#999933;fill-opacity:0.501961}
   ]]>
  </style>
 </defs>
 <g id="_100:master">
  <metadata id="CorelCorpID_0Corel-Layer"/>
  <path class="fil0" d="M975 419l0 0 0 0 -9 81 -43 0c-15,1 -29,2 -43,4 13,51 46,65 91,65l39 0 0 81 -38 0c-99,0 -139,-50 -144,-137l29 -6c-407,63 -405,536 141,368l29 73c-589,202 -708,-336 -295,-489 -89,-49 -162,-116 -203,-59l-27 38 -41 -35 54 -79c81,-118 214,99 380,96l45 0c12,-1 23,-1 35,-1z"/>
 </g>
</svg>
