<?xml version="1.0" encoding="UTF-8"?>
<!DOCTYPE svg PUBLIC "-//W3C//DTD SVG 1.0//EN" "http://www.w3.org/TR/2001/REC-SVG-20010904/DTD/svg10.dtd">
<!-- Creator: CorelDRAW -->
<svg xmlns="http://www.w3.org/2000/svg" xml:space="preserve" width="1300px" height="1300px" version="1.0" style="shape-rendering:geometricPrecision; text-rendering:geometricPrecision; image-rendering:optimizeQuality; fill-rule:evenodd; clip-rule:evenodd"
viewBox="0 0 1300 1056"
 xmlns:xlink="http://www.w3.org/1999/xlink">
 <defs>
  <style type="text/css">
   <![CDATA[
    .fil0 {fill:black;fill-opacity:0.501961}
   ]]>
  </style>
 </defs>
 <g id="_100:master">
  <metadata id="CorelCorpID_0Corel-Layer"/>
  <path class="fil0" d="M975 419l-9 81c-205,0 -240,150 -403,150l-142 0 0 0c-20,0 -41,-20 -41,-41 0,-21 20,-40 40,-40l0 0 1 0 0 0 115 0c120,0 155,-52 220,-95 -101,-44 -182,-120 -227,-58l-27 38 -41 -35 54 -79c81,-118 214,83 380,80l60 0c7,-1 13,-1 20,-1z"/>
 </g>
</svg>
