<?xml version="1.0" encoding="UTF-8"?>
<!DOCTYPE svg PUBLIC "-//W3C//DTD SVG 1.0//EN" "http://www.w3.org/TR/2001/REC-SVG-20010904/DTD/svg10.dtd">
<!-- Creator: CorelDRAW -->
<svg xmlns="http://www.w3.org/2000/svg" xml:space="preserve" width="1300px" height="1300px" version="1.0" style="shape-rendering:geometricPrecision; text-rendering:geometricPrecision; image-rendering:optimizeQuality; fill-rule:evenodd; clip-rule:evenodd"
viewBox="0 0 1300 1056"
 xmlns:xlink="http://www.w3.org/1999/xlink">
 <defs>
  <style type="text/css">
   <![CDATA[
    .fil0 {fill:black;fill-opacity:0.501961}
   ]]>
  </style>
 </defs>
 <g id="_100:master">
  <metadata id="CorelCorpID_0Corel-Layer"/>
  <path class="fil0" d="M789 481c-15,-6 -29,-13 -43,-20l-127 -76c-16,-9 -29,-14 -39,-14 -9,0 -17,3 -23,10l-55 61 -42 -39 54 -79c16,-23 35,-35 59,-35 24,0 50,8 78,25l138 81c29,16 73,24 133,24l52 0 -9 81 -33 0c-4,0 -9,1 -13,2 7,14 14,24 18,31 6,9 16,17 30,25 14,7 32,11 52,11l0 81c-48,0 -85,-12 -110,-35 -22,-21 -39,-49 -51,-85 -11,7 -22,14 -34,23 -21,15 -42,30 -65,44 -54,35 -111,53 -172,53l-212 0 0 -81 212 0c65,0 133,-29 202,-88z"/>
 </g>
</svg>
