<?xml version="1.0" encoding="UTF-8"?>
<!DOCTYPE svg PUBLIC "-//W3C//DTD SVG 1.0//EN" "http://www.w3.org/TR/2001/REC-SVG-20010904/DTD/svg10.dtd">
<!-- Creator: CorelDRAW -->
<svg xmlns="http://www.w3.org/2000/svg" xml:space="preserve" width="1300px" height="1300px" version="1.0" style="shape-rendering:geometricPrecision; text-rendering:geometricPrecision; image-rendering:optimizeQuality; fill-rule:evenodd; clip-rule:evenodd"
viewBox="0 0 1300 1056"
 xmlns:xlink="http://www.w3.org/1999/xlink">
 <defs>
  <style type="text/css">
   <![CDATA[
    .fil0 {fill:red;fill-opacity:0.501961}
   ]]>
  </style>
 </defs>
 <g id="_100:master">
  <metadata id="CorelCorpID_0Corel-Layer"/>
  <path class="fil0" d="M882 510c14,46 46,59 89,59l39 0 0 81 -38 0c-93,0 -134,-44 -143,-122 -97,43 -148,122 -266,122l-142 0 0 0c-20,0 -41,-20 -41,-41 0,-21 20,-40 40,-40l0 0 1 0 0 0 115 0c109,0 160,-53 233,-96 -97,-43 -188,-108 -233,-51l-20 26 -48 -41 47 -67c82,-116 239,84 405,80l32 0c8,-1 15,-1 23,-1l-9 81 -32 2c-19,1 -36,4 -52,8z"/>
 </g>
</svg>
