<?xml version="1.0" encoding="UTF-8"?>
<!DOCTYPE svg PUBLIC "-//W3C//DTD SVG 1.0//EN" "http://www.w3.org/TR/2001/REC-SVG-20010904/DTD/svg10.dtd">
<!-- Creator: CorelDRAW -->
<svg xmlns="http://www.w3.org/2000/svg" xml:space="preserve" width="1300px" height="1300px" version="1.0" style="shape-rendering:geometricPrecision; text-rendering:geometricPrecision; image-rendering:optimizeQuality; fill-rule:evenodd; clip-rule:evenodd"
viewBox="0 0 1300 1056"
 xmlns:xlink="http://www.w3.org/1999/xlink">
 <defs>
  <style type="text/css">
   <![CDATA[
    .fil0 {fill:black;fill-opacity:0.501961}
   ]]>
  </style>
 </defs>
 <g id="_100:master">
  <metadata id="CorelCorpID_0Corel-Layer"/>
  <g id="Regular-g.he8.fina.svg">
   <g>
    <path class="fil0" d="M975 650c-45,0 -78,-4 -97,-13 -34,-16 -58,-46 -73,-88l-11 54c-104,-4 -172,-16 -205,-36 -32,-20 -49,-47 -49,-82 0,-47 18,-90 55,-127 36,-38 84,-68 145,-89l-15 -62 64 -18 72 309c9,45 35,68 77,70 8,1 21,1 37,1l0 81 0 0zm-217 -302c-71,24 -118,56 -140,96 -8,13 -12,27 -12,41 0,12 21,21 62,28 22,3 65,6 129,9l-39 -174z"/>
   </g>
  </g>
 </g>
</svg>
