<?xml version="1.0" encoding="UTF-8"?>
<!DOCTYPE svg PUBLIC "-//W3C//DTD SVG 1.0//EN" "http://www.w3.org/TR/2001/REC-SVG-20010904/DTD/svg10.dtd">
<!-- Creator: CorelDRAW -->
<svg xmlns="http://www.w3.org/2000/svg" xml:space="preserve" width="1300px" height="1300px" version="1.0" style="shape-rendering:geometricPrecision; text-rendering:geometricPrecision; image-rendering:optimizeQuality; fill-rule:evenodd; clip-rule:evenodd"
viewBox="0 0 1300 1056"
 xmlns:xlink="http://www.w3.org/1999/xlink">
 <defs>
  <style type="text/css">
   <![CDATA[
    .fil0 {fill:#999933;fill-opacity:0.501961}
   ]]>
  </style>
 </defs>
 <g id="_100:master">
  <metadata id="CorelCorpID_0Corel-Layer"/>
  <path class="fil0" d="M966 499l-71 0 -151 53c-47,16 -87,41 -122,76 -35,34 -53,72 -53,112 0,126 87,179 209,179 66,0 139,-15 220,-44l29 73c-92,35 -178,53 -258,53 -81,0 -147,-22 -201,-67 -54,-45 -81,-107 -81,-187 0,-101 63,-181 154,-235 44,-26 66,-34 105,-47 -2,-2 -5,-4 -8,-5l-127 -76c-22,-13 -46,-22 -62,-4l-55 61 -42 -39 54 -79c16,-23 35,-35 59,-35 24,0 50,8 78,25l138 81c49,28 126,24 194,24l-9 81z"/>
 </g>
</svg>
