<?xml version="1.0" encoding="UTF-8"?>
<!DOCTYPE svg PUBLIC "-//W3C//DTD SVG 1.0//EN" "http://www.w3.org/TR/2001/REC-SVG-20010904/DTD/svg10.dtd">
<!-- Creator: CorelDRAW -->
<svg xmlns="http://www.w3.org/2000/svg" xml:space="preserve" width="1300px" height="1300px" version="1.0" style="shape-rendering:geometricPrecision; text-rendering:geometricPrecision; image-rendering:optimizeQuality; fill-rule:evenodd; clip-rule:evenodd"
viewBox="0 0 1300 1056"
 xmlns:xlink="http://www.w3.org/1999/xlink">
 <defs>
  <style type="text/css">
   <![CDATA[
    .fil0 {fill:black;fill-opacity:0.501961}
   ]]>
  </style>
 </defs>
 <g id="_100:master">
  <metadata id="CorelCorpID_0Corel-Layer"/>
  <path class="fil0" d="M833 872c-124,-43 -203,-117 -237,-222l-114 0 0 -81 100 0c0,-199 36,-299 108,-299 85,0 141,68 169,203 14,77 -55,130 -187,164 15,61 52,102 111,123 0,-127 64,-191 192,-191l0 81c-83,0 -124,36 -124,109 0,11 1,24 3,37l-21 76zm-177 -312c94,-18 149,-45 137,-86 -26,-81 -58,-122 -97,-122 -27,0 -40,69 -40,208l0 0z"/>
 </g>
</svg>
