<?xml version="1.0" encoding="UTF-8"?>
<!DOCTYPE svg PUBLIC "-//W3C//DTD SVG 1.0//EN" "http://www.w3.org/TR/2001/REC-SVG-20010904/DTD/svg10.dtd">
<!-- Creator: CorelDRAW -->
<svg xmlns="http://www.w3.org/2000/svg" xml:space="preserve" width="1300px" height="1300px" version="1.0" style="shape-rendering:geometricPrecision; text-rendering:geometricPrecision; image-rendering:optimizeQuality; fill-rule:evenodd; clip-rule:evenodd"
viewBox="0 0 1300 1056"
 xmlns:xlink="http://www.w3.org/1999/xlink">
 <defs>
  <style type="text/css">
   <![CDATA[
    .fil0 {fill:black;fill-opacity:0.501961}
   ]]>
  </style>
 </defs>
 <g id="_100:master">
  <metadata id="CorelCorpID_0Corel-Layer"/>
  <g id="Regular-g.kaf.fina.fa.svg">
   <g>
    <path class="fil0" d="M214 490c0,-32 24,-91 72,-178l62 34c-36,68 -54,119 -54,150 0,60 79,90 236,90 252,0 377,-32 377,-97 0,-49 -64,-111 -194,-185l11 -108c140,-97 257,-162 352,-194l22 77c-97,35 -204,93 -320,173 140,83 232,162 277,236 22,36 42,58 59,67 18,10 37,14 58,14l0 82 -3 0c-40,0 -73,-10 -97,-29 -25,-20 -48,-49 -68,-88 -11,-19 -21,-33 -31,-42 0,117 -142,175 -425,175 -223,0 -334,-59 -334,-177z"/>
   </g>
  </g>
 </g>
</svg>
