<?xml version="1.0" encoding="UTF-8"?>
<!DOCTYPE svg PUBLIC "-//W3C//DTD SVG 1.0//EN" "http://www.w3.org/TR/2001/REC-SVG-20010904/DTD/svg10.dtd">
<!-- Creator: CorelDRAW -->
<svg xmlns="http://www.w3.org/2000/svg" xml:space="preserve" width="1300px" height="1300px" version="1.0" style="shape-rendering:geometricPrecision; text-rendering:geometricPrecision; image-rendering:optimizeQuality; fill-rule:evenodd; clip-rule:evenodd"
viewBox="0 0 1300 1056"
 xmlns:xlink="http://www.w3.org/1999/xlink">
 <defs>
  <style type="text/css">
   <![CDATA[
    .fil0 {fill:black;fill-opacity:0.501961}
   ]]>
  </style>
 </defs>
 <g id="_100:master">
  <metadata id="CorelCorpID_0Corel-Layer"/>
  <path class="fil0" d="M654 650l0 0c-20,0 -40,-20 -40,-41 0,-21 20,-40 41,-40l0 0 42 0c47,0 86,-3 119,-10 61,-13 92,-35 92,-66 0,-45 -32,-89 -96,-132 -31,-20 -63,-38 -98,-56l11 -108c139,-98 257,-162 352,-195l22 78c-97,35 -204,93 -321,173 94,54 153,108 178,161 12,25 18,52 18,80 0,28 -9,53 -25,74 -16,21 -38,37 -65,49 -52,22 -115,33 -187,33l-43 0z"/>
 </g>
</svg>
