<?xml version="1.0" encoding="UTF-8"?>
<!DOCTYPE svg PUBLIC "-//W3C//DTD SVG 1.0//EN" "http://www.w3.org/TR/2001/REC-SVG-20010904/DTD/svg10.dtd">
<!-- Creator: CorelDRAW -->
<svg xmlns="http://www.w3.org/2000/svg" xml:space="preserve" width="1300px" height="1300px" version="1.0" style="shape-rendering:geometricPrecision; text-rendering:geometricPrecision; image-rendering:optimizeQuality; fill-rule:evenodd; clip-rule:evenodd"
viewBox="0 0 1300 1056"
 xmlns:xlink="http://www.w3.org/1999/xlink">
 <defs>
  <style type="text/css">
   <![CDATA[
    .fil0 {fill:black;fill-opacity:0.501961}
   ]]>
  </style>
 </defs>
 <g id="_100:master">
  <metadata id="CorelCorpID_0Corel-Layer"/>
  <g id="Regular-g.mim.init.svg">
   <g>
    <path class="fil0" d="M886 589c15,0 22,-11 22,-34 0,-22 -5,-44 -17,-64 -12,-20 -26,-30 -43,-30 -16,0 -32,10 -49,28 -5,6 -12,15 -21,27 -9,12 -14,18 -16,20 33,35 74,53 124,53l0 0zm89 -36c0,78 -30,117 -90,117 -61,0 -117,-26 -169,-78 -44,38 -94,58 -150,58l-29 0 0 -81 29 0c55,0 99,-22 131,-67 2,-2 7,-9 15,-20 8,-11 14,-19 17,-24 4,-5 10,-12 18,-22 9,-10 16,-17 22,-22 7,-6 14,-12 23,-18 16,-11 34,-16 53,-16l3 0c34,0 64,18 89,55 26,38 38,77 38,118l0 0z"/>
   </g>
  </g>
 </g>
</svg>
