<?xml version="1.0" encoding="UTF-8"?>
<!DOCTYPE svg PUBLIC "-//W3C//DTD SVG 1.0//EN" "http://www.w3.org/TR/2001/REC-SVG-20010904/DTD/svg10.dtd">
<!-- Creator: CorelDRAW -->
<svg xmlns="http://www.w3.org/2000/svg" xml:space="preserve" width="1300px" height="1300px" version="1.0" style="shape-rendering:geometricPrecision; text-rendering:geometricPrecision; image-rendering:optimizeQuality; fill-rule:evenodd; clip-rule:evenodd"
viewBox="0 0 1300 1056"
 xmlns:xlink="http://www.w3.org/1999/xlink">
 <defs>
  <style type="text/css">
   <![CDATA[
    .fil0 {fill:black;fill-opacity:0.501961}
   ]]>
  </style>
 </defs>
 <g id="_100:master">
  <metadata id="CorelCorpID_0Corel-Layer"/>
  <g id="Regular-g.nun.fina.svg">
   <g>
    <path class="fil0" d="M531 509c-45,74 -68,132 -68,174 0,59 47,89 141,89 75,0 140,-9 194,-28 63,-23 95,-55 95,-96 0,-41 -27,-106 -80,-194l68 -40c27,44 49,83 65,119 3,4 6,8 9,10 18,17 48,26 91,26l0 82c-26,0 -50,-3 -71,-7l0 1c0,77 -44,133 -132,169 -65,27 -145,40 -239,40 -148,0 -221,-56 -221,-168 0,-59 28,-132 86,-220l62 43zm133 -212l68 67 -68 66 -67 -66 67 -67z"/>
   </g>
  </g>
 </g>
</svg>
