<?xml version="1.0" encoding="UTF-8"?>
<!DOCTYPE svg PUBLIC "-//W3C//DTD SVG 1.0//EN" "http://www.w3.org/TR/2001/REC-SVG-20010904/DTD/svg10.dtd">
<!-- Creator: CorelDRAW -->
<svg xmlns="http://www.w3.org/2000/svg" xml:space="preserve" width="1300px" height="1300px" version="1.0" style="shape-rendering:geometricPrecision; text-rendering:geometricPrecision; image-rendering:optimizeQuality; fill-rule:evenodd; clip-rule:evenodd"
viewBox="0 0 1300 1056"
 xmlns:xlink="http://www.w3.org/1999/xlink">
 <defs>
  <style type="text/css">
   <![CDATA[
    .fil0 {fill:black;fill-opacity:0.501961}
   ]]>
  </style>
 </defs>
 <g id="_100:master">
  <metadata id="CorelCorpID_0Corel-Layer"/>
  <path class="fil0" d="M659 569c83,0 148,-15 196,-46 26,-17 39,-37 39,-60 0,-24 -7,-42 -20,-55 -14,-14 -31,-20 -50,-20 -57,0 -135,60 -233,181l68 0zm-142 81c-52,0 -92,-18 -117,-54 -26,36 -62,54 -108,54l-89 0 0 -81 89 0c36,0 69,-37 69,-70l0 -64 84 0 0 67c0,38 20,67 59,67 94,-125 170,-204 231,-238 32,-18 59,-25 89,-25 92,0 152,51 152,144 0,45 -16,83 -47,114 -59,57 -149,86 -270,86l-142 0z"/>
 </g>
</svg>
