<?xml version="1.0" encoding="UTF-8"?>
<!DOCTYPE svg PUBLIC "-//W3C//DTD SVG 1.0//EN" "http://www.w3.org/TR/2001/REC-SVG-20010904/DTD/svg10.dtd">
<!-- Creator: CorelDRAW -->
<svg xmlns="http://www.w3.org/2000/svg" xml:space="preserve" width="1300px" height="1300px" version="1.0" style="shape-rendering:geometricPrecision; text-rendering:geometricPrecision; image-rendering:optimizeQuality; fill-rule:evenodd; clip-rule:evenodd"
viewBox="0 0 1300 1056"
 xmlns:xlink="http://www.w3.org/1999/xlink">
 <defs>
  <style type="text/css">
   <![CDATA[
    .fil0 {fill:black;fill-opacity:0.501961}
   ]]>
  </style>
 </defs>
 <g id="_100:master">
  <metadata id="CorelCorpID_0Corel-Layer"/>
  <path class="fil0" d="M659 650l-262 0 0 -81 107 0 0 -553 83 -13 0 459c55,-65 103,-108 142,-131 29,-17 57,-25 83,-25l3 0c50,0 89,12 118,38 29,25 43,61 43,106 0,45 -16,83 -47,114 -59,57 -149,86 -270,86zm0 -81c55,0 106,-9 154,-27 24,-8 44,-21 59,-37 15,-15 22,-33 22,-53 0,-20 -7,-36 -20,-47 -14,-12 -31,-17 -50,-17 -57,0 -135,60 -233,181l68 0z"/>
 </g>
</svg>
