<?xml version="1.0" encoding="UTF-8"?>
<!DOCTYPE svg PUBLIC "-//W3C//DTD SVG 1.0//EN" "http://www.w3.org/TR/2001/REC-SVG-20010904/DTD/svg10.dtd">
<!-- Creator: CorelDRAW -->
<svg xmlns="http://www.w3.org/2000/svg" xml:space="preserve" width="1300px" height="1300px" version="1.0" style="shape-rendering:geometricPrecision; text-rendering:geometricPrecision; image-rendering:optimizeQuality; fill-rule:evenodd; clip-rule:evenodd"
viewBox="0 0 1300 1056"
 xmlns:xlink="http://www.w3.org/1999/xlink">
 <defs>
  <style type="text/css">
   <![CDATA[
    .fil0 {fill:black;fill-opacity:0.501961}
   ]]>
  </style>
 </defs>
 <g id="_100:master">
  <metadata id="CorelCorpID_0Corel-Layer"/>
  <g id="Regular-g.vav.fina.svg">
   <g>
    <path class="fil0" d="M897 558c-4,-29 -14,-59 -29,-92 -16,-33 -31,-50 -46,-50 -16,0 -28,13 -39,40 -10,27 -15,49 -15,68 0,11 13,19 39,25 27,6 48,9 63,9l27 0zm-203 -16c0,-23 6,-51 17,-82 11,-32 27,-61 47,-87 21,-26 42,-39 64,-39 32,0 62,18 90,55 40,50 61,109 63,176 30,3 53,5 69,5l14 0 0 81c-41,0 -70,-1 -88,-4 -20,97 -86,181 -199,254l-49 -64c51,-33 89,-63 114,-89 26,-26 46,-62 62,-109 -64,-3 -108,-8 -130,-14 -49,-14 -74,-42 -74,-83l0 0z"/>
   </g>
  </g>
 </g>
</svg>
