<?xml version="1.0" encoding="UTF-8"?>
<!DOCTYPE svg PUBLIC "-//W3C//DTD SVG 1.0//EN" "http://www.w3.org/TR/2001/REC-SVG-20010904/DTD/svg10.dtd">
<!-- Creator: CorelDRAW -->
<svg xmlns="http://www.w3.org/2000/svg" xml:space="preserve" width="1300px" height="1300px" version="1.0" style="shape-rendering:geometricPrecision; text-rendering:geometricPrecision; image-rendering:optimizeQuality; fill-rule:evenodd; clip-rule:evenodd"
viewBox="0 0 1300 1056"
 xmlns:xlink="http://www.w3.org/1999/xlink">
 <defs>
  <style type="text/css">
   <![CDATA[
    .fil0 {fill:black;fill-opacity:0.501961}
   ]]>
  </style>
 </defs>
 <g id="_100:master">
  <metadata id="CorelCorpID_0Corel-Layer"/>
  <g id="Regular-g.yeh_maksure.isol.svg">
   <g>
    <path class="fil0" d="M978 679l0 4c0,132 -122,197 -367,197 -170,0 -256,-63 -256,-189 0,-56 26,-128 78,-216l62 31c-39,72 -58,132 -58,178 0,76 60,114 181,114 194,0 292,-38 292,-115 0,-8 -4,-14 -11,-17 -8,-4 -32,-12 -75,-23 -70,-20 -105,-57 -105,-110 0,-54 36,-105 109,-153 30,-20 58,-30 84,-30 26,0 49,7 69,21 21,14 40,36 59,65l-55 45c-20,-33 -44,-50 -70,-50 -26,0 -55,12 -87,35 -32,23 -48,46 -48,68 0,20 23,34 68,44 87,17 130,51 130,101l0 0z"/>
   </g>
  </g>
 </g>
</svg>
