<?xml version="1.0" encoding="UTF-8"?>
<!DOCTYPE svg PUBLIC "-//W3C//DTD SVG 1.0//EN" "http://www.w3.org/TR/2001/REC-SVG-20010904/DTD/svg10.dtd">
<!-- Creator: CorelDRAW -->
<svg xmlns="http://www.w3.org/2000/svg" xml:space="preserve" width="1300px" height="1300px" version="1.0" style="shape-rendering:geometricPrecision; text-rendering:geometricPrecision; image-rendering:optimizeQuality; fill-rule:evenodd; clip-rule:evenodd"
viewBox="0 0 1300 1056"
 xmlns:xlink="http://www.w3.org/1999/xlink">
 <defs>
  <style type="text/css">
   <![CDATA[
    .fil0 {fill:black;fill-opacity:0.501961}
   ]]>
  </style>
 </defs>
 <g id="_100:master">
  <metadata id="CorelCorpID_0Corel-Layer"/>
  <g id="Regular-g.yeh_maksure.fina.svg">
   <g>
    <path class="fil0" d="M830 542c80,20 156,29 229,29l0 81c-55,0 -116,-12 -182,-38 65,44 98,87 98,128 0,91 -116,137 -348,137l-3 0c-162,0 -243,-61 -243,-183 0,-63 26,-138 78,-224l62 31c-39,74 -58,135 -58,185 0,72 59,109 177,109 175,0 262,-23 262,-68 0,-33 -34,-66 -102,-99l30 -88z"/>
   </g>
  </g>
 </g>
</svg>
